<svg width="17" height="17" viewBox="0 0 17 17" fill="none" xmlns="http://www.w3.org/2000/svg">
<path d="M8.375 0.25C3.89258 0.25 0.25 3.89258 0.25 8.375C0.25 12.8574 3.89258 16.5 8.375 16.5C9.89844 16.5 11.3291 16.0801 12.5498 15.3477L11.9053 14.2734C10.875 14.8936 9.66895 15.25 8.375 15.25C4.57129 15.25 1.5 12.1787 1.5 8.375C1.5 4.57129 4.57129 1.5 8.375 1.5C12.1787 1.5 15.25 4.57129 15.25 8.375V9.75195C15.25 10.7188 14.4688 11.5 13.5068 11.5H13.248C12.2861 11.5 11.5 10.7188 11.5 9.75195V6.99805C11.5 5.35254 10.1475 4 8.50195 4H8.24805C6.60254 4 5.25 5.35254 5.25 6.99805V9.75195C5.25 11.3975 6.60254 12.75 8.24805 12.75H8.50195C9.46875 12.75 10.3281 12.2764 10.875 11.5586C11.4268 12.2764 12.2813 12.75 13.248 12.75H13.5068C15.1475 12.75 16.5 11.4023 16.5 9.75195V8.375C16.5 3.89258 12.8574 0.25 8.375 0.25ZM8.24805 5.25H8.50195C9.46387 5.25 10.25 6.03125 10.25 6.99805V9.75195C10.25 10.7188 9.46387 11.5 8.50195 11.5H8.24805C7.28125 11.5 6.5 10.7188 6.5 9.75195V6.99805C6.5 6.03125 7.28125 5.25 8.24805 5.25Z" fill="#0072BC"/>
</svg>
