<svg width="36" height="37" viewBox="0 0 36 37" fill="none" xmlns="http://www.w3.org/2000/svg">
<path fill-rule="evenodd" clip-rule="evenodd" d="M0 19.1847V36.8223H8.37584V17.735V12.8223H0V19.1847ZM35.7584 20.1511C35.1946 15.6411 33.1007 12.7417 26.9799 12.7417C23.3557 12.7417 20.9396 14.0303 19.9732 15.9632H19.8926V12.7417H13.2081V17.3323V36.7417H20.2148V24.9028C20.2148 21.7619 20.8591 18.782 24.6443 18.782C28.5101 18.782 28.8322 22.3256 28.8322 25.1444V36.8223H36V23.6142C36 22.4062 35.9195 21.1981 35.7584 20.1511ZM4.18792 0.822266C1.85235 0.822266 0 2.67462 0 5.01019C0 7.34576 1.85235 9.1981 4.18792 9.1981C6.52349 9.1981 8.37584 7.34576 8.37584 5.01019C8.37584 2.67462 6.52349 0.822266 4.18792 0.822266Z" fill="#F9F9F9"/>
</svg>
