<svg width="14" height="18" viewBox="0 0 14 18" fill="none" xmlns="http://www.w3.org/2000/svg">
<path d="M7 0.25C3.55762 0.25 0.75 3.05762 0.75 6.5C0.75 7.4668 1.14551 8.52637 1.69238 9.64453C2.23926 10.7676 2.95215 11.9395 3.66992 13.0088C5.0957 15.1523 6.5166 16.8955 6.5166 16.8955L7 17.4912L7.4834 16.8955C7.4834 16.8955 8.9043 15.1523 10.335 13.0088C11.0479 11.9395 11.7607 10.7676 12.3076 9.64453C12.8545 8.52637 13.25 7.4668 13.25 6.5C13.25 3.05762 10.4424 0.25 7 0.25ZM7 1.5C9.76855 1.5 12 3.73145 12 6.5C12 7.08594 11.6924 8.05762 11.1846 9.09766C10.6768 10.1426 9.9834 11.2754 9.29492 12.3203C8.14746 14.0391 7.36621 14.9863 7 15.4453C6.63379 14.9863 5.85254 14.0391 4.70508 12.3203C4.0166 11.2754 3.32324 10.1426 2.81543 9.09766C2.30762 8.05762 2 7.08594 2 6.5C2 3.73145 4.23145 1.5 7 1.5ZM7 5.25C6.31152 5.25 5.75 5.81152 5.75 6.5C5.75 7.18848 6.31152 7.75 7 7.75C7.68848 7.75 8.25 7.18848 8.25 6.5C8.25 5.81152 7.68848 5.25 7 5.25Z" fill="#0072BC"/>
</svg>
