<svg width="17" height="17" viewBox="0 0 17 17" fill="none" xmlns="http://www.w3.org/2000/svg">
<path d="M3.21407 0.303711L1.24629 2.27148C0.167192 3.35059 -0.0671825 5.03027 0.704301 6.34863C1.56368 7.82324 2.2668 8.91211 5.21114 11.8516C8.15059 14.7959 8.95137 15.1963 10.4016 16.0459C11.7248 16.8174 13.3996 16.583 14.4738 15.5039L16.4465 13.5361L12.6379 9.73242L11.09 11.2803C10.9045 11.1973 10.6262 11.0508 10.3039 10.8457C9.63985 10.4209 8.79024 9.77148 8.04317 9.01953C7.29122 8.27246 6.55879 7.33984 6.05098 6.58789C5.80196 6.2168 5.60176 5.87988 5.49434 5.66016C5.48946 5.65039 5.48946 5.65039 5.48457 5.64062L7.01778 4.10742L3.21407 0.303711ZM3.21407 2.07129L5.2502 4.10742L4.35664 5.00586C4.1711 5.19141 4.15157 5.39648 4.15645 5.51367C4.15645 5.62598 4.17598 5.7041 4.19551 5.77734C4.23946 5.92871 4.29805 6.06055 4.37129 6.2168C4.52266 6.51953 4.74239 6.88086 5.01582 7.29102C5.5627 8.10156 6.33418 9.08301 7.1545 9.9082C7.97969 10.7285 8.8879 11.4219 9.63497 11.8955C10.0061 12.1348 10.3332 12.3154 10.6115 12.4375C10.7531 12.501 10.8801 12.5498 11.0315 12.5791C11.1047 12.5937 11.1877 12.6035 11.3 12.5937C11.4123 12.5889 11.5881 12.5498 11.7443 12.3936L12.6379 11.5L14.6789 13.5361L13.59 14.625C12.9113 15.3037 11.8615 15.4502 11.0315 14.9668C9.55684 14.1025 8.99532 13.873 6.09004 10.9727C3.18965 8.06738 2.63301 7.17383 1.7834 5.71875C1.3 4.88867 1.44649 3.83887 2.1252 3.16016L3.21407 2.07129Z" fill="#0072BC"/>
</svg>
