<svg width="40" height="33" viewBox="0 0 40 33" fill="none" xmlns="http://www.w3.org/2000/svg">
<path fill-rule="evenodd" clip-rule="evenodd" d="M39.9413 4.62425C38.5177 5.25791 36.9359 5.65395 35.2749 5.89157C37.0149 4.86187 38.2804 3.27771 38.9132 1.37672C37.3313 2.32722 35.5122 2.96088 33.6931 3.35692C32.1903 1.77276 30.0549 0.822266 27.6821 0.822266C23.1739 0.822266 19.4566 4.46583 19.4566 8.90147C19.4566 9.53514 19.5357 10.1688 19.6938 10.7233C12.8919 10.4064 6.80187 7.1589 2.76818 2.24801C2.05636 3.43613 1.6609 4.86187 1.6609 6.28761C1.6609 9.1391 3.16364 11.5945 5.29912 13.0203C3.95456 13.0203 2.68909 12.6242 1.58181 11.9906C1.58181 12.0698 1.58181 12.0698 1.58181 12.0698C1.58181 13.0995 1.73999 14.05 2.13545 15.0005C3.16364 17.5351 5.37821 19.4361 8.14643 19.9906C7.4346 20.149 6.72278 20.3074 6.01095 20.3074C5.45731 20.3074 4.98276 20.2282 4.5082 20.149C5.5364 23.3965 8.62098 25.6936 12.1801 25.7728C9.33281 27.9114 5.85277 29.2579 1.97727 29.2579C1.26544 29.2579 0.711796 29.1787 -3.05176e-05 29.1787C3.63819 31.4757 7.98825 32.8223 12.5756 32.8223C25.3885 32.8223 33.2976 23.951 35.354 14.6837C35.7495 13.0203 35.9077 11.4361 35.9077 9.77276C35.9077 9.45593 35.9077 9.05989 35.9077 8.74306C37.4104 7.63415 38.8341 6.2084 39.9413 4.62425Z" fill="#F9F9F9"/>
</svg>
