<svg width="45" height="33" viewBox="0 0 45 33" fill="none" xmlns="http://www.w3.org/2000/svg">
<path fill-rule="evenodd" clip-rule="evenodd" d="M43.8113 7.56345C43.8113 7.56345 43.3757 4.44994 42.0688 3.06615C40.4135 1.24994 38.4968 1.24994 37.7127 1.16345C31.527 0.644532 22.2049 0.644531 22.2049 0.644531H22.1178C22.1178 0.644531 12.8829 0.644531 6.69717 1.07696C5.82594 1.16345 3.90925 1.24994 2.25393 2.97967C0.94709 4.36345 0.511478 7.47696 0.511478 7.47696C0.511478 7.47696 0.0758667 11.1959 0.0758667 14.8283V15.3472V18.3743C0.0758667 22.0932 0.511478 25.7256 0.511478 25.7256C0.511478 25.7256 0.94709 28.8391 2.25393 30.3094C3.90925 32.1256 6.08731 32.0391 7.13278 32.2121C10.6177 32.558 22.1178 32.6445 22.1178 32.6445C22.1178 32.6445 31.3528 32.558 37.5385 32.2121C38.4097 32.1256 40.2393 32.1256 41.8946 30.3094C43.2014 28.9256 43.637 25.7256 43.637 25.7256C43.637 25.7256 44.0727 22.0932 44.0727 18.3743V15.5202V14.8283C44.2469 11.2824 43.8113 7.56345 43.8113 7.56345ZM29.6103 16.2121L17.6746 22.6121V12.7526V9.72561L23.0762 12.6662L29.6103 16.2121Z" fill="#F9F9F9"/>
</svg>
