<svg width="25" height="36" viewBox="0 0 25 36" fill="none" xmlns="http://www.w3.org/2000/svg">
<path d="M23.004 0H1.908C0.864 0 0 0.864 0 1.908V33.984C0 35.1 0.9 36 2.016 36H23.364C24.228 36 24.912 35.316 24.912 34.452V32.544V31.968V1.908C24.912 0.864 24.048 0 23.004 0ZM1.908 1.152H2.34V31.968H2.016C1.692 31.968 1.404 32.04 1.152 32.184V1.944C1.152 1.476 1.512 1.152 1.908 1.152ZM23.76 34.452C23.76 34.668 23.58 34.848 23.364 34.848H2.016C1.548 34.848 1.152 34.452 1.152 33.984C1.152 33.516 1.548 33.12 2.016 33.12H23.76V34.452ZM3.492 31.968V1.152H23.004C23.436 1.152 23.76 1.512 23.76 1.908V31.968H3.492Z" fill="#F9F9F9"/>
<path d="M19.2598 17.0281H7.41584C7.09184 17.0281 6.83984 17.2801 6.83984 17.6041C6.83984 17.9281 7.09184 18.1801 7.41584 18.1801H19.2238C19.5478 18.1801 19.7998 17.9281 19.7998 17.6041C19.7998 17.2801 19.5838 17.0281 19.2598 17.0281Z" fill="#F9F9F9"/>
<path d="M19.2598 13.932H7.41584C7.09184 13.932 6.83984 14.184 6.83984 14.508C6.83984 14.832 7.09184 15.084 7.41584 15.084H19.2238C19.5478 15.084 19.7998 14.832 19.7998 14.508C19.7998 14.184 19.5838 13.932 19.2598 13.932Z" fill="#F9F9F9"/>
<path d="M8.1721 8.784C8.3881 8.82 8.6401 8.82 8.7841 8.82C9.9361 8.82 10.5481 8.064 10.5481 7.272C10.5481 6.48 10.1161 5.724 8.67611 5.724C8.35211 5.724 7.56011 5.724 7.30811 5.724V10.548H8.13611V8.784H8.1721ZM8.1721 6.48C8.3881 6.48 8.6041 6.48 8.7841 6.48C9.3601 6.48 9.6841 6.732 9.6841 7.236C9.6841 7.776 9.2881 8.028 8.7841 8.028C8.6041 8.028 8.3881 8.028 8.1721 7.992V6.48Z" fill="#F9F9F9"/>
<path d="M12.8877 10.548C14.7237 10.548 15.6597 9.43199 15.6597 8.06399C15.6597 6.80399 14.8677 5.68799 12.9597 5.68799C12.5997 5.68799 11.9157 5.72399 11.6277 5.72399H11.5557V10.548H11.6637C12.0597 10.512 12.5997 10.548 12.8877 10.548ZM12.3837 6.47999C12.5637 6.47999 12.7437 6.44399 12.9237 6.44399C14.0757 6.44399 14.7597 7.05599 14.7597 8.02799C14.7597 9.03599 14.0757 9.71999 12.9237 9.71999C12.8157 9.71999 12.5997 9.71999 12.3837 9.71999V6.47999Z" fill="#F9F9F9"/>
<path d="M17.4598 8.63999H19.1518V7.84799H17.4598V6.47999H19.3678V5.68799H16.6318V10.512H17.4598V8.63999Z" fill="#F9F9F9"/>
<path d="M15.2641 25.776L13.8961 27.18V20.808H12.7801V27.18L11.4121 25.776L10.6201 26.568L13.3561 29.304L14.1121 28.512L16.0561 26.568L15.2641 25.776Z" fill="#F9F9F9"/>
</svg>
