<svg width="51" height="58" viewBox="0 0 51 58" fill="none" xmlns="http://www.w3.org/2000/svg">
<path d="M24.0628 0C23.0667 0 22.137 0.492188 21.5784 1.32031L1.28156 31.3164C0.660466 32.2422 0.597966 33.4219 1.1175 34.4062C1.64093 35.3906 2.65656 36 3.76593 36H13.1878L1.1839 53.9375C0.637029 54.75 0.75031 55.7969 1.45343 56.4844C1.84406 56.8633 2.34015 57.0586 2.84406 57.0586C3.2425 57.0586 3.64875 56.9336 4.00422 56.6836L45.0159 27.6328C45.7308 27.125 46.0316 26.2266 45.7659 25.3906C45.5003 24.5586 44.7308 24 43.8597 24H32.2191L49.6566 5.03125C50.473 4.14062 50.6761 2.90234 50.1917 1.79688C49.7073 0.6875 48.6566 0 47.4456 0H24.0628ZM24.0628 2H47.4456C48.0511 2 48.3011 2.45703 48.3597 2.59766C48.4222 2.73828 48.5902 3.23047 48.1839 3.67969L46.9964 4.96875C46.9769 4.42969 46.5394 4 46.0003 4C45.4495 4 45.0003 4.44531 45.0003 5V7C45.0003 7.03906 45.0198 7.07422 45.0237 7.11328L30.7464 22.6445C30.1995 23.2383 30.0628 24.0664 30.3909 24.8047C30.7112 25.543 31.4144 26 32.2191 26H43.8597L2.84406 55.0508L15.8909 35.5586C16.0941 35.25 16.1175 34.8555 15.9417 34.5312C15.7659 34.2031 15.4261 34 15.0589 34H3.76593C3.22297 34 2.96906 33.6289 2.88312 33.4688C2.80109 33.3086 2.63312 32.8867 2.93781 32.4375L20.0355 7.17188C20.1175 7.63672 20.5081 8 21.0003 8C21.5511 8 22.0003 7.55469 22.0003 7V5C22.0003 4.8125 21.9339 4.64453 21.8441 4.49219L23.2347 2.4375C23.4183 2.16406 23.7308 2 24.0628 2ZM26.0003 4C25.4495 4 25.0003 4.44531 25.0003 5V7C25.0003 7.55469 25.4495 8 26.0003 8C26.5511 8 27.0003 7.55469 27.0003 7V5C27.0003 4.44531 26.5511 4 26.0003 4ZM31.0003 4C30.4495 4 30.0003 4.44531 30.0003 5V7C30.0003 7.55469 30.4495 8 31.0003 8C31.5511 8 32.0003 7.55469 32.0003 7V5C32.0003 4.44531 31.5511 4 31.0003 4ZM36.0003 4C35.4495 4 35.0003 4.44531 35.0003 5V7C35.0003 7.55469 35.4495 8 36.0003 8C36.5511 8 37.0003 7.55469 37.0003 7V5C37.0003 4.44531 36.5511 4 36.0003 4ZM41.0003 4C40.4495 4 40.0003 4.44531 40.0003 5V7C40.0003 7.55469 40.4495 8 41.0003 8C41.5511 8 42.0003 7.55469 42.0003 7V5C42.0003 4.44531 41.5511 4 41.0003 4ZM34.2698 28.1914C34.0159 28.1484 33.7503 28.2031 33.5237 28.3594L31.4847 29.8086C31.0316 30.125 30.9261 30.75 31.2464 31.2031C31.4378 31.4766 31.7503 31.625 32.0628 31.625C32.262 31.625 32.4612 31.5625 32.6409 31.4375L34.68 29.9961C35.1292 29.6758 35.2386 29.0508 34.9183 28.5977C34.7581 28.375 34.5237 28.2383 34.2698 28.1914ZM28.9925 31.9297C28.7386 31.8867 28.473 31.9414 28.2464 32.0977L19.2972 38.4414C18.8441 38.7617 18.7386 39.3828 19.0589 39.8359C19.2503 40.1094 19.5589 40.2578 19.8753 40.2578C20.0745 40.2578 20.2737 40.1992 20.4534 40.0742L29.4027 33.7344C29.8519 33.4141 29.9612 32.7891 29.6409 32.3398C29.4808 32.1133 29.2464 31.9727 28.9925 31.9297Z" fill="#0072BC"/>
</svg>
