<svg width="58" height="58" viewBox="0 0 58 58" fill="none" xmlns="http://www.w3.org/2000/svg">
<path d="M29 0C13.0117 0 0 13.0078 0 29C0 44.9922 13.0117 58 29 58C44.9883 58 58 44.9922 58 29C58 13.0078 44.9883 0 29 0ZM29 2C43.8867 2 56 14.1133 56 29C56 43.8867 43.8867 56 29 56C14.1133 56 2 43.8867 2 29C2 14.1133 14.1133 2 29 2ZM28.5625 6.00781C22.6719 6.125 16.9609 8.51172 12.7344 12.7344C3.76953 21.7031 3.76953 36.293 12.7344 45.2617C12.9297 45.457 13.1875 45.5547 13.4414 45.5547C13.6992 45.5547 13.957 45.457 14.1523 45.2617C14.543 44.8711 14.543 44.2383 14.1523 43.8477C5.96094 35.6602 5.96484 22.3398 14.1523 14.1523C18.8984 9.40234 25.6992 7.20312 32.3398 8.26562C32.8828 8.35547 33.3984 7.98047 33.4844 7.4375C33.5742 6.89062 33.1992 6.375 32.6562 6.28906C31.293 6.07031 29.9219 5.97656 28.5625 6.00781ZM36.6562 7.38672C36.2695 7.40234 35.9102 7.64844 35.7656 8.03516C35.5703 8.55469 35.832 9.12891 36.3516 9.32422C37.0664 9.58984 37.7695 9.89844 38.4531 10.2383C38.5977 10.3125 38.75 10.3477 38.9023 10.3477C39.2656 10.3477 39.6172 10.1484 39.7969 9.79688C40.043 9.30469 39.8438 8.70312 39.3516 8.45312C38.6094 8.07812 37.832 7.74219 37.0508 7.44922C36.9219 7.40234 36.7891 7.38281 36.6562 7.38672ZM42.4336 10.6758C42.1797 10.707 41.9375 10.832 41.7656 11.0508C41.4258 11.4844 41.5 12.1133 41.9375 12.4531C42.6055 12.9766 43.2461 13.5469 43.8477 14.1523C52.0391 22.3398 52.0391 35.6602 43.8477 43.8477C43.457 44.2422 43.457 44.8711 43.8477 45.2656C44.043 45.457 44.3008 45.5586 44.5586 45.5586C44.8125 45.5586 45.0703 45.457 45.2656 45.2656C54.2305 36.2969 54.2305 21.7031 45.2656 12.7344C44.6055 12.0781 43.9023 11.4531 43.1719 10.8789C42.9531 10.7109 42.6836 10.6445 42.4336 10.6758ZM26 16C24.8984 16 24 16.8984 24 18V30H22C21.4453 30 21 30.4492 21 31C21 31.5508 21.4453 32 22 32H24V34H22C21.4453 34 21 34.4492 21 35C21 35.5508 21.4453 36 22 36H24V41C24 41.5508 24.4453 42 25 42C25.5547 42 26 41.5508 26 41V32H32C35.3086 32 38 29.3086 38 26V22C38 18.6914 35.3086 16 32 16H26ZM26 18H32C34.207 18 36 19.793 36 22V26C36 28.207 34.207 30 32 30H26V18ZM28 34C27.4453 34 27 34.4492 27 35C27 35.5508 27.4453 36 28 36H34C34.5547 36 35 35.5508 35 35C35 34.4492 34.5547 34 34 34H28ZM19.375 46.3945C18.9844 46.3477 18.5898 46.5273 18.3867 46.8867L17.3867 48.6211C17.1094 49.0977 17.2734 49.707 17.75 49.9844C17.9062 50.0742 18.0781 50.1211 18.25 50.1211C18.5938 50.1211 18.9297 49.9414 19.1133 49.6211L20.1133 47.8867C20.3906 47.4102 20.2305 46.7969 19.75 46.5195C19.6289 46.4531 19.5039 46.4102 19.375 46.3945ZM38.625 46.3945C38.4961 46.4102 38.3672 46.4531 38.25 46.5195C37.7695 46.7969 37.6094 47.4102 37.8867 47.8906L38.8867 49.6211C39.0703 49.9414 39.4062 50.1211 39.75 50.1211C39.9219 50.1211 40.0938 50.0781 40.25 49.9844C40.7305 49.7109 40.8906 49.0977 40.6133 48.6211L39.6133 46.8906C39.4062 46.5312 39.0117 46.3477 38.625 46.3945ZM34.1875 48.3438C34.0586 48.3242 33.9219 48.332 33.7852 48.3711C33.2539 48.5117 32.9375 49.0625 33.0781 49.5938L33.5977 51.5273C33.7188 51.9727 34.1211 52.2695 34.5625 52.2695C34.6523 52.2695 34.7383 52.2578 34.8242 52.2344C35.3555 52.0898 35.6758 51.543 35.5312 51.0117L35.0156 49.0781C34.9062 48.6758 34.5703 48.3984 34.1875 48.3438ZM23.8164 48.3438C23.4297 48.3984 23.0938 48.6758 22.9844 49.0781L22.4688 51.0117C22.3242 51.543 22.6445 52.0898 23.1758 52.2344C23.2617 52.2578 23.3477 52.2695 23.4375 52.2695C23.875 52.2695 24.2812 51.9727 24.4023 51.5273L24.9219 49.5938C25.0625 49.0625 24.7461 48.5117 24.2148 48.3711C24.0781 48.332 23.9453 48.3281 23.8164 48.3438ZM29 49C28.4453 49 28 49.4492 28 50V52C28 52.5508 28.4453 53 29 53C29.5547 53 30 52.5508 30 52V50C30 49.4492 29.5547 49 29 49Z" fill="#0072BC"/>
</svg>
