<svg width="64" height="48" viewBox="0 0 64 48" fill="none" xmlns="http://www.w3.org/2000/svg">
<path d="M32.1875 0.0157004C24.0664 0.336013 16.8593 5.26961 13.6836 12.7774C13.6757 12.797 13.6562 12.8048 13.6523 12.8243C13.4609 13.2735 13.3086 13.7345 13.1523 14.1915C13.1211 14.2852 13.082 14.3712 13.0507 14.4649C5.14449 16.3516 -0.421912 23.7618 0.027307 31.9532C0.515588 40.9493 8.17184 48.0001 17.4531 48.0001H51.6562C58.2226 48.0001 63.7578 42.8165 63.9882 36.4532C64.1836 31.2462 60.9531 26.6446 56.3242 24.8399C56.2734 24.8087 56.2343 24.7657 56.1757 24.7462C55.4961 24.4923 54.7851 24.3282 54.0703 24.2032C53.9687 24.1876 53.8671 24.1602 53.7656 24.1446C54.0625 22.168 54.0781 20.1524 53.8086 18.129C52.582 8.8868 44.9726 1.33211 35.7148 0.17195C34.5234 0.0235134 33.3437 -0.0272686 32.1875 0.0157004ZM33.0273 2.00008C33.832 2.00008 34.6445 2.05086 35.4648 2.15633C43.832 3.2032 50.7148 10.0313 51.8281 18.3907C52.0781 20.2852 52.039 22.172 51.7461 24.0157C51.1328 24.0274 50.5234 24.0743 49.9218 24.1759C49.375 24.2735 49.0117 24.793 49.1093 25.336C49.2031 25.879 49.7109 26.2423 50.2656 26.1485C51.0273 26.0157 51.8086 25.9845 52.582 26.0313C52.8554 26.047 53.125 26.0782 53.3945 26.1134C53.4921 26.129 53.5898 26.1446 53.6875 26.1602C58.539 26.9962 62.1796 31.3477 61.9961 36.3751C61.8984 38.9376 60.7617 41.2657 59 42.9884V41.0001C59 40.4454 58.5546 40.0001 58 40.0001C57.4453 40.0001 57 40.4454 57 41.0001V43.0001C57 43.4962 57.3671 43.8907 57.8437 43.9688C56.1054 45.2384 53.9609 46.0001 51.6562 46.0001H17.4531C14.2812 46.0001 11.3281 45.0665 8.86715 43.4688C8.94528 43.3282 8.99996 43.1759 8.99996 43.0001V41.0001C8.99996 40.4454 8.55465 40.0001 7.99996 40.0001C7.44528 40.0001 6.99996 40.4454 6.99996 41.0001V42.0509C4.12496 39.4923 2.24215 35.8946 2.0234 31.8438C1.6484 24.9923 6.04293 18.7696 12.4375 16.7188C12.1523 18.1173 12 19.547 12 21.0001C12 21.5548 12.4453 22.0001 13 22.0001C13.5547 22.0001 14 21.5548 14 21.0001C14 19.1563 14.2695 17.3555 14.7812 15.6134C14.7851 15.6095 14.7851 15.6055 14.789 15.5977C14.9023 15.2188 15.0351 14.8516 15.1718 14.4845C15.2343 14.3126 15.289 14.1407 15.3593 13.9688C18.2343 6.71101 25.2265 2.00008 33.0273 2.00008ZM33.5742 5.0157C30.7382 4.92586 27.8632 5.5782 25.375 6.93367C24.8867 7.19539 24.707 7.80086 24.9726 8.28523C25.1562 8.62117 25.4961 8.80867 25.8515 8.80867C26.0117 8.80867 26.1757 8.76961 26.3281 8.68758C29.2343 7.10945 32.7461 6.62117 35.9531 7.31258C36.5039 7.42976 37.0273 7.08211 37.1445 6.54695C37.2617 6.00789 36.914 5.47273 36.375 5.35945C35.457 5.16023 34.5156 5.04695 33.5742 5.0157ZM40.1406 6.7657C39.7539 6.73054 39.3671 6.92195 39.1718 7.28523C38.9101 7.77351 39.0937 8.38289 39.582 8.6407C40.3632 9.05867 41.1093 9.55086 41.7968 10.1095C41.9843 10.2618 42.207 10.3321 42.4257 10.3321C42.7187 10.3321 43.0078 10.2071 43.2031 9.96492C43.5546 9.53133 43.4882 8.90242 43.0586 8.55867C42.2695 7.91804 41.4179 7.35554 40.5273 6.87508C40.4023 6.81258 40.2734 6.77351 40.1406 6.7657ZM13 40.0001C12.4453 40.0001 12 40.4454 12 41.0001V43.0001C12 43.5548 12.4453 44.0001 13 44.0001C13.5547 44.0001 14 43.5548 14 43.0001V41.0001C14 40.4454 13.5547 40.0001 13 40.0001ZM18 40.0001C17.4453 40.0001 17 40.4454 17 41.0001V43.0001C17 43.5548 17.4453 44.0001 18 44.0001C18.5547 44.0001 19 43.5548 19 43.0001V41.0001C19 40.4454 18.5547 40.0001 18 40.0001ZM23 40.0001C22.4453 40.0001 22 40.4454 22 41.0001V43.0001C22 43.5548 22.4453 44.0001 23 44.0001C23.5547 44.0001 24 43.5548 24 43.0001V41.0001C24 40.4454 23.5547 40.0001 23 40.0001ZM28 40.0001C27.4453 40.0001 27 40.4454 27 41.0001V43.0001C27 43.5548 27.4453 44.0001 28 44.0001C28.5547 44.0001 29 43.5548 29 43.0001V41.0001C29 40.4454 28.5547 40.0001 28 40.0001ZM33 40.0001C32.4453 40.0001 32 40.4454 32 41.0001V43.0001C32 43.5548 32.4453 44.0001 33 44.0001C33.5546 44.0001 34 43.5548 34 43.0001V41.0001C34 40.4454 33.5546 40.0001 33 40.0001ZM38 40.0001C37.4453 40.0001 37 40.4454 37 41.0001V43.0001C37 43.5548 37.4453 44.0001 38 44.0001C38.5546 44.0001 39 43.5548 39 43.0001V41.0001C39 40.4454 38.5546 40.0001 38 40.0001ZM43 40.0001C42.4453 40.0001 42 40.4454 42 41.0001V43.0001C42 43.5548 42.4453 44.0001 43 44.0001C43.5546 44.0001 44 43.5548 44 43.0001V41.0001C44 40.4454 43.5546 40.0001 43 40.0001ZM48 40.0001C47.4453 40.0001 47 40.4454 47 41.0001V43.0001C47 43.5548 47.4453 44.0001 48 44.0001C48.5546 44.0001 49 43.5548 49 43.0001V41.0001C49 40.4454 48.5546 40.0001 48 40.0001ZM53 40.0001C52.4453 40.0001 52 40.4454 52 41.0001V43.0001C52 43.5548 52.4453 44.0001 53 44.0001C53.5546 44.0001 54 43.5548 54 43.0001V41.0001C54 40.4454 53.5546 40.0001 53 40.0001Z" fill="#0072BC"/>
</svg>
