<svg width="56" height="51" viewBox="0 0 56 51" fill="none" xmlns="http://www.w3.org/2000/svg">
<path d="M43 0C40.1807 0 37.5386 1.19002 35.6602 3.22656C34.5593 1.86969 32.8798 1 31 1C28.86 1 26.9184 2.15631 25.8574 3.94531C23.6864 2.05931 20.896 1 18 1C12.872 1 8.34764 4.26487 6.68164 9.04688C6.44964 9.01587 6.225 9 6 9C2.691 9 0 11.691 0 15C0 16.986 0.999281 18.8315 2.61328 19.9375C2.21028 20.9075 2 21.949 2 23C2 26.101 3.7642 28.879 6.5332 30.207C7.8962 34.229 11.724 37 16 37C17.3895 37 18.7431 36.6964 20 36.1445V42C20 45.859 16.859 49 13 49H7C6.447 49 6 49.447 6 50C6 50.553 6.447 51 7 51H49C49.553 51 50 50.553 50 50C50 49.447 49.553 49 49 49H43C39.141 49 36 45.859 36 42V36.5215C36.9671 36.8271 37.9759 37 39 37C43.135 37 46.8057 34.4742 48.3027 30.6582C51.6847 29.6512 54 26.577 54 23C54 21.949 53.7897 20.9075 53.3867 19.9375C55.0007 18.8315 56 16.986 56 15C56 13.1064 55.047 10.7426 52.9707 9.42383C52.6697 4.1783 48.3196 0 43 0ZM43 2C47.411 2 51 5.589 51 10C51 10.05 51.0203 10.0927 51.0273 10.1406C51.0378 10.2126 51.0447 10.2837 51.0703 10.3516C51.0932 10.4119 51.1305 10.4616 51.1641 10.5156C51.1978 10.5706 51.2271 10.6258 51.2715 10.6738C51.3199 10.7262 51.379 10.7637 51.4375 10.8047C51.4779 10.8331 51.5072 10.8718 51.5527 10.8945C53.2427 11.7385 54 13.565 54 15C54 16.551 53.0812 17.976 51.6602 18.627C51.4052 18.745 51.211 18.9625 51.125 19.2305C51.039 19.4985 51.069 19.7882 51.209 20.0312C51.727 20.9373 52 21.964 52 23C52 25.823 50.0753 28.2296 47.3203 28.8496C46.9783 28.9266 46.7018 29.1777 46.5918 29.5117C45.5058 32.7947 42.455 35 39 35C37.143 35 35.397 34.38 33.957 33.207C33.718 33.013 33.4075 32.9418 33.1055 33.0078C32.8065 33.0768 32.5539 33.2777 32.4219 33.5547C31.4329 35.6467 29.305 37 27 37C24.876 37 22.8895 35.8548 21.8145 34.0098C21.6755 33.7708 21.4467 33.5991 21.1777 33.5371C20.9117 33.4751 20.6294 33.5267 20.4004 33.6777C19.0904 34.5427 17.568 35 16 35C12.452 35 9.29245 32.6161 8.31445 29.2031C8.23045 28.9081 8.01542 28.6687 7.73242 28.5527C5.46542 27.6257 4 25.446 4 23C4 21.964 4.27302 20.9382 4.79102 20.0332C4.93102 19.7902 4.961 19.4985 4.875 19.2305C4.789 18.9625 4.59484 18.744 4.33984 18.627C2.91884 17.975 2 16.551 2 15C2 12.794 3.794 11 6 11C6.327 11 6.6767 11.0558 7.0957 11.1758C7.3547 11.2498 7.63323 11.216 7.86523 11.082C8.09923 10.949 8.26989 10.7278 8.33789 10.4668C9.48689 6.0698 13.461 3 18 3C20.835 3 23.5512 4.22161 25.4512 6.34961C25.6962 6.62261 26.0688 6.73925 26.4258 6.65625C26.7818 6.57225 27.0641 6.30127 27.1621 5.94727C27.6381 4.21127 29.216 3 31 3C32.542 3 33.8678 3.88683 34.5352 5.16797C34.5624 5.32711 34.6335 5.47273 34.7344 5.60352C34.8984 6.0402 35 6.50665 35 7C35 7.553 35.447 8 36 8C36.553 8 37 7.553 37 7C37 6.33841 36.888 5.70303 36.6895 5.10742C38.2014 3.15747 40.5135 2 43 2ZM14 9C13.447 9 13 9.447 13 10C13 10.553 13.447 11 14 11C17.309 11 20 13.691 20 17C20 17.553 20.447 18 21 18C21.553 18 22 17.553 22 17C22 12.589 18.411 9 14 9ZM39 17C34.406 17 30.4216 20.1142 29.3086 24.5742C29.1756 25.1102 29.5001 25.6531 30.0371 25.7871C30.1181 25.8071 30.1993 25.8164 30.2793 25.8164C30.7273 25.8164 31.135 25.5126 31.25 25.0586C32.139 21.4916 35.326 19 39 19C39.314 19 39.6487 19.0232 40.0527 19.0762C40.5977 19.1472 41.1028 18.7648 41.1738 18.2168C41.2458 17.6688 40.8595 17.1667 40.3125 17.0957C39.8195 17.0307 39.403 17 39 17ZM11.4336 23.5078L9.44336 23.6875C8.89336 23.7375 8.48711 24.2244 8.53711 24.7754C8.58411 25.2934 9.0212 25.6836 9.5332 25.6836C9.5632 25.6836 9.594 25.6827 9.625 25.6797L11.6152 25.498C12.1652 25.448 12.5715 24.9631 12.5215 24.4121C12.4715 23.8631 11.9936 23.4578 11.4336 23.5078ZM13.0938 26.8594C12.838 26.8574 12.5803 26.9539 12.3828 27.1484L10.957 28.5527C10.563 28.9407 10.5593 29.5728 10.9473 29.9668C11.1423 30.1648 11.4012 30.2637 11.6602 30.2637C11.9142 30.2637 12.1663 30.1686 12.3613 29.9766L13.7871 28.5723C14.1811 28.1843 14.1849 27.5522 13.7969 27.1582C13.6034 26.9617 13.3495 26.8614 13.0938 26.8594ZM19.8359 27.6133C19.7079 27.6369 19.5828 27.6872 19.4668 27.7637C19.0058 28.0677 18.8776 28.6874 19.1816 29.1484L20.2812 30.8184C20.4722 31.1104 20.7922 31.2695 21.1172 31.2695C21.3062 31.2695 21.496 31.2155 21.666 31.1035C22.127 30.7995 22.2552 30.1798 21.9512 29.7188L20.8516 28.0488C20.6251 27.7031 20.2199 27.5424 19.8359 27.6133ZM16.5234 28.4746C15.9814 28.4176 15.4818 28.8133 15.4238 29.3633L15.2148 31.3535C15.1578 31.9025 15.5565 32.3932 16.1055 32.4512C16.1405 32.4552 16.1759 32.457 16.2109 32.457C16.7169 32.457 17.1481 32.0765 17.2031 31.5625L17.4121 29.5723C17.4691 29.0233 17.0724 28.5326 16.5234 28.4746ZM33.6445 35.4414C33.7812 35.5283 33.9219 35.6076 34.0625 35.6875C34.0292 35.7873 34 35.8889 34 36V42C34 44.8257 35.3104 47.3488 37.3535 49H18.6465C20.6896 47.3488 22 44.8257 22 42V37.2285C23.4013 38.3522 25.1609 39 27 39C29.676 39 32.1725 37.6354 33.6445 35.4414Z" fill="#0072BC"/>
</svg>
