<svg xmlns="http://www.w3.org/2000/svg" xmlns:xlink="http://www.w3.org/1999/xlink" version="1.1" x="0px" y="0px" viewBox="0 0 100 125" style="enable-background:new 0 0 100 100;" xml:space="preserve"><g><path d="M47.569,66.514H49.5c0.292-0.843,0.625-1.668,0.995-2.475h-2.926V53.633h11.233c1.206-0.925,2.493-1.754,3.852-2.474h-0.19   V40.752h11.773v4.9h4.208V27.854v-4.208V13.001h-6.085v3.697c0,3.683-2.984,6.668-6.668,6.668c-3.683,0-6.668-2.986-6.668-6.668   v-3.697H19.421v3.697c0,3.683-2.985,6.668-6.668,6.668c-3.683,0-6.668-2.986-6.668-6.668v-3.697H0v10.644v4.208v51.966h47.569   V66.514z M62.463,27.854h11.773v10.424H62.463V27.854z M47.569,27.854h12.419v10.424H47.569V27.854z M47.569,40.752h12.419v10.407   H47.569V40.752z M15.305,75.612H4.207v-9.099h11.098V75.612z M15.305,64.039H4.207V53.633h11.098V64.039z M15.305,51.159H4.207   V40.752h11.098V51.159z M15.305,38.278H4.207V27.854h11.098V38.278z M30.201,75.612H17.78v-9.099h12.421V75.612z M30.201,64.039   H17.78V53.633h12.421V64.039z M30.201,51.159H17.78V40.752h12.421V51.159z M30.201,38.278H17.78V27.854h12.421V38.278z    M45.095,75.612H32.674v-9.099h12.421V75.612z M45.095,64.039H32.674V53.633h12.421V64.039z M45.095,51.159H32.674V40.752h12.421   V51.159z M45.095,38.278H32.674V27.854h12.421V38.278z M8.03,16.633V4.724C8.03,2.115,10.145,0,12.753,0   c2.609,0,4.723,2.115,4.723,4.724v11.91c0,2.609-2.114,4.723-4.723,4.723C10.145,21.356,8.03,19.242,8.03,16.633z M60.969,16.633   V4.724C60.969,2.115,63.083,0,65.691,0s4.723,2.115,4.723,4.724v11.91c0,2.609-2.114,4.723-4.723,4.723   S60.969,19.242,60.969,16.633z M88.952,79.13H72.571V59.862c0-1.304,1.057-2.361,2.36-2.361c1.305,0,2.361,1.058,2.361,2.361   v14.545h11.659c1.304,0,2.36,1.058,2.36,2.361S90.256,79.13,88.952,79.13z M81.941,51.785v-3.203H68.752v3.262   c-10.285,2.925-17.838,12.402-17.838,23.613C50.914,88.99,61.924,100,75.457,100C88.989,100,100,88.99,100,75.457   C100,64.168,92.338,54.637,81.941,51.785z M75.457,95.277c-10.93,0-19.822-8.892-19.822-19.82c0-10.93,8.893-19.821,19.822-19.821   c10.929,0,19.82,8.892,19.82,19.821C95.277,86.386,86.386,95.277,75.457,95.277z"/></g><text x="0" y="115" fill="#000000" font-size="5px" font-weight="bold" font-family="'Helvetica Neue', Helvetica, Arial-Unicode, Arial, Sans-serif">Created by b farias</text><text x="0" y="120" fill="#000000" font-size="5px" font-weight="bold" font-family="'Helvetica Neue', Helvetica, Arial-Unicode, Arial, Sans-serif">from the Noun Project</text></svg>