<svg xmlns:dc="http://purl.org/dc/elements/1.1/" xmlns:cc="http://creativecommons.org/ns#" xmlns:rdf="http://www.w3.org/1999/02/22-rdf-syntax-ns#" xmlns:svg="http://www.w3.org/2000/svg" xmlns="http://www.w3.org/2000/svg" xmlns:sodipodi="http://sodipodi.sourceforge.net/DTD/sodipodi-0.dtd" xmlns:inkscape="http://www.inkscape.org/namespaces/inkscape" version="1.1" x="0px" y="0px" viewBox="0 0 100 125"><g transform="translate(0,-952.36218)"><path d="m 9.0000001,958.36223 c -2,-0.013 -3,0.9872 -3,2.2812 l 0,83.40637 c 0,1.2997 1,2.2997 3,2.3125 l 81.9999999,0 c 2,-0.013 3,-1.0128 3,-2.3125 l 0,-83.40637 c 0,-1.294 -1,-2.294 -3,-2.2812 z m 0.9999999,4 80,0 0,80.00007 -80,0 z m 4,4 c 0,5.1571 0,9.2733 0,14 24.77162,0.01 49.53699,0 72,0 0,-4.7911 0,-9.8538 0,-14 -24.97756,0 -50.58305,0 -72,0 z m 38,4 30,0 0,6 c -10.37858,2e-4 -19.85528,0 -30,0 z m -22.21875,15.9688 c -0.98275,0.108 -1.80252,1.0428 -1.78125,2.0312 l 0,10.34382 c -2.31701,0.8335 -4,3.06825 -4,5.65625 0,2.5902 1.67982,4.8245 4,5.6562 l 0,22.3438 c -0.0119,1.0547 0.94519,2.0228 2,2.0228 1.05481,0 2.01194,-0.9681 2,-2.0228 l 0,-22.3438 c 2.32019,-0.8317 4,-3.066 4,-5.6562 0,-2.588 -1.68299,-4.82275 -4,-5.65625 l 0,-10.34382 c 0.0245,-1.1345 -1.09077,-2.1555 -2.21875,-2.0312 z m 20,0 c -0.98275,0.108 -1.80252,1.0428 -1.78125,2.0312 l 0,20.34387 c -2.31701,0.8335 -4,3.0682 -4,5.6562 0,2.5902 1.67982,4.8245 4,5.6562 l 0,12.3438 c -0.0119,1.0547 0.94519,2.0228 2,2.0228 1.05481,0 2.01194,-0.9681 2,-2.0228 l 0,-12.3438 c 2.32019,-0.8317 4,-3.066 4,-5.6562 0,-2.588 -1.68299,-4.8227 -4,-5.6562 l 0,-20.34387 c 0.0245,-1.1345 -1.09077,-2.1555 -2.21875,-2.0312 z m 20,0 c -0.98275,0.108 -1.80252,1.0428 -1.78125,2.0312 l 0,6.3438 c -2.31701,0.83352 -4,3.06822 -4,5.65627 0,2.5902 1.67982,4.8245 4,5.6562 l 0,26.3438 c -0.0119,1.0547 0.94519,2.0228 2,2.0228 1.05481,0 2.01194,-0.9681 2,-2.0228 l 0,-26.3438 c 2.32019,-0.8317 4,-3.066 4,-5.6562 0,-2.58805 -1.68299,-4.82275 -4,-5.65627 l 0,-6.3438 c 0.0245,-1.1345 -1.09077,-2.1555 -2.21875,-2.0312 z" style="text-indent:0;text-transform:none;direction:ltr;block-progression:tb;baseline-shift:baseline;color:#000000;enable-background:accumulate;" fill="#000000" fill-opacity="1" stroke="none" marker="none" visibility="visible" display="inline" overflow="visible"/></g><text x="0" y="115" fill="#000000" font-size="5px" font-weight="bold" font-family="'Helvetica Neue', Helvetica, Arial-Unicode, Arial, Sans-serif">Created by AFY Studio</text><text x="0" y="120" fill="#000000" font-size="5px" font-weight="bold" font-family="'Helvetica Neue', Helvetica, Arial-Unicode, Arial, Sans-serif">from the Noun Project</text></svg>