<svg xmlns="http://www.w3.org/2000/svg" xmlns:xlink="http://www.w3.org/1999/xlink" version="1.1" x="0px" y="0px" viewBox="0 0 48 60" enable-background="new 0 0 48 48" xml:space="preserve"><g><polyline fill="none" stroke="#000000" stroke-width="2" stroke-linejoin="round" stroke-miterlimit="10" points="37.9,47 24,16.3    10.1,47  "/><g><polyline fill="none" stroke="#000000" stroke-width="2" stroke-linejoin="round" stroke-miterlimit="10" points="28.4,26.4     15.3,35.8 37.3,45.9   "/><polyline fill="none" stroke="#000000" stroke-width="2" stroke-linejoin="round" stroke-miterlimit="10" points="19.6,26.4     32.7,35.8 10.7,45.9   "/></g><circle fill="none" stroke="#000000" stroke-width="2" stroke-miterlimit="10" cx="24" cy="13" r="3.1"/><path fill="none" stroke="#000000" stroke-width="2" stroke-miterlimit="10" d="M29.3,7.6c2.9,2.9,2.9,7.7,0,10.6"/><path fill="none" stroke="#000000" stroke-width="2" stroke-miterlimit="10" d="M18.7,18.3c-2.9-2.9-2.9-7.7,0-10.6"/><path fill="none" stroke="#000000" stroke-width="2" stroke-miterlimit="10" d="M32.5,4.4c4.7,4.7,4.7,12.4,0,17.1"/><path fill="none" stroke="#000000" stroke-width="2" stroke-miterlimit="10" d="M15.5,21.5c-4.7-4.7-4.7-12.4,0-17.1"/><path fill="none" stroke="#000000" stroke-width="2" stroke-miterlimit="10" d="M36,1c6.6,6.6,6.6,17.3,0,23.9"/><path fill="none" stroke="#000000" stroke-width="2" stroke-miterlimit="10" d="M12,24.9C5.4,18.3,5.4,7.6,12,1"/></g><text x="0" y="63" fill="#000000" font-size="5px" font-weight="bold" font-family="'Helvetica Neue', Helvetica, Arial-Unicode, Arial, Sans-serif">Created by Creative Stall</text><text x="0" y="68" fill="#000000" font-size="5px" font-weight="bold" font-family="'Helvetica Neue', Helvetica, Arial-Unicode, Arial, Sans-serif">from the Noun Project</text></svg>