<svg xmlns="http://www.w3.org/2000/svg" xmlns:xlink="http://www.w3.org/1999/xlink" version="1.1" x="0px" y="0px" viewBox="0 0 100 125" style="enable-background:new 0 0 100 100;" xml:space="preserve"><g><path d="M61.2,38.5v-7.8c0-0.8-0.7-1.5-1.5-1.5H11.3c-0.8,0-1.5,0.7-1.5,1.5v7.8c0,0.8,0.7,1.5,1.5,1.5h48.3   C60.5,40,61.2,39.3,61.2,38.5z M58.2,37H12.8v-4.8h45.3V37z"/><path d="M35.5,55.6H11.3c-0.8,0-1.5,0.7-1.5,1.5s0.7,1.5,1.5,1.5h24.2c0.8,0,1.5-0.7,1.5-1.5S36.3,55.6,35.5,55.6z"/><path d="M35.5,50.1H11.3c-0.8,0-1.5,0.7-1.5,1.5s0.7,1.5,1.5,1.5h24.2c0.8,0,1.5-0.7,1.5-1.5S36.3,50.1,35.5,50.1z"/><path d="M35.5,44.6H11.3c-0.8,0-1.5,0.7-1.5,1.5s0.7,1.5,1.5,1.5h24.2c0.8,0,1.5-0.7,1.5-1.5S36.3,44.6,35.5,44.6z"/><path d="M76.5,53.1h6.2c0.7,3.1,3.5,5.5,6.8,5.5c3.9,0,7-3.1,7-7c0-3.9-3.1-7-7-7c-3.3,0-6.2,2.4-6.8,5.5h-6.2v-18h6   c0.3,3.6,3.3,6.5,7,6.5c3.9,0,7-3.1,7-7c0-3.9-3.1-7-7-7c-3,0-5.6,1.9-6.6,4.5h-8c-0.8,0-1.5,0.7-1.5,1.5c0,0.2,0,0.3,0.1,0.5   c-0.1,0.2-0.1,0.3-0.1,0.5v18.5h-6V22.9c0-0.8-0.7-1.5-1.5-1.5H5c-0.8,0-1.5,0.7-1.5,1.5v41.8c0,0.8,0.7,1.5,1.5,1.5h25.8v4.9h-4.5   c-0.8,0-1.5,0.7-1.5,1.5s0.7,1.5,1.5,1.5h6h6.4h6c0.8,0,1.5-0.7,1.5-1.5s-0.7-1.5-1.5-1.5h-4.5v-4.9H66c0.8,0,1.5-0.7,1.5-1.5V53.1   h6v18.5c0,0.8,0.7,1.5,1.5,1.5h7.7c0.7,3.1,3.5,5.5,6.8,5.5c3.9,0,7-3.1,7-7c0-3.9-3.1-7-7-7c-3.3,0-6.2,2.4-6.8,5.5h-6.2V53.1z    M89.5,47.6c2.2,0,4,1.8,4,4c0,2.2-1.8,4-4,4c-2.2,0-4-1.8-4-4C85.5,49.4,87.3,47.6,89.5,47.6z M89.5,27.6c2.2,0,4,1.8,4,4   c0,2.2-1.8,4-4,4c-2.2,0-4-1.8-4-4C85.5,29.4,87.3,27.6,89.5,27.6z M37.2,71.1h-3.4v-4.9h3.4V71.1z M64.5,63.2H38.7h-6.4H6.5V24.4   h58v25.7h-3.3v-4c0-0.8-0.7-1.5-1.5-1.5H44.5c-0.8,0-1.5,0.7-1.5,1.5v11c0,0.8,0.7,1.5,1.5,1.5h15.2c0.8,0,1.5-0.7,1.5-1.5v-4h3.3   V63.2z M58.2,55.6H46v-8h12.2V55.6z M89.5,67.6c2.2,0,4,1.8,4,4c0,2.2-1.8,4-4,4c-2.2,0-4-1.8-4-4C85.5,69.4,87.3,67.6,89.5,67.6z"/></g><text x="0" y="115" fill="#000000" font-size="5px" font-weight="bold" font-family="'Helvetica Neue', Helvetica, Arial-Unicode, Arial, Sans-serif">Created by Justin Blake</text><text x="0" y="120" fill="#000000" font-size="5px" font-weight="bold" font-family="'Helvetica Neue', Helvetica, Arial-Unicode, Arial, Sans-serif">from the Noun Project</text></svg>