<svg xmlns="http://www.w3.org/2000/svg" xmlns:xlink="http://www.w3.org/1999/xlink" version="1.1" x="0px" y="0px" viewBox="0 0 100 125" style="enable-background:new 0 0 100 100;" xml:space="preserve"><g><path d="M79.3,0H20.7c-2.9,0-5.3,2.4-5.3,5.3v89.1c0,3.1,2.5,5.6,5.6,5.6h59.3c2.4,0,4.3-1.9,4.3-4.3v-5.3v-1.6V5.3   C84.6,2.4,82.2,0,79.3,0z M20.7,3.2h1.2v85.6H21c-0.9,0-1.7,0.2-2.4,0.6v-84C18.6,4.1,19.6,3.2,20.7,3.2z M81.4,95.7   c0,0.6-0.5,1.1-1.1,1.1H21c-1.3,0-2.4-1.1-2.4-2.4c0-1.3,1.1-2.4,2.4-2.4h60.4V95.7z M25.1,88.8V3.2h54.2c1.2,0,2.1,1,2.1,2.1v83.5   H25.1z"/><path d="M68.9,47.3H36c-0.9,0-1.6,0.7-1.6,1.6s0.7,1.6,1.6,1.6h32.8c0.9,0,1.6-0.7,1.6-1.6S69.8,47.3,68.9,47.3z"/><path d="M68.9,38.7H36c-0.9,0-1.6,0.7-1.6,1.6s0.7,1.6,1.6,1.6h32.8c0.9,0,1.6-0.7,1.6-1.6S69.8,38.7,68.9,38.7z"/><path d="M38.1,24.4c0.6,0.1,1.3,0.1,1.7,0.1c3.2,0,4.9-2.1,4.9-4.3c0-2.2-1.2-4.3-5.2-4.3c-0.9,0-3.1,0-3.8,0v13.4h2.3V24.4z    M38.1,18c0.6,0,1.2,0,1.7,0c1.6,0,2.5,0.7,2.5,2.1c0,1.5-1.1,2.2-2.5,2.2c-0.5,0-1.1,0-1.7-0.1V18z"/><path d="M51.2,29.3c5.1,0,7.7-3.1,7.7-6.9c0-3.5-2.2-6.6-7.5-6.6c-1,0-2.9,0.1-3.7,0.1h-0.2v13.4h0.3   C48.9,29.2,50.4,29.3,51.2,29.3z M49.8,18c0.5,0,1-0.1,1.5-0.1c3.2,0,5.1,1.7,5.1,4.4c0,2.8-1.9,4.7-5.1,4.7c-0.3,0-0.9,0-1.5,0V18   z"/><polygon points="63.9,24 68.6,24 68.6,21.8 63.9,21.8 63.9,18 69.2,18 69.2,15.8 61.6,15.8 61.6,29.2 63.9,29.2  "/><polygon points="57.8,71.6 54,75.5 54,57.8 50.9,57.8 50.9,75.5 47.1,71.6 44.9,73.8 52.5,81.4 54.6,79.2 54.6,79.2 60,73.8  "/></g><text x="0" y="115" fill="#000000" font-size="5px" font-weight="bold" font-family="'Helvetica Neue', Helvetica, Arial-Unicode, Arial, Sans-serif">Created by Roman</text><text x="0" y="120" fill="#000000" font-size="5px" font-weight="bold" font-family="'Helvetica Neue', Helvetica, Arial-Unicode, Arial, Sans-serif">from the Noun Project</text></svg>