<svg xmlns="http://www.w3.org/2000/svg" viewBox="0 0 32 40" x="0px" y="0px"><title>schdule day</title><g data-name="Layer 31"><path d="M25,2H7A5,5,0,0,0,2,7V25a5,5,0,0,0,5,5H23.44a1.06,1.06,0,0,0,.4-.08,1.16,1.16,0,0,0,.34-.24l5.55-6a.94.94,0,0,0,.2-.33.58.58,0,0,0,0-.14A.78.78,0,0,0,30,23V7A5,5,0,0,0,25,2Zm-.54,24.45v-1.9a7.65,7.65,0,0,0,1.43.36ZM28,22.54A2,2,0,0,1,27,23a6.26,6.26,0,0,1-3-.84,1,1,0,0,0-1,0,1,1,0,0,0-.52.88v5H7a3,3,0,0,1-3-3V10H28ZM28,8H4V7A3,3,0,0,1,7,4H25a3,3,0,0,1,3,3ZM8,5H8A1,1,0,1,0,9,6,1,1,0,0,0,8,5ZM24,5h0a1,1,0,1,0,1,1A1,1,0,0,0,24,5ZM16,25a7,7,0,1,0-7-7A7,7,0,0,0,16,25Zm0-12a5,5,0,1,1-5,5A5,5,0,0,1,16,13Zm1.17,8.55A1,1,0,0,0,18,22a.94.94,0,0,0,.55-.17,1,1,0,0,0,.28-1.38L17,17.7V15a1,1,0,0,0-2,0v3a1,1,0,0,0,.17.55Z"/></g><text x="0" y="47" fill="#000000" font-size="5px" font-weight="bold" font-family="'Helvetica Neue', Helvetica, Arial-Unicode, Arial, Sans-serif">Created by Hakim Fadhlullah</text><text x="0" y="52" fill="#000000" font-size="5px" font-weight="bold" font-family="'Helvetica Neue', Helvetica, Arial-Unicode, Arial, Sans-serif">from the Noun Project</text></svg>