<svg xmlns="http://www.w3.org/2000/svg" xmlns:xlink="http://www.w3.org/1999/xlink" version="1.1" x="0px" y="0px" viewBox="0 0 512 640" style="enable-background:new 0 0 512 512;" xml:space="preserve"><g><path d="M256,509c-67.6,0-131.1-26.3-178.9-74.1C29.3,387.1,3,323.6,3,256c0-67.6,26.3-131.1,74.1-178.9   S188.4,3,256,3s131.1,26.3,178.9,74.1S509,188.4,509,256c0,67.6-26.3,131.1-74.1,178.9C387.1,482.7,323.6,509,256,509z M256,19   C125.3,19,19,125.3,19,256c0,130.7,106.3,237,237,237s237-106.3,237-237C493,125.3,386.7,19,256,19z"/></g><g><g><path d="M256,151.9c-57.4,0-104.1,46.7-104.1,104.1c0,57.4,46.7,104.1,104.1,104.1S360.1,313.4,360.1,256    C360.1,198.6,313.4,151.9,256,151.9z M316.5,305.6c-1,1.6-2.7,2.6-4.5,2.6h-36.4c-1.8,11.7-9.7,20.2-19.6,20.2    s-17.8-8.6-19.6-20.2H200c-1.9,0-3.6-1-4.5-2.6c-1-1.6-1-3.6-0.1-5.2l7-13.1c2.5-4.7,3.8-10,3.8-15.3l0-38.2    c0-27.7,22.6-50.3,50.3-50.3c13.4,0,25.9,5.3,35.1,14.8c9.1,9.4,14.2,22,14.2,35.5l0,35.5c0,7,1.8,14,5.1,20.2l5.7,10.8    C317.5,302,317.4,304,316.5,305.6z"/><path d="M164.4,361.4c-30.6-26.6-48.1-65-48.1-105.4c0-40.4,17.5-78.9,48.1-105.4c2.2-1.9,2.4-5.3,0.5-7.5    c-1.9-2.2-5.3-2.4-7.5-0.5c-32.9,28.6-51.7,69.9-51.7,113.4s18.8,84.8,51.7,113.4c1,0.9,2.2,1.3,3.5,1.3c1.5,0,2.9-0.6,4-1.8    C166.9,366.7,166.6,363.3,164.4,361.4z"/><path d="M354.5,142.6c-2.2-1.9-5.5-1.7-7.5,0.5c-1.9,2.2-1.7,5.5,0.5,7.5c30.6,26.6,48.1,65,48.1,105.4    c0,40.4-17.5,78.9-48.1,105.4c-2.2,1.9-2.4,5.3-0.5,7.5c1,1.2,2.5,1.8,4,1.8c1.2,0,2.5-0.4,3.5-1.3    c32.9-28.6,51.7-69.9,51.7-113.4C406.2,212.5,387.4,171.2,354.5,142.6z"/></g></g><text x="0" y="527" fill="#000000" font-size="5px" font-weight="bold" font-family="'Helvetica Neue', Helvetica, Arial-Unicode, Arial, Sans-serif">Created by Shocho</text><text x="0" y="532" fill="#000000" font-size="5px" font-weight="bold" font-family="'Helvetica Neue', Helvetica, Arial-Unicode, Arial, Sans-serif">from the Noun Project</text></svg>