<svg xmlns="http://www.w3.org/2000/svg" viewBox="0 0 32 40" x="0px" y="0px"><title>Artboard 72</title><g data-name="Layer 47"><path d="M20.9,8.1a1,1,0,0,0,.7-.29l1.47-1.47a1,1,0,1,0-1.41-1.41L20.19,6.4a1,1,0,0,0,0,1.41A1,1,0,0,0,20.9,8.1Z"/><path d="M10.4,16.19,8.93,17.66a1,1,0,0,0,0,1.41,1,1,0,0,0,1.41,0l1.47-1.47a1,1,0,0,0-1.41-1.41Z"/><path d="M10.4,7.81a1,1,0,0,0,1.41,0,1,1,0,0,0,0-1.41L10.34,4.93A1,1,0,0,0,8.93,6.34Z"/><path d="M20.19,16.19a1,1,0,0,0,0,1.41l1.47,1.47a1,1,0,0,0,1.41,0,1,1,0,0,0,0-1.41L21.6,16.19A1,1,0,0,0,20.19,16.19Z"/><path d="M7,13H9.08a1,1,0,0,0,0-2H7a1,1,0,0,0,0,2Z"/><path d="M16,6.08a1,1,0,0,0,1-1V3a1,1,0,0,0-2,0V5.08A1,1,0,0,0,16,6.08Z"/><path d="M21.92,12a1,1,0,0,0,1,1H25a1,1,0,0,0,0-2H22.92A1,1,0,0,0,21.92,12Z"/><path d="M15,18.92V21a1,1,0,0,0,2,0V18.92a1,1,0,0,0-2,0Z"/><path d="M16,17a5,5,0,1,0-5-5A5,5,0,0,0,16,17Zm0-8a3,3,0,1,1-3,3A3,3,0,0,1,16,9Z"/><path d="M29,25H10a2,2,0,0,0-2-2H6a2,2,0,0,0-2,2H3a1,1,0,0,0,0,2H4a2,2,0,0,0,2,2H8a2,2,0,0,0,2-2H29a1,1,0,0,0,0-2ZM6,27V25H8v1H8v1Z"/></g><text x="0" y="47" fill="#000000" font-size="5px" font-weight="bold" font-family="'Helvetica Neue', Helvetica, Arial-Unicode, Arial, Sans-serif">Created by ghufronagustian</text><text x="0" y="52" fill="#000000" font-size="5px" font-weight="bold" font-family="'Helvetica Neue', Helvetica, Arial-Unicode, Arial, Sans-serif">from the Noun Project</text></svg>