<svg xmlns="http://www.w3.org/2000/svg" xmlns:xlink="http://www.w3.org/1999/xlink" viewBox="0 0 60 76.25" version="1.1" x="0px" y="0px"><title>50 -Nuclear Power- (Solid)</title><desc>Created with Sketch.</desc><g stroke="none" stroke-width="1" fill="none" fill-rule="evenodd"><g transform="translate(-1200.000000, -830.000000)" fill="#000000"><g transform="translate(1200.000000, 830.000000)"><path d="M19.0179,30.016 L32.9819,30.016 C33.1829,36.936 34.0979,47.503 37.5269,55.083 C37.5359,55.213 37.5629,55.344 37.6219,55.464 C38.0759,56.377 38.5629,57.225 39.0739,58.016 L12.9179,58.016 C17.6399,50.473 18.7899,37.885 19.0179,30.016 L19.0179,30.016 Z M4.9999,52.016 C4.4469,52.016 3.9999,51.568 3.9999,51.016 C3.9999,50.464 4.4469,50.016 4.9999,50.016 L9.9999,50.016 C10.5529,50.016 10.9999,50.464 10.9999,51.016 C10.9999,51.568 10.5529,52.016 9.9999,52.016 L4.9999,52.016 Z M4.9999,46.016 L9.9999,46.016 C10.5529,46.016 10.9999,46.464 10.9999,47.016 C10.9999,47.568 10.5529,48.016 9.9999,48.016 L4.9999,48.016 C4.4469,48.016 3.9999,47.568 3.9999,47.016 C3.9999,46.464 4.4469,46.016 4.9999,46.016 L4.9999,46.016 Z M4.9999,42.016 L9.9999,42.016 C10.5529,42.016 10.9999,42.464 10.9999,43.016 C10.9999,43.568 10.5529,44.016 9.9999,44.016 L4.9999,44.016 C4.4469,44.016 3.9999,43.568 3.9999,43.016 C3.9999,42.464 4.4469,42.016 4.9999,42.016 L4.9999,42.016 Z M4.9999,38.016 L9.9999,38.016 C10.5529,38.016 10.9999,38.464 10.9999,39.016 C10.9999,39.568 10.5529,40.016 9.9999,40.016 L4.9999,40.016 C4.4469,40.016 3.9999,39.568 3.9999,39.016 C3.9999,38.464 4.4469,38.016 4.9999,38.016 L4.9999,38.016 Z M50.9689,31.016 C50.9509,31.726 50.9339,32.761 50.9359,34.016 L42.0639,34.016 C42.0629,32.763 42.0459,31.726 42.0289,31.016 L50.9689,31.016 Z M58.9999,58.016 C58.3079,58.016 57.6849,57.718 57.0949,57.104 C53.8939,53.769 53.0429,42.82 52.9429,35.3 C52.9709,35.208 52.9999,35.117 52.9999,35.016 L52.9999,30.016 C52.9999,29.95 52.9749,29.893 52.9629,29.83 C52.9499,29.768 52.9489,29.704 52.9249,29.646 C52.8929,29.565 52.8399,29.499 52.7899,29.431 C52.7639,29.397 52.7519,29.355 52.7219,29.324 C52.7189,29.321 52.7159,29.32 52.7129,29.318 C52.6309,29.234 52.5319,29.169 52.4239,29.118 C52.4119,29.112 52.4029,29.101 52.3909,29.096 C52.2709,29.045 52.1389,29.016 51.9999,29.016 L40.9999,29.016 C40.8609,29.016 40.7289,29.045 40.6089,29.096 C40.6059,29.097 40.6039,29.1 40.6009,29.101 C40.4819,29.153 40.3759,29.226 40.2869,29.317 C40.2849,29.32 40.2819,29.32 40.2789,29.323 C40.2499,29.354 40.2369,29.395 40.2119,29.429 C40.1599,29.498 40.1069,29.564 40.0749,29.645 C40.0519,29.703 40.0499,29.767 40.0379,29.829 C40.0249,29.891 39.9999,29.95 39.9999,30.016 L39.9999,35.016 C39.9999,35.107 40.0289,35.188 40.0519,35.272 C40.0089,40.071 39.7069,47.153 38.4539,52.027 C35.8149,44.714 35.1239,35.21 34.9799,29.118 C34.9829,29.083 34.9999,29.052 34.9999,29.016 L34.9999,23.016 C34.9999,22.95 34.9749,22.893 34.9629,22.831 C34.9509,22.769 34.9489,22.707 34.9259,22.648 C34.8939,22.568 34.8419,22.502 34.7909,22.434 C34.7659,22.399 34.7539,22.357 34.7239,22.326 C34.7209,22.323 34.7169,22.322 34.7139,22.319 C34.6319,22.234 34.5319,22.169 34.4239,22.118 C34.4119,22.112 34.4039,22.101 34.3919,22.096 C34.2719,22.045 34.1389,22.016 33.9999,22.016 L17.9999,22.016 C17.8609,22.016 17.7289,22.045 17.6079,22.096 C17.5959,22.102 17.5859,22.113 17.5739,22.119 C17.4669,22.17 17.3679,22.235 17.2859,22.319 C17.2829,22.322 17.2789,22.323 17.2759,22.326 C17.2459,22.357 17.2339,22.399 17.2079,22.434 C17.1579,22.502 17.1059,22.568 17.0739,22.648 C17.0509,22.707 17.0489,22.77 17.0369,22.832 C17.0249,22.894 16.9999,22.951 16.9999,23.016 L16.9999,29.016 C16.9999,29.053 17.0169,29.085 17.0209,29.121 C16.9879,30.524 16.9249,32.108 16.8169,33.806 L1.4469,26.121 C1.1379,25.967 0.7699,25.983 0.4749,26.165 C0.1799,26.348 -0.0001,26.669 -0.0001,27.016 L-0.0001,59.016 C-0.0001,59.568 0.4469,60.016 0.9999,60.016 L10.9999,60.016 L40.9999,60.016 L58.9999,60.016 C59.5529,60.016 59.9999,59.568 59.9999,59.016 C59.9999,58.464 59.5529,58.016 58.9999,58.016 L58.9999,58.016 Z"/><path d="M21,16.016 C21.374,16.016 21.74,15.965 22.091,15.866 C22.481,17.664 24.086,19.016 26,19.016 C27.219,19.016 28.354,18.449 29.1,17.528 C29.68,17.845 30.334,18.016 31,18.016 C32.914,18.016 34.519,16.664 34.909,14.866 C35.26,14.965 35.626,15.016 36,15.016 C38.206,15.016 40,13.222 40,11.016 C40,10.339 39.832,9.69 39.516,9.113 C40.435,8.367 41,7.234 41,6.016 C41,3.81 39.206,2.016 37,2.016 C36.823,2.016 36.646,2.028 36.472,2.052 C35.775,0.818 34.457,0.016 33,0.016 C31.781,0.016 30.646,0.583 29.9,1.504 C29.32,1.187 28.666,1.016 28,1.016 C26.139,1.016 24.57,2.294 24.126,4.018 C21.86,3.915 20,5.768 20,8.016 C20,8.058 20.001,8.1 20.002,8.142 C18.277,8.586 17,10.155 17,12.016 C17,14.222 18.794,16.016 21,16.016"/><path d="M46,26.016 C46.553,26.016 47,25.568 47,25.016 C47,23.913 47.897,23.016 49,23.016 L57,23.016 C58.654,23.016 60,21.67 60,20.016 C60,18.362 58.654,17.016 57,17.016 L53,17.016 C52.447,17.016 52,17.464 52,18.016 C52,18.568 52.447,19.016 53,19.016 L57,19.016 C57.552,19.016 58,19.465 58,20.016 C58,20.567 57.552,21.016 57,21.016 L49,21.016 C46.794,21.016 45,22.81 45,25.016 C45,25.568 45.447,26.016 46,26.016"/></g></g></g><text x="0" y="76" fill="#000000" font-size="5px" font-weight="bold" font-family="'Helvetica Neue', Helvetica, Arial-Unicode, Arial, Sans-serif">Created by Ben Davis</text><text x="0" y="81" fill="#000000" font-size="5px" font-weight="bold" font-family="'Helvetica Neue', Helvetica, Arial-Unicode, Arial, Sans-serif">from the Noun Project</text></svg>