<svg xmlns:dc="http://purl.org/dc/elements/1.1/" xmlns:cc="http://creativecommons.org/ns#" xmlns:rdf="http://www.w3.org/1999/02/22-rdf-syntax-ns#" xmlns:svg="http://www.w3.org/2000/svg" xmlns="http://www.w3.org/2000/svg" xmlns:sodipodi="http://sodipodi.sourceforge.net/DTD/sodipodi-0.dtd" xmlns:inkscape="http://www.inkscape.org/namespaces/inkscape" viewBox="0 0 12.7 15.875" version="1.1" x="0px" y="0px"><g transform="translate(0,-284.29998)"><path style="" d="m 2.6428721,288.59666 a 2.0540274,2.0540274 0 1 0 1.9347392,2.54506 h 1.686216 v 0.7183 a 0.28097726,0.28097726 0 0 0 0.5617104,0 v -0.7183 h 1.0666148 v 0.50798 a 0.49171048,0.49171048 0 0 0 0.9834034,0 v -1.49138 H 4.5776113 a 2.0540274,2.0540274 0 0 0 -1.9347392,-1.56166 z m -0.086307,0.97823 a 1.0706114,1.0706114 0 0 1 1.0970948,1.07487 1.0706114,1.0706114 0 1 1 -2.1409554,0 1.0706114,1.0706114 0 0 1 1.0438606,-1.07487 z" fill="#000000" stroke="none"/><path style="" d="m 3.2271861,287.06882 a 4.7856219,4.7856219 0 1 1 0,7.16233 0.4917252,0.4917252 0 0 0 -0.6524001,0.7359 5.7690422,5.7690422 0 1 0 0,-8.63414 0.49172896,0.49172896 0 0 0 0.6524001,0.73591 z" fill="#000000" stroke="none"/></g><text x="0" y="27.7" fill="#000000" font-size="5px" font-weight="bold" font-family="'Helvetica Neue', Helvetica, Arial-Unicode, Arial, Sans-serif">Created by Phạm Thanh Lộc</text><text x="0" y="32.7" fill="#000000" font-size="5px" font-weight="bold" font-family="'Helvetica Neue', Helvetica, Arial-Unicode, Arial, Sans-serif">from the Noun Project</text></svg>