<svg xmlns="http://www.w3.org/2000/svg" xmlns:xlink="http://www.w3.org/1999/xlink" viewBox="0 0 60 75" version="1.1" x="0px" y="0px"><title>121 -Pluged- (Solid)</title><desc>Created with Sketch.</desc><g stroke="none" stroke-width="1" fill="none" fill-rule="evenodd"><g transform="translate(-119.000000, -1790.000000)" fill="#000000"><g transform="translate(119.000000, 1790.000000)"><path d="M49.8027,56.8445 L47.6647,55.1815 L49.7637,53.0815 C50.1547,52.6915 50.1547,52.0585 49.7637,51.6675 C49.3737,51.2775 48.7397,51.2775 48.3497,51.6675 L46.0747,53.9445 L43.9367,52.2815 L52.2777,43.9405 L53.9397,46.0775 L51.6647,48.3545 C51.2737,48.7445 51.2737,49.3775 51.6647,49.7685 C51.8597,49.9635 52.1157,50.0615 52.3717,50.0615 C52.6277,50.0615 52.8837,49.9635 53.0787,49.7685 L55.1777,47.6685 L56.8397,49.8065 L54.9797,51.6675 L54.9787,51.6675 L51.6647,54.9825 L51.6647,54.9825 L49.8027,56.8445 Z M36.6287,45.0865 C34.8357,45.0865 33.0437,44.4045 31.6787,43.0395 L28.3427,39.7035 L29.7567,38.2895 L33.0927,41.6255 C35.0427,43.5745 38.2147,43.5745 40.1637,41.6255 L41.6217,40.1675 C42.5657,39.2235 43.0857,37.9675 43.0857,36.6325 C43.0857,35.2965 42.5657,34.0405 41.6217,33.0965 L38.2857,29.7605 L39.6997,28.3465 L43.0357,31.6825 C44.3577,33.0045 45.0857,34.7625 45.0857,36.6325 C45.0857,38.5015 44.3577,40.2595 43.0357,41.5815 L41.5777,43.0395 C40.2137,44.4045 38.4207,45.0865 36.6287,45.0865 L36.6287,45.0865 Z M21.5927,41.7255 C21.3397,41.4715 21.1997,41.1345 21.1997,40.7755 C21.1997,40.4155 21.3397,40.0785 21.5927,39.8245 L39.8217,21.5965 C40.0827,21.3345 40.4277,21.2035 40.7717,21.2035 C41.1147,21.2035 41.4597,21.3345 41.7217,21.5965 C41.9747,21.8505 42.1147,22.1875 42.1147,22.5465 C42.1147,22.9065 41.9747,23.2425 41.7217,23.4965 L37.5797,27.6385 L37.5797,27.6385 L27.6357,37.5825 L23.4927,41.7255 C22.9687,42.2485 22.1157,42.2485 21.5927,41.7255 L21.5927,41.7255 Z M17.8857,37.4605 C17.8857,37.1015 18.0247,36.7645 18.2787,36.5105 L22.4197,32.3685 L32.3647,22.4245 L36.5067,18.2815 C36.7687,18.0205 37.1127,17.8895 37.4567,17.8895 C37.8017,17.8895 38.1457,18.0205 38.4067,18.2815 C38.6607,18.5355 38.8007,18.8725 38.8007,19.2325 C38.8007,19.5915 38.6607,19.9285 38.4067,20.1825 L20.1787,38.4105 C19.6547,38.9335 18.8027,38.9345 18.2787,38.4105 C18.0247,38.1575 17.8857,37.8205 17.8857,37.4605 L17.8857,37.4605 Z M17.1447,18.2445 L18.2407,17.1485 C21.0697,14.3205 25.6727,14.3205 28.5017,17.1485 L31.6567,20.3035 L30.2427,21.7175 L27.0877,18.5625 C26.0627,17.5375 24.7167,17.0265 23.3717,17.0265 C22.0257,17.0265 20.6797,17.5375 19.6557,18.5625 L18.5587,19.6585 C17.5667,20.6515 17.0197,21.9715 17.0197,23.3745 C17.0197,24.7795 17.5667,26.0985 18.5587,27.0915 L21.7137,30.2465 L20.2997,31.6605 L17.1447,28.5055 C15.7747,27.1355 15.0197,25.3135 15.0197,23.3745 C15.0197,21.4375 15.7747,19.6155 17.1447,18.2445 L17.1447,18.2445 Z M5.0207,8.3405 L5.0217,8.3395 L8.3357,5.0255 L8.3357,5.0245 L10.1977,3.1625 L12.3347,4.8255 L10.2357,6.9255 C9.8447,7.3165 9.8447,7.9485 10.2357,8.3395 C10.4307,8.5345 10.6867,8.6325 10.9427,8.6325 C11.1987,8.6325 11.4547,8.5345 11.6497,8.3395 L13.9257,6.0635 L16.0627,7.7265 L7.7217,16.0675 L6.0597,13.9295 L8.3357,11.6535 C8.7257,11.2625 8.7257,10.6295 8.3357,10.2395 C7.9447,9.8485 7.3107,9.8485 6.9217,10.2395 L4.8227,12.3385 L3.1597,10.2005 L5.0207,8.3405 Z M59.7067,54.9825 L57.0997,52.3755 L58.8787,50.5965 C59.2347,50.2405 59.2707,49.6735 58.9607,49.2755 L53.5147,42.2725 C54.5247,40.2705 54.3127,37.7835 52.8077,36.0395 L43.6727,24.1795 C44.3877,22.9055 44.2187,21.2655 43.1357,20.1825 C42.4907,19.5365 41.6447,19.2135 40.7967,19.2075 C40.7907,18.3595 40.4667,17.5135 39.8217,16.8675 C38.7387,15.7865 37.0977,15.6165 35.8237,16.3315 L24.0067,7.2315 C22.2297,5.7005 19.7357,5.4815 17.7307,6.4905 L10.7277,1.0425 C10.3297,0.7315 9.7627,0.7675 9.4067,1.1245 L7.6287,2.9035 L5.0217,0.2965 C4.8337,0.1095 4.5797,0.0035 4.3147,0.0035 C4.0497,0.0035 3.7947,0.1095 3.6077,0.2965 L0.2927,3.6115 C-0.0973,4.0015 -0.0973,4.6345 0.2927,5.0255 L2.8997,7.6325 L1.1217,9.4105 C0.7647,9.7675 0.7297,10.3335 1.0387,10.7325 L6.4857,17.7345 C5.4747,19.7375 5.6877,22.2245 7.1927,23.9675 L16.3277,35.8275 C15.6117,37.1015 15.7817,38.7425 16.8647,39.8245 C17.5097,40.4705 18.3557,40.7935 19.2037,40.8005 C19.2097,41.6475 19.5327,42.4935 20.1787,43.1395 C20.8307,43.7905 21.6867,44.1165 22.5427,44.1165 C23.1087,44.1165 23.6687,43.9605 24.1757,43.6755 L35.9927,52.7765 C37.0577,53.6935 38.3817,54.1475 39.7027,54.1475 C40.5877,54.1475 41.4617,53.9185 42.2657,53.5145 L49.2717,58.9645 C49.4527,59.1065 49.6697,59.1755 49.8857,59.1755 C50.1427,59.1755 50.3987,59.0765 50.5927,58.8825 L52.3717,57.1035 L54.9787,59.7105 C55.1657,59.8985 55.4207,60.0035 55.6857,60.0035 C55.9507,60.0035 56.2047,59.8985 56.3927,59.7105 L59.7067,56.3965 C60.0977,56.0055 60.0977,55.3725 59.7067,54.9825 L59.7067,54.9825 Z"/></g></g></g><text x="0" y="75" fill="#000000" font-size="5px" font-weight="bold" font-family="'Helvetica Neue', Helvetica, Arial-Unicode, Arial, Sans-serif">Created by Ben Davis</text><text x="0" y="80" fill="#000000" font-size="5px" font-weight="bold" font-family="'Helvetica Neue', Helvetica, Arial-Unicode, Arial, Sans-serif">from the Noun Project</text></svg>