<svg xmlns="http://www.w3.org/2000/svg" xmlns:cc="http://creativecommons.org/ns#" xmlns:dc="http://purl.org/dc/elements/1.1/" xmlns:rdf="http://www.w3.org/1999/02/22-rdf-syntax-ns#" version="1.1" viewBox="0 0 26.458 33.0725" x="0px" y="0px"><g transform="translate(0 -270.54)"><path d="m8.7721 271.84c-0.27824-3e-3 -0.55641 8e-3 -0.83346 0.031-2.1784 0.1853-4.2745 1.2072-5.8136 2.9822a0.3097 0.3097 0 0 0-0.093144 0.0734c-0.012531 0.0148-0.014988 0.0339-0.027418 0.0488l-0.00444-3e-3a0.3097 0.3097 0 0 0-0.024596 0.0564 0.3097 0.3097 0 0 0 0 2e-3c-3.0043 3.6663-2.5371 9.0787 1.0972 12.145a0.3097 0.3097 0 0 0 0.00165 0c3.2856 2.7674 8.069 2.6634 11.284-0.14193l2.423 2.0439-0.21048 0.24959-0.2008 0.2379a0.3097 0.3097 0 0 0-2e-3 2e-3l-0.03791 0.0452a0.30976 0.30965 85.14 0 0 0.0367 0.43629l3.177 2.6794a0.30976 0.30965 85.14 0 0 0.18105 0.0722l2.7943 2.3576c0.97565 0.82305 2.4385 0.69863 3.2612-0.27741l0.13427-0.15847c0.82277-0.97603 0.69824-2.4382-0.27742-3.2612l-6.114-5.1572a0.3097 0.3097 0 0 0-0.43588 0.0379l-0.02299 0.0274a0.30976 0.30965 85.14 0 0-2e-3 2e-3l-0.15 0.17823-0.23669 0.28023-2.4613-2.0774c1.3645-2.4432 1.4542-5.3135 0.3887-7.7491l0.24153-0.4133 0.58144-0.99475c0.05333 9e-3 0.10715 0.0165 0.1629 0.0165 0.03277 0 0.06398-6e-3 0.09596-0.01 0.02801-3e-3 0.05669-3e-3 0.08387-9e-3 0.04527-9e-3 0.08811-0.0233 0.13105-0.0379 0.01152-4e-3 0.02377-6e-3 0.03508-0.0108 0.32298-0.12328 0.56487-0.41095 0.62257-0.75967l5.8177-1.4117c0.16838 0.3041 0.48927 0.51451 0.85846 0.51451 0.53988 0 0.98426-0.44478 0.98426-0.98467 0-0.53988-0.44438-0.98426-0.98426-0.98426-0.492 0-0.90119 0.37024-0.97055 0.84434l-5.8068 1.409c-0.16578-0.31264-0.49181-0.53023-0.86733-0.53023-0.53989 0-0.98426 0.44478-0.98426 0.98467 0 0.26138 0.10581 0.49912 0.27459 0.6762l-0.56935 0.97458-0.03387 0.058c-0.49649-0.91071-1.1636-1.7446-1.9984-2.4496a0.3097 0.3097 0 0 0-0.0016-2e-3c-1.6038-1.3515-3.556-2.0222-5.5036-2.0426zm-0.00807 0.61491c1.8079 0.0194 3.6206 0.64478 5.1124 1.9032 0.87415 0.7382 1.5551 1.6281 2.0342 2.6016l-0.17137 0.29274c-0.46305-1.0015-1.1453-1.9205-2.0435-2.6782-3.2854-2.7714-8.2032-2.3535-10.974 0.93305-2.7704 3.2865-2.3531 8.2074 0.93225 10.979 3.2854 2.7714 8.2044 2.3523 10.975-0.93426 1.8332-2.1747 2.2689-5.064 1.4028-7.5733l0.18387-0.31411c0.85307 2.252 0.68473 4.8429-0.63265 7.0294a0.3097 0.3097 0 0 0 0.08226 0.41128c0.05526 0.0401 0.05457 0.0428 0.0061 0a0.3097 0.3097 0 0 0 0.0044 3e-3l2.6012 2.1927-1.0972 1.302-2.5919-2.1875a0.3097 0.3097 0 0 0-0.41169 0.0109c-2.9867 2.7892-7.5788 2.9068-10.704 0.27419-3.4098-2.8764-3.8419-7.9636-0.96657-11.375 1.4377-1.7055 3.4279-2.6673 5.485-2.8423 0.25714-0.0218 0.51511-0.0314 0.77338-0.0286zm16.469 0.0818c0.20516 0 0.36572 0.16056 0.36572 0.36573s-0.16056 0.36451-0.36572 0.36451c-0.17308 0-0.31236-0.114-0.35201-0.27258a0.3097 0.3097 0 0 0-0.01007-0.069c-4.13e-4 -8e-3 -0.0024-0.0151-0.0024-0.0229 0-0.20516 0.15935-0.36572 0.36451-0.36572zm-16.478 0.81975c1.6062 0.0173 3.2165 0.57303 4.5419 1.6911 0.94672 0.79863 1.6354 1.789 2.0564 2.8657l-1.3363 2.2863c-0.07368-0.0197-0.14989-0.0328-0.22903-0.0346-0.0072-7.8e-4 -0.014-3e-3 -0.02137-3e-3a0.3097 0.3097 0 0 0-4.13e-4 0c-0.05159 2e-5 -0.10068 7e-3 -0.14879 0.0161-0.23218 0.0361-0.43678 0.15319-0.58628 0.32258l-2.4181-1.7787-2.5298-1.8613c0.045161-0.11245 0.071774-0.23394 0.071774-0.36169 0-0.53988-0.44438-0.98305-0.98426-0.98305s-0.98305 0.44317-0.98305 0.98305c0 0.23043 0.084037 0.44071 0.21855 0.60927l-3.202 4.4572c-0.096849-0.0322-0.19817-0.054-0.30524-0.054-0.53988 0-0.98466 0.44477-0.98466 0.98465 0 0.53989 0.44478 0.98266 0.98466 0.98266 0.53989 0 0.98426-0.44277 0.98426-0.98266 0-0.20878-0.067464-0.4024-0.18024-0.56248l3.2217-4.4852c0.07906 0.0208 0.16072 0.0355 0.24597 0.0355h8.271e-4c0.049832-6e-5 0.0984-5e-3 0.14597-0.0149 0.13181-0.0202 0.2549-0.0663 0.36451-0.13387l2.5641 1.8863 2.5415 1.8697c-1e-3 0.0185-0.0056 0.036-0.0056 0.0549 0 0.53988 0.44438 0.98426 0.98426 0.98426 0.53988 0 0.98466-0.44438 0.98466-0.98426 0-0.22864-0.08319-0.43722-0.21613-0.60484l1.0734-1.8371c0.57186 2.1792 0.1111 4.5926-1.4532 6.4483-2.5547 3.0306-7.0712 3.4153-10.101 0.85967-3.0295-2.5556-3.414-7.0749-0.85928-10.106 1.437-1.7047 3.495-2.5722 5.56-2.55zm8.8333 0.90402c0.20517 0 0.36451 0.16055 0.36451 0.36572 0 0.0769-0.02251 0.14723-0.06129 0.20525v4.1e-4c-0.0387 0.0578-0.09427 0.10349-0.15968 0.13064-0.04377 0.0181-0.09225 0.0279-0.14354 0.0279-0.0042 0-8e-3 -7.8e-4 -0.0121-2e-3 -0.0239-7.8e-4 -0.04779-3e-3 -0.07097-8e-3 -0.0021-4.1e-4 -4e-3 -2e-3 -0.0061-2e-3 -0.02628-7e-3 -0.05193-0.0158-0.07621-0.0283a0.3097 0.3097 0 0 0-0.0032-2e-3c-0.11678-0.0598-0.19556-0.17922-0.19556-0.32257 0-0.20517 0.15894-0.36573 0.36411-0.36573zm-10.418 1.8746c0.20517 0 0.36572 0.15893 0.36572 0.3641 0 0.0881-0.030986 0.16695-0.081048 0.22943a0.3097 0.3097 0 0 0-0.011685 0.0125c-0.069173 0.0784-0.16805 0.12313-0.27258 0.12339-0.068149-1.9e-4 -0.13456-0.0194-0.19234-0.0556a0.3097 0.3097 0 0 0-0.020562-0.0113c-0.092487-0.0657-0.15201-0.17343-0.15201-0.29838 0-0.20517 0.15934-0.36411 0.36451-0.36411zm6.5955 4.6467c0.0019 0 0.0037 4.1e-4 0.0056 4.1e-4 0.03296 6.2e-4 0.06546 5e-3 0.09677 0.0149 0.0033 7.8e-4 0.0065 2e-3 0.0097 3e-3 0.03312 0.0108 0.06493 0.0256 0.09395 0.0456a0.3097 0.3097 0 0 0 0.0121 8e-3c0.08898 0.0656 0.14637 0.17054 0.14637 0.29273 0 0.20517-0.15934 0.36572-0.36451 0.36572-0.20517 0-0.36411-0.16055-0.36411-0.36572 0-0.04 0.0076-0.0776 0.01895-0.1133 0.02416-0.0734 0.06858-0.13578 0.12702-0.17943h4.13e-4c0.02874-0.0214 0.06099-0.0375 0.09516-0.0496 0.0048-2e-3 0.0096-3e-3 0.01451-5e-3 0.03226-0.01 0.06644-0.0154 0.10161-0.0161 0.0022-4e-5 0.0042-7.8e-4 0.0065-7.8e-4zm-10.867 1.3484c0.20517 0 0.36572 0.16095 0.36572 0.36612s-0.16056 0.36411-0.36572 0.36411c-0.20516 0-0.36451-0.15894-0.36451-0.36411s0.15935-0.36612 0.36451-0.36612zm16.437 4.8761 2.7032 2.2802-2.2931 2.7205-2.7032-2.281 0.41169-0.48789a0.3097 0.3097 0 0 0 0.0061-8e-3l1.4839-1.76a0.3097 0.3097 0 0 0 0.0052-5e-3zm3.2008 2.65 2.6992 2.2778c0.72163 0.60875 0.8129 1.6665 0.20443 2.3883l-0.13427 0.15847c-0.60847 0.72183-1.6666 0.81115-2.3883 0.20241l-2.6988-2.2774z" color="#000000" color-rendering="auto" dominant-baseline="auto" image-rendering="auto" shape-rendering="auto" solid-color="#000000" style="font-feature-settings:normal;font-variant-alternates:normal;font-variant-caps:normal;font-variant-ligatures:normal;font-variant-numeric:normal;font-variant-position:normal;isolation:auto;mix-blend-mode:normal;paint-order:stroke markers fill;shape-padding:0;text-decoration-color:#000000;text-decoration-line:none;text-decoration-style:solid;text-indent:0;text-orientation:mixed;text-transform:none;white-space:normal;"/></g><text x="0" y="41.458" fill="#000000" font-size="5px" font-weight="bold" font-family="'Helvetica Neue', Helvetica, Arial-Unicode, Arial, Sans-serif">Created by Astoe Design</text><text x="0" y="46.458" fill="#000000" font-size="5px" font-weight="bold" font-family="'Helvetica Neue', Helvetica, Arial-Unicode, Arial, Sans-serif">from the Noun Project</text></svg>