<svg xmlns="http://www.w3.org/2000/svg" xmlns:xlink="http://www.w3.org/1999/xlink" version="1.1" x="0px" y="0px" viewBox="0 0 100 125" style="enable-background:new 0 0 100 100;" xml:space="preserve"><g><path d="M77.9,31.5c13.7,13.7,13.7,35.8,0,49.5s-35.8,13.7-49.5,0c-6.8-6.8-10.2-15.8-10.2-24.7l35,0L77.9,31.5z"/><path d="M82.2,19L57.5,43.8l0-35C66.4,8.8,75.4,12.2,82.2,19z"/><path d="M46.8,50.2L46.8,50.2l-35,0c0-9,3.4-17.9,10.2-24.7c0,0,0,0,0,0L46.8,50.2z"/><path d="M51.3,11.7l0,35L26.6,22C33.4,15.1,42.3,11.7,51.3,11.7z"/></g><text x="0" y="115" fill="#000000" font-size="5px" font-weight="bold" font-family="'Helvetica Neue', Helvetica, Arial-Unicode, Arial, Sans-serif">Created by Rudez Studio</text><text x="0" y="120" fill="#000000" font-size="5px" font-weight="bold" font-family="'Helvetica Neue', Helvetica, Arial-Unicode, Arial, Sans-serif">from the Noun Project</text></svg>