<svg xmlns="http://www.w3.org/2000/svg" xmlns:xlink="http://www.w3.org/1999/xlink" version="1.1" x="0px" y="0px" viewBox="0 0 64 80" enable-background="new 0 0 64 64" xml:space="preserve"><g><path d="M57.999,1.001H6.001c-2.757,0-5,2.243-5,5v51.998c0,2.757,2.243,5,5,5h51.998c2.757,0,5-2.243,5-5V6.001   C62.999,3.244,60.756,1.001,57.999,1.001z M60.999,57.999c0,1.654-1.346,3-3,3H6.001c-1.654,0-3-1.346-3-3V6.001   c0-1.654,1.346-3,3-3h51.998c1.654,0,3,1.346,3,3V57.999z"/><path d="M57,6H7C6.447,6,6,6.447,6,7v50c0,0.553,0.447,1,1,1h50c0.553,0,1-0.447,1-1V7C58,6.447,57.553,6,57,6z M56,56H8V8h48V56z"/><path d="M32,22.004c-7.72,0-14,6.28-14,13.999c0,7.72,6.28,14.001,14,14.001s14-6.281,14-14.001C46,28.284,39.72,22.004,32,22.004z    M32,48.004c-6.617,0-12-5.384-12-12.001c0-6.616,5.383-11.999,12-11.999s12,5.383,12,11.999C44,42.62,38.617,48.004,32,48.004z"/><path d="M32,24.995c-1.654,0-3,1.346-3,3s1.346,3,3,3s3-1.346,3-3S33.654,24.995,32,24.995z M32,28.995c-0.552,0-1-0.448-1-1   s0.448-1,1-1s1,0.448,1,1S32.552,28.995,32,28.995z"/><path d="M17.853,21.865c-0.045,0.045-0.065,0.101-0.101,0.151c-3.51,3.574-5.688,8.454-5.728,13.838   c-0.009,0.054-0.032,0.102-0.032,0.158c0,0.553,0.447,1,1,1h3.006c0.553,0,1-0.447,1-1l0,0c0-0.004,0.002-0.006,0.002-0.01   c0-8.271,6.729-14.999,15-14.999s15,6.729,15,14.999c0,0.002,0.001,0.004,0.001,0.005c0,0.002-0.001,0.004-0.001,0.006   c0,0.553,0.447,1,1,1h3.007c0.553,0,1-0.447,1-1c0-0.054-0.022-0.101-0.03-0.151c-0.038-5.389-2.219-10.272-5.731-13.849   c-0.033-0.049-0.054-0.104-0.098-0.147c-0.042-0.042-0.097-0.063-0.144-0.096c-3.586-3.528-8.49-5.717-13.9-5.745   c-0.035-0.004-0.066-0.021-0.104-0.021s-0.067,0.017-0.104,0.021C26.488,16.054,21.586,18.241,18,21.768   C17.951,21.801,17.896,21.821,17.853,21.865z M15.05,35.013h-0.983c0.231-4.21,1.908-8.03,4.554-10.982   c0.188,0.168,0.421,0.261,0.658,0.261c0.247,0,0.491-0.096,0.684-0.277C17.117,26.87,15.299,30.733,15.05,35.013z M20.002,23.973   c0.355-0.378,0.357-0.956,0.016-1.341c2.953-2.649,6.778-4.33,10.992-4.562c0.026,0.505,0.419,0.9,0.921,0.938   C27.279,19.026,23.063,20.92,20.002,23.973z M32.069,19.008c0.502-0.037,0.895-0.433,0.921-0.938   c4.214,0.231,8.039,1.912,10.993,4.562c-0.342,0.383-0.341,0.957,0.009,1.336C40.931,20.918,36.718,19.026,32.069,19.008z    M44.044,24.021c0.191,0.178,0.433,0.272,0.677,0.272c0.238,0,0.471-0.093,0.66-0.262c2.645,2.952,4.321,6.772,4.553,10.982H48.95   C48.702,30.737,46.886,26.876,44.044,24.021z"/><path d="M11.044,12.021c0.552,0,1-0.447,1-1s-0.448-1-1-1h-0.011c-0.552,0-0.994,0.447-0.994,1S10.491,12.021,11.044,12.021z"/><path d="M11.044,54.017c0.552,0,1-0.447,1-1s-0.448-1-1-1h-0.011c-0.552,0-0.994,0.447-0.994,1S10.491,54.017,11.044,54.017z"/><path d="M53.046,12.021c0.552,0,1-0.447,1-1s-0.448-1-1-1h-0.011c-0.552,0-0.994,0.447-0.994,1S52.493,12.021,53.046,12.021z"/><path d="M53.046,54.017c0.552,0,1-0.447,1-1s-0.448-1-1-1h-0.011c-0.552,0-0.994,0.447-0.994,1S52.493,54.017,53.046,54.017z"/></g><text x="0" y="79" fill="#000000" font-size="5px" font-weight="bold" font-family="'Helvetica Neue', Helvetica, Arial-Unicode, Arial, Sans-serif">Created by lastspark</text><text x="0" y="84" fill="#000000" font-size="5px" font-weight="bold" font-family="'Helvetica Neue', Helvetica, Arial-Unicode, Arial, Sans-serif">from the Noun Project</text></svg>