<svg xmlns="http://www.w3.org/2000/svg" xmlns:xlink="http://www.w3.org/1999/xlink" version="1.1" x="0px" y="0px" viewBox="0 0 64 80" enable-background="new 0 0 64 64" xml:space="preserve"><g><g><path d="M35.332,36.281C35.121,36.092,35,35.821,35,35.537V20c0-0.551-0.448-1-1-1h-4c-0.551,0-1,0.449-1,1v15.537    c0,0.284-0.121,0.555-0.332,0.744C27.608,37.232,27,38.588,27,40c0,2.757,2.243,5,5,5s5-2.243,5-5    C37,38.588,36.393,37.232,35.332,36.281z M32,43c-1.654,0-3-1.346-3-3c0-1.302,0.838-2.401,2-2.815V24c0-0.552,0.448-1,1-1    s1,0.448,1,1v13.185c1.161,0.414,2,1.514,2,2.815C35,41.654,33.654,43,32,43z"/><path d="M48.004,37.744C46.132,36.444,45,34.312,45,32c0-2.313,1.132-4.445,3.004-5.745C45.587,19.491,39.25,15,32,15    c-7.25,0-13.586,4.492-16.003,11.255C17.868,27.555,19,29.688,19,32s-1.132,4.444-3.003,5.744C18.414,44.509,24.75,49,32,49    S45.587,44.509,48.004,37.744z M22,23h2c0.552,0,1,0.448,1,1s-0.448,1-1,1h-2c-0.552,0-1-0.448-1-1S21.448,23,22,23z M22,27h2    c0.552,0,1,0.448,1,1s-0.448,1-1,1h-2c-0.552,0-1-0.448-1-1S21.448,27,22,27z M24,33h-2c-0.552,0-1-0.448-1-1s0.448-1,1-1h2    c0.552,0,1,0.448,1,1S24.552,33,24,33z M32,47c-3.86,0-7-3.141-7-7c0-1.826,0.724-3.584,2-4.889V20c0-1.654,1.346-3,3-3h4    c1.654,0,3,1.346,3,3v15.111c1.276,1.305,2,3.062,2,4.889C39,43.859,35.859,47,32,47z"/><circle cx="32" cy="40" r="1"/><path d="M33,5.025v8.015c7.966,0.41,14.788,5.666,17.159,13.359c0.141,0.459-0.064,0.954-0.489,1.179    C48.023,28.448,47,30.143,47,32s1.023,3.552,2.67,4.422c0.425,0.224,0.63,0.719,0.489,1.178C47.788,45.294,40.966,50.55,33,50.96    v8.015C47.426,58.446,59,46.553,59,32C59,17.448,47.426,5.554,33,5.025z M54,33h-1v1c0,0.553-0.447,1-1,1s-1-0.447-1-1v-1h-1    c-0.553,0-1-0.448-1-1s0.447-1,1-1h1v-1c0-0.552,0.447-1,1-1s1,0.448,1,1v1h1c0.553,0,1,0.448,1,1S54.553,33,54,33z"/><path d="M13.842,37.6c-0.142-0.459,0.063-0.954,0.488-1.178C15.977,35.552,17,33.857,17,32s-1.023-3.551-2.67-4.421    c-0.425-0.225-0.63-0.719-0.488-1.179c2.37-7.693,9.192-12.95,17.158-13.36V5.025C16.574,5.554,5,17.448,5,32    c0,14.553,11.574,26.446,26,26.975V50.96C23.034,50.55,16.211,45.294,13.842,37.6z M10,33c-0.552,0-1-0.448-1-1s0.448-1,1-1h4    c0.552,0,1,0.448,1,1s-0.448,1-1,1H10z"/></g></g><text x="0" y="79" fill="#000000" font-size="5px" font-weight="bold" font-family="'Helvetica Neue', Helvetica, Arial-Unicode, Arial, Sans-serif">Created by Ralf Schmitzer</text><text x="0" y="84" fill="#000000" font-size="5px" font-weight="bold" font-family="'Helvetica Neue', Helvetica, Arial-Unicode, Arial, Sans-serif">from the Noun Project</text></svg>