<svg xmlns="http://www.w3.org/2000/svg" data-name="Layer 1" viewBox="0 0 64 80" x="0px" y="0px"><title>security-key-guard-wall-protect</title><path d="M32,35a2.98985,2.98985,0,0,0-2,5.22137V44h4V40.22137A2.98985,2.98985,0,0,0,32,35Z"/><path d="M32,25a3,3,0,0,0-3,3v3h6V28A3,3,0,0,0,32,25Z"/><path d="M6,11A3.99077,3.99077,0,0,0,9.85858,8H15V22.38562a38.52894,38.52894,0,0,1-4.81421,1.48767L10,24v2.83392A37.53,37.53,0,0,0,32,61,37.53,37.53,0,0,0,54,26.83392V24l-.18579-.12671c-.95166-.22558-1.88825-.49634-2.81421-.792V16h2.14142a4,4,0,1,0,0-2H50a.99974.99974,0,0,0-1,1v7.38562c-1.02368-.38965-2.02368-.82257-3-1.29144V9.85858a4,4,0,1,0-2,0V20.06921A32.32116,32.32116,0,0,1,32,9a30.34486,30.34486,0,0,1-8,8.50189V11.85858a4,4,0,1,0-2,0v7.01306A38.29366,38.29366,0,0,1,17,21.565V7a.99974.99974,0,0,0-1-1H9.85858A3.99372,3.99372,0,1,0,6,11ZM23,31h2V28a7,7,0,0,1,14,0v3h2V48H23Z"/><text x="0" y="79" fill="#000000" font-size="5px" font-weight="bold" font-family="'Helvetica Neue', Helvetica, Arial-Unicode, Arial, Sans-serif">Created by Nithinan Tatah</text><text x="0" y="84" fill="#000000" font-size="5px" font-weight="bold" font-family="'Helvetica Neue', Helvetica, Arial-Unicode, Arial, Sans-serif">from the Noun Project</text></svg>