<svg xmlns="http://www.w3.org/2000/svg" viewBox="0 0 64 80" x="0px" y="0px"><title>Data manage</title><g data-name="Data manage"><path d="M36,39H4a2,2,0,0,0-2,2v6a2,2,0,0,0,2,2H36a2,2,0,0,0,2-2V41A2,2,0,0,0,36,39ZM7,46a2,2,0,1,1,2-2A2,2,0,0,1,7,46Zm6,0a2,2,0,1,1,2-2A2,2,0,0,1,13,46Z"/><path d="M36,15H4a2,2,0,0,0-2,2v6a2,2,0,0,0,2,2H36a2,2,0,0,0,2-2V17A2,2,0,0,0,36,15ZM7,22a2,2,0,1,1,2-2A2,2,0,0,1,7,22Zm6,0a2,2,0,1,1,2-2A2,2,0,0,1,13,22Z"/><path d="M36,27H4a2,2,0,0,0-2,2v6a2,2,0,0,0,2,2H36a2,2,0,0,0,2-2V29A2,2,0,0,0,36,27ZM7,34a2,2,0,1,1,2-2A2,2,0,0,1,7,34Zm6,0a2,2,0,1,1,2-2A2,2,0,0,1,13,34Z"/><path d="M48.92,32a8.07,8.07,0,0,1-8.06,8.06,8.57,8.57,0,0,1-1-.07,3.94,3.94,0,0,0-1.23-2A4,4,0,0,0,40,35V29a4,4,0,0,0-1.38-3,3.94,3.94,0,0,0,1.23-2,8.57,8.57,0,0,1,1-.07A8.07,8.07,0,0,1,48.92,32Z"/><path d="M61.86,31.6v.8A1.58,1.58,0,0,1,60.54,34l-4.76.79a1,1,0,0,0-.18.07l-.18.07a1,1,0,0,0-.19.17s-.07,0-.09.09a.86.86,0,0,0-.14.29l0,.06a14.57,14.57,0,0,1-1.65,4s0,.08,0,.12a1.13,1.13,0,0,0-.08.24,1.2,1.2,0,0,0,0,.19,1.34,1.34,0,0,0,0,.2,1.28,1.28,0,0,0,.11.24s0,.07,0,.1h0l2.79,3.91a1.58,1.58,0,0,1-.17,2l-.56.57a1.59,1.59,0,0,1-2,.17l-3.91-2.8h0l-.09,0a1,1,0,0,0-.26-.11.55.55,0,0,0-.18,0,.67.67,0,0,0-.2,0,.75.75,0,0,0-.25.09.21.21,0,0,0-.11,0,14.55,14.55,0,0,1-4,1.64,1,1,0,0,0-.36.17l-.09.1a1.45,1.45,0,0,0-.17.18,1.54,1.54,0,0,0-.11.3s0,0,0,.06h0l-.79,4.75A1.6,1.6,0,0,1,41.27,53h-.81a1.6,1.6,0,0,1-1.56-1.32l-.26-1.58a.32.32,0,0,0,0-.09A4,4,0,0,0,40,47V42a8.27,8.27,0,0,0,.86.05,10.06,10.06,0,1,0,0-20.12A8.27,8.27,0,0,0,40,22V17a4,4,0,0,0-1.39-3,.32.32,0,0,0,0-.09l.26-1.57A1.6,1.6,0,0,1,40.46,11h.81a1.6,1.6,0,0,1,1.56,1.32l.79,4.76h0a.83.83,0,0,0,.13.34s0,.05.06.07a.7.7,0,0,0,.18.2.41.41,0,0,0,.11.07.88.88,0,0,0,.22.1l0,0a15.16,15.16,0,0,1,4,1.65.91.91,0,0,0,.31.12h.2l.18,0h0a.83.83,0,0,0,.32-.14h0l3.92-2.8a1.58,1.58,0,0,1,2,.16l.56.57a1.58,1.58,0,0,1,.17,2l-2.79,3.91h0s0,.07,0,.1a1.28,1.28,0,0,0-.11.24,1.34,1.34,0,0,0,0,.2,1.2,1.2,0,0,0,0,.19,1.13,1.13,0,0,0,.08.24s0,.08,0,.12a14.57,14.57,0,0,1,1.65,4,1,1,0,0,0,.15.33.46.46,0,0,1,.07.07.73.73,0,0,0,.18.17l.12.07.22.08.07,0,4.76.79A1.58,1.58,0,0,1,61.86,31.6Z"/></g><text x="0" y="79" fill="#000000" font-size="5px" font-weight="bold" font-family="'Helvetica Neue', Helvetica, Arial-Unicode, Arial, Sans-serif">Created by tezar tantular</text><text x="0" y="84" fill="#000000" font-size="5px" font-weight="bold" font-family="'Helvetica Neue', Helvetica, Arial-Unicode, Arial, Sans-serif">from the Noun Project</text></svg>