<svg xmlns="http://www.w3.org/2000/svg" xmlns:xlink="http://www.w3.org/1999/xlink" version="1.1" x="0px" y="0px" viewBox="0 0 100 125" style="enable-background:new 0 0 100 100;" xml:space="preserve"><g><path d="M17.8,93.4h64.6c0,0-19.7-33.8-18.5-45.5l-7.1-0.6l1.8-2.7c2.1-3.7,11.8-0.9,11.8-0.9c12.2,1.6,9-10.4,9-10.4   c4.4-4.1-5.5-6-5.5-6c7.6-3.6-3.6-10.2-3.6-10.2c-1.5-5.6-10.7-3.6-10.7-3.6c0-6.5-7.2-6.5-7.2-6.5c-4.9-2.8-7,4.5-7,4.5   c-9.4-4.4-14.9,6.6-14.9,6.6c-9.7-2.6-7.1,11.4-7.1,11.4c-8.5,0.7,0,10,0,10c0.4,7.3,9,0.2,9,0.2c9.6-8,12.7,6.7,12.7,6.7l-8.4-0.7   C36.3,45.4,35.8,86,17.8,93.4z M71.9,31.5L71,34.4l-3.1-2.9H71.9z M69.4,21.4v3.1L66.3,23L69.4,21.4z M64.5,34.4v4.2l-2.6-3.4   L64.5,34.4z M58.7,15.6l3.2,5.1l-3.2,0.6V15.6z M27.7,32.6l-1.8-5.2l3.5,3.5L27.7,32.6z M31.1,23l-2.6-1.5l4.2-0.8L31.1,23z    M35.5,31.5c-0.4,0.1,1.1-2.8,1.1-2.8l2.7,2.8C39.3,31.5,35.9,31.3,35.5,31.5z M55.8,10.1l-1.9,3.7l-1.8-3.7H55.8z M53.9,21.9   l2.8,2.6L52.2,24L53.9,21.9z M52.2,36.5v4.1l-2.8-3.3L52.2,36.5z M49.3,17l-5.4,2.9l-1.1-2L49.3,17z M42.8,29.5l4.9-3.6l-0.7,5.6   L42.8,29.5z M52.2,58.1c6.5,0,11.8,5.3,11.8,11.9s-5.3,12-11.8,12s-11.8-5.3-11.8-11.9C40.4,63.6,45.7,58.1,52.2,58.1z"/><ellipse cx="51.6" cy="70.4" rx="1.9" ry="2.2"/><path d="M53.7,66.3l1.8-4.1c-4.4-3.5-7.7,0.6-7.7,0.6l1.7,3.6C52.2,65.5,53.6,66.3,53.7,66.3z"/><path d="M47.2,77.3l2.6-3.1c-2.1-1.9-2.1-3.4-2.1-3.4L43,71.2C41.6,76.5,47.2,77.3,47.2,77.3z"/><path d="M53.4,74.2l2.6,3.1c0,0,5.5-0.8,4.2-6.1l-4.6-0.4C55.6,70.7,55.6,72.3,53.4,74.2z"/></g><text x="0" y="115" fill="#000000" font-size="5px" font-weight="bold" font-family="'Helvetica Neue', Helvetica, Arial-Unicode, Arial, Sans-serif">Created by Ian Ransley</text><text x="0" y="120" fill="#000000" font-size="5px" font-weight="bold" font-family="'Helvetica Neue', Helvetica, Arial-Unicode, Arial, Sans-serif">from the Noun Project</text></svg>