<svg xmlns="http://www.w3.org/2000/svg" viewBox="0 0 512 640" x="0px" y="0px"><path d="M488,272V240a7.99977,7.99977,0,0,0-8-8H448V200a7.99427,7.99427,0,0,0-4.10547-6.98523A71.99911,71.99911,0,1,0,354.81494,192H328a7.99977,7.99977,0,0,0-8,8v16H304V96a7.99977,7.99977,0,0,0-8-8H274.26416A63.85007,63.85007,0,0,0,296,40V24a7.99977,7.99977,0,0,0-8-8H224a7.99977,7.99977,0,0,0-8,8V40a48.05436,48.05436,0,0,1-48,48H24a7.99977,7.99977,0,0,0-8,8V224a7.99977,7.99977,0,0,0,8,8H40V344H24a7.99977,7.99977,0,0,0-8,8V480a7.99977,7.99977,0,0,0,8,8H488a7.99977,7.99977,0,0,0,8-8V360a7.99977,7.99977,0,0,0-8-8h-8V328h8a7.99977,7.99977,0,0,0,8-8V280A7.99977,7.99977,0,0,0,488,272Zm-16,0H376V248h96ZM344,136a56,56,0,1,1,56,56A56.06353,56.06353,0,0,1,344,136Zm-8,72h96v24H336Zm-8,144V248h32v32a7.99977,7.99977,0,0,0,8,8v24h-8a7.99977,7.99977,0,0,0-8,8v40a7.99977,7.99977,0,0,0,8,8h8v24H304V360h16A7.99977,7.99977,0,0,0,328,352Zm152,16v24H384V368Zm-352-8h64V472H128Zm24-128h64V344H152Zm136-48H208V168h80Zm0-32H208V136h80ZM208,392h80v16H208Zm80-16H208V360h80Zm-56-32V328h80v16Zm0-32V296h80v16Zm0-32V264h80v16ZM208,456h80v16H208Zm0-16V424h80v16Zm96-32h64v24H304Zm80,0h96v24H384ZM312,248H232V232h80ZM208,216V200h80v16Zm80-112v16H208V104ZM232,40V32h48v8a48.05436,48.05436,0,0,1-48,48H210.26422A63.85023,63.85023,0,0,0,232,40Zm-40,64V216H128V104ZM32,104h80v16H48v16h64v16H48v16h64v16H48v16h64v16H32ZM56,232h80v16H72v16h64v16H72v16h64v16H72v16h64v16H56ZM32,360h80v16H48v16h64v16H48v16h64v16H48v16h64v16H32Zm272,88h64v24H304Zm176,24H384V448h96ZM464,352H368V328h96Zm16-40H384V288h96Z"/><path d="M408,96H392v8.40326a20.00124,20.00124,0,0,0,4.001,39.5982h.00732l7.98926-.00292h.00146a4.00073,4.00073,0,1,1,0,8.00146H376v16h16v8h16v-8.40326a20.00124,20.00124,0,0,0-4.001-39.5982h-.00732l-7.98926.00292H396.001a4.00073,4.00073,0,1,1,0-8.00146H424V104H408Z"/><text x="0" y="527" fill="#000000" font-size="5px" font-weight="bold" font-family="'Helvetica Neue', Helvetica, Arial-Unicode, Arial, Sans-serif">Created by ArmOkay</text><text x="0" y="532" fill="#000000" font-size="5px" font-weight="bold" font-family="'Helvetica Neue', Helvetica, Arial-Unicode, Arial, Sans-serif">from the Noun Project</text></svg>