<svg xmlns="http://www.w3.org/2000/svg" xmlns:xlink="http://www.w3.org/1999/xlink" version="1.1" x="0px" y="0px" viewBox="0 0 134 167.5" style="enable-background:new 0 0 134 134;" xml:space="preserve"><g><path d="M106.2,13H94l-1.6-6.4c-0.2-0.9-1-1.5-1.9-1.5H43.5c-0.9,0-1.7,0.6-1.9,1.5L40,13H27.8c-3.2,0-5.9,2.6-5.9,5.9v104   c0,3.2,2.6,5.9,5.9,5.9h78.5c3.2,0,5.9-2.6,5.9-5.9v-104C112.1,15.7,109.5,13,106.2,13z M108.2,122.9c0,1.1-0.9,2-2,2H27.8   c-1.1,0-2-0.9-2-2v-104c0-1.1,0.9-2,2-2H39l-1.4,5.4c-0.1,0.6,0,1.2,0.4,1.7c0.4,0.5,0.9,0.7,1.5,0.7h54.9c0.6,0,1.2-0.3,1.5-0.7   c0.4-0.5,0.5-1.1,0.4-1.7L95,17h11.2c1.1,0,2,0.9,2,2V122.9z"/><path d="M96.4,111.1h-3.9V99.4c0-1.1-0.9-2-2-2s-2,0.9-2,2v11.8h-5.5V99.4c0-1.1-0.9-2-2-2c-1.1,0-2,0.9-2,2v11.8h-5.5V91.5   c0-1.1-0.9-2-2-2c-1.1,0-2,0.9-2,2v19.6h-5.5V87.6c0-1.1-0.9-2-2-2c-1.1,0-2,0.9-2,2v23.5h-5.5V93.5c0-1.1-0.9-2-2-2s-2,0.9-2,2   v17.7h-5.5V99.4c0-1.1-0.9-2-2-2c-1.1,0-2,0.9-2,2v11.8h-3.9c-1.1,0-2,0.9-2,2c0,1.1,0.9,2,2,2h58.9c1.1,0,2-0.9,2-2   C98.4,112,97.5,111.1,96.4,111.1z"/><path d="M48.8,63.4c2.9,7.3,9.9,12.4,18.2,12.4c6.3,0,11.9-3,15.5-7.7l-15.8-9.8L48.8,63.4z"/><path d="M64.2,55l-7.8-15.2c-5.4,3.5-9,9.6-9,16.5c0,1.2,0.1,2.3,0.3,3.4L64.2,55z"/><path d="M84.6,64.8c1.3-2.6,2-5.5,2-8.6c0-10.8-8.8-19.6-19.6-19.6c-2.5,0-4.9,0.5-7.1,1.4l8.6,16.9L84.6,64.8z"/></g><text x="0" y="149" fill="#000000" font-size="5px" font-weight="bold" font-family="'Helvetica Neue', Helvetica, Arial-Unicode, Arial, Sans-serif">Created by Azam Ishaq</text><text x="0" y="154" fill="#000000" font-size="5px" font-weight="bold" font-family="'Helvetica Neue', Helvetica, Arial-Unicode, Arial, Sans-serif">from the Noun Project</text></svg>