<svg xmlns="http://www.w3.org/2000/svg" xmlns:xlink="http://www.w3.org/1999/xlink" xml:space="preserve" version="1.1" style="shape-rendering:geometricPrecision;text-rendering:geometricPrecision;image-rendering:optimizeQuality;" viewBox="0 0 396 447.5" x="0px" y="0px" fill-rule="evenodd" clip-rule="evenodd"><defs><style type="text/css">
   
    .fil0 {fill:black}
   
  </style></defs><g><path class="fil0" d="M210 197l0 149c0,15 -24,15 -24,0l0 -149c-18,-6 -31,-22 -31,-41 0,-24 19,-43 43,-43 23,0 42,19 42,43 0,19 -12,35 -30,41zm-12 -22c10,0 19,-9 19,-19 0,-11 -9,-20 -19,-20 -11,0 -19,9 -19,20 0,10 8,19 19,19z"/><path class="fil0" d="M71 265c-65,-69 -65,-178 0,-246 9,-10 -7,-26 -16,-16 -73,78 -73,200 0,278 10,10 25,-6 16,-16z"/><path class="fil0" d="M103 234c-48,-52 -48,-132 0,-184 9,-9 -7,-25 -16,-15 -56,60 -56,154 0,214 9,10 25,-6 16,-15z"/><path class="fil0" d="M135 202c-31,-34 -31,-86 0,-120 8,-10 -7,-26 -17,-15 -38,42 -38,108 0,150 10,10 26,-5 17,-15z"/><path class="fil0" d="M324 265c66,-69 66,-178 1,-246 -9,-10 6,-26 16,-16 73,78 73,200 0,278 -10,10 -26,-6 -17,-16z"/><path class="fil0" d="M293 234c48,-52 48,-132 0,-184 -9,-9 7,-25 16,-15 56,60 56,154 0,214 -9,10 -25,-6 -16,-15z"/><path class="fil0" d="M261 202c30,-34 30,-86 0,-120 -9,-10 7,-26 16,-15 39,42 39,108 0,150 -9,10 -25,-5 -16,-15z"/></g><text x="0" y="373" fill="#000000" font-size="5px" font-weight="bold" font-family="'Helvetica Neue', Helvetica, Arial-Unicode, Arial, Sans-serif">Created by Humantech</text><text x="0" y="378" fill="#000000" font-size="5px" font-weight="bold" font-family="'Helvetica Neue', Helvetica, Arial-Unicode, Arial, Sans-serif">from the Noun Project</text></svg>