<svg xmlns="http://www.w3.org/2000/svg" xmlns:xlink="http://www.w3.org/1999/xlink" version="1.1" x="0px" y="0px" viewBox="0 0 100 125" enable-background="new 0 0 100 100" xml:space="preserve"><path d="M79.688,40.767L64.013,13.4c-0.938-1.637-2.681-2.648-4.568-2.648c-1.887,0-3.63,1.011-4.568,2.648l-9.464,16.523  c-1.677-0.673-3.505-1.048-5.42-1.048c-8.054,0-14.608,6.552-14.608,14.605c0,2.172,0.48,4.233,1.335,6.088  c-4.004,3.624-6.525,8.861-6.525,14.675l-0.006,23.812l0.012,2.64l11.831-0.017l3.819-4.33c0.694,0.215,1.434,0.331,2.2,0.331h6.161  c4.105,0,7.446-3.339,7.446-7.446V67.046c0-4.104-3.341-7.446-7.446-7.446h-6.161c-4.105,0-7.445,3.342-7.445,7.446v3.461  l-4.965,4.364l-0.126-10.642c0.003-4.017,1.654-7.653,4.307-10.277c2.631,2.555,6.219,4.136,10.169,4.136  c3.949,0,7.536-1.579,10.168-4.136c2.659,2.627,4.307,6.27,4.307,10.292v26.077h5.321V64.244c0-5.813-2.52-11.051-6.525-14.674  c0.139-0.301,0.263-0.609,0.382-0.922h21.474c1.877,0,3.613-1,4.555-2.624C80.615,44.4,80.62,42.396,79.688,40.767z M38.051,64.921  h6.161c1.174,0,2.125,0.95,2.125,2.125v12.188c0,1.177-0.951,2.127-2.125,2.127h-3.966l2.476-2.808  c1.312-1.266,2.067-2.958,2.138-4.783c0.07-1.876-0.592-3.669-1.868-5.045c-1.326-1.428-3.205-2.247-5.154-2.247  c-0.646,0-1.28,0.086-1.888,0.255C36.101,65.707,36.983,64.921,38.051,64.921z M30.606,77.591l5.319-4.678l0.7-0.616l0.052-0.048  c0.316-0.293,0.728-0.452,1.16-0.452c0.481,0,0.926,0.192,1.253,0.544c0.31,0.336,0.471,0.771,0.453,1.226  c-0.018,0.457-0.211,0.878-0.545,1.187L38.9,74.846l-2.975,3.375l-4.263,4.835l-2.035,2.308l-3.843,0.006l-0.016-3.528  L30.606,77.591z M45.583,50.892c-1.556,1.177-3.493,1.875-5.59,1.875s-4.035-0.698-5.591-1.875c-1.459-1.103-2.58-2.626-3.189-4.387  c-0.327-0.949-0.507-1.966-0.507-3.023c0-5.121,4.167-9.287,9.287-9.287c0.952,0,1.872,0.144,2.74,0.413  c1.733,0.537,3.251,1.569,4.389,2.929c1.326,1.589,2.133,3.626,2.157,5.848c0,0.035,0.002,0.066,0.002,0.098  c0,1.058-0.18,2.075-0.508,3.024c-0.264,0.766-0.631,1.482-1.077,2.143C47.118,49.508,46.406,50.269,45.583,50.892z M54.597,43.383  c-0.028-4.208-1.844-7.999-4.726-10.65l9.573-16.716l15.675,27.366H54.597z"/><polygon points="57.88,34.696 61.01,34.696 61.535,24.068 57.354,24.068 "/><path d="M59.444,36.455c-1.398,0-2.452,1.098-2.452,2.557c0,1.479,1.032,2.555,2.452,2.555c1.421,0,2.452-1.076,2.452-2.555  C61.896,37.504,60.888,36.455,59.444,36.455z"/><text x="0" y="115" fill="#000000" font-size="5px" font-weight="bold" font-family="'Helvetica Neue', Helvetica, Arial-Unicode, Arial, Sans-serif">Created by Stephen Plaster</text><text x="0" y="120" fill="#000000" font-size="5px" font-weight="bold" font-family="'Helvetica Neue', Helvetica, Arial-Unicode, Arial, Sans-serif">from the Noun Project</text></svg>