<svg xmlns="http://www.w3.org/2000/svg" xmlns:xlink="http://www.w3.org/1999/xlink" version="1.1" x="0px" y="0px" viewBox="0 0 100 125" style="enable-background:new 0 0 100 100;" xml:space="preserve"><style type="text/css">
	.st0{fill:#FFFFFF;stroke:#000000;stroke-miterlimit:10;}
	.st1{fill-rule:evenodd;clip-rule:evenodd;}
</style><path class="st0" d="M1271.1,845.2"/><path class="st1" d="M71.1,19.4c0.1,1.5,0,3-0.3,3.9c-0.5,1.7-2.1,3.6-4.1,4.6c-1,0.4-1.2,0.5-2.3,0.5c-2.2,0-4.3-1-5.4-2.3  c-0.8-0.9-1.5-3-2-4.9C61.7,20.6,66.4,20,71.1,19.4L71.1,19.4z M63.4,11.1c2.9-0.7,5.9,1,6.9,3.8l-0.3,0c-1.2-2.1-3.6-3.2-5.9-2.6  c-2.4,0.6-4,2.6-4.1,5L59,17.4C58.7,14.5,60.5,11.7,63.4,11.1L63.4,11.1z M54.6,20.6c5.8-0.7,11.6-1.5,17.3-2.2  c0.2,0,0.3-0.2,0.3-0.4L72,16.3c0-0.2-0.2-0.3-0.3-0.3c-0.1,0-0.2,0-0.2-0.1c-1.2-9.5-16.1-8.6-15.9,2c0,0.2-0.1,0.5-0.4,0.6  l-0.9,0.4c-0.3,0.1-0.5,0.3-0.5,0.6l0.1,0.8C54,20.6,54.3,20.6,54.6,20.6L54.6,20.6z M51,85.8l-2,0.5c-1.7,0.4-1.5,1.6-1.5,2.8  c0,0.3,0.3,0.6,0.8,0.6h8.9c2.2-0.4,2.1-2.4,1.9-4.2L58,68.9l1.6-0.1c0.3,1.3,1.5,2.2,2.8,2.1c18.8-1.1,0.1,0,17.5-1  c3.3-0.2,5.7-1.9,6.1-5.3L89,40.6c0.2-1.3-0.3-2.1-1.6-2.1l-11.2,0c-1.3,0-2.1,0.5-2.2,1.8l-2.5,24L70,63.8l2.6-24.8  c0.1-1.3,0.9-1.8,2.2-1.8h4.9c-1.5-4.1-2.7-6.8-7.5-8c-3.2-0.8-9.8,0.2-11.6,3.3l-6.4,12.8l-10.9,1.4c-2.7,0.5-3.9,3.3-2.2,5.6  l13.2,0.6c2.6,0.2,4.1,0.1,5.2-1.7l3.9-6c0.3,1,0.5,2.1,0.7,3.2c0.7,3.2,1,5.3,1.3,8.3l-12.2,3.6c-2.5,0.5-4.2,2.9-3.8,5.4l2.1,19.2  C51.7,85.4,51.4,85.7,51,85.8L51,85.8z M61.9,71.8l7.9-0.5c0.3,4.8,0.6,9.6,1,14.3c0.1,1.7,0.4,3.8-1.8,4.1h-8.4  c-0.5-0.1-0.7-0.3-0.8-0.6c0-1.2-0.3-2.4,1.4-2.8l2-0.5c0.1,0,0.2-0.1,0.2-0.3C62.8,81.1,62.4,76.2,61.9,71.8L61.9,71.8z M76.1,70.9  v15.5l7.4,1.8L83.1,90l-8-1.9l-4,0.9l0-2l3-0.7V71L76.1,70.9z"/><path class="st1" d="M40.9,29.1c-9.2-0.9-18.4-1.9-27.6-2.8c0,4.9,0,11.5,0,16.5c9.2,0.3,18.4,0.6,27.6,0.9  C40.9,39.4,40.9,33.4,40.9,29.1L40.9,29.1z M42.1,27.8c0,5.5,0,12.7,0,18.3c-10.1-0.2-20.3-0.4-30.4-0.6c0-6.4,0-14.5,0-21  C21.8,25.6,31.9,26.7,42.1,27.8L42.1,27.8z M39.4,30c0,0.4,0,0.9,0,1.3c-2.3-0.2-4.7-0.4-7-0.6c0-0.5,0-0.9,0-1.4  C34.7,29.5,37.1,29.8,39.4,30L39.4,30z M32,41.4c0,0.4,0,0.9,0,1.3c-0.9,0-1.9-0.1-2.9-0.1c0-0.4,0-0.9,0-1.3  C30.1,41.3,31,41.4,32,41.4L32,41.4z M35.7,41.5c0,0.4,0,0.9,0,1.3c-0.9,0-1.8-0.1-2.8-0.1c0-0.4,0-0.9,0-1.3  C33.8,41.5,34.8,41.5,35.7,41.5L35.7,41.5z M39.3,41.7c0,0.4,0,0.8,0,1.3c-0.9,0-1.8-0.1-2.7-0.1c0-0.4,0-0.8,0-1.3  C37.5,41.6,38.4,41.7,39.3,41.7L39.3,41.7z M16.9,38c1.1,0.1,2.1,1,2.1,2.1c0,1.1-0.9,2-2.1,2c-1.1,0-2.1-1-2.1-2.1  C14.9,38.8,15.8,38,16.9,38L16.9,38z M16.9,38.7c0.8,0,1.4,0.7,1.4,1.5c0,0.8-0.6,1.4-1.4,1.4c-0.8,0-1.4-0.7-1.4-1.5  C15.5,39.2,16.2,38.6,16.9,38.7L16.9,38.7z M16.9,32.9C18.1,33,19,34,19,35.1c0,1.1-0.9,2-2.1,1.9c-1.1-0.1-2.1-1-2.1-2.2  C14.9,33.7,15.8,32.8,16.9,32.9L16.9,32.9z M16.9,33.5c0.8,0.1,1.4,0.7,1.4,1.5c0,0.8-0.6,1.4-1.4,1.3c-0.8,0-1.4-0.7-1.4-1.5  C15.5,34.1,16.2,33.5,16.9,33.5L16.9,33.5z M16.9,27.8c1.1,0.1,2.1,1.1,2.1,2.2c0,1.1-0.9,2-2.1,1.9c-1.1-0.1-2.1-1.1-2.1-2.2  C14.9,28.5,15.8,27.7,16.9,27.8L16.9,27.8z M16.9,28.4c0.8,0.1,1.4,0.8,1.4,1.5c0,0.8-0.6,1.4-1.4,1.3c-0.8-0.1-1.4-0.8-1.4-1.5  C15.5,28.9,16.2,28.3,16.9,28.4L16.9,28.4z M39.5,39.6c0,0.2,0,0.4,0,0.6c-3.5-0.2-7-0.3-10.5-0.5c-0.6,1.7-2.2,2.7-4,2.7  c-2.5-0.1-4.4-2.3-4.4-4.7c0-2.5,2-4.4,4.4-4.2c2.4,0.2,4.3,2.3,4.3,4.7c0,0.3,0,0.7-0.1,1C32.6,39.3,36.1,39.5,39.5,39.6L39.5,39.6  z M28.6,39.1c-1.2-0.1-2.4-0.1-3.7-0.2c0,0.2,0,0.4,0,0.6c1.2,0.1,2.3,0.1,3.5,0.2c-0.6,1.3-1.9,2.2-3.4,2.1  c-2.1-0.1-3.8-1.9-3.8-4.1c0-2.1,1.7-3.8,3.8-3.7c2.1,0.1,3.7,2,3.7,4.1C28.7,38.5,28.7,38.8,28.6,39.1L28.6,39.1z M21.5,28.3  c1.3,0.1,2.6,0.2,3.8,0.4c0,1.3,0,2.6,0,3.8c-1.3-0.1-2.5-0.2-3.8-0.3C21.5,30.9,21.5,29.6,21.5,28.3L21.5,28.3z M26.8,28.8  c1.2,0.1,2.4,0.2,3.6,0.3c0,1.3,0,2.5,0,3.8c-1.2-0.1-2.4-0.2-3.6-0.3C26.8,31.3,26.8,30.1,26.8,28.8L26.8,28.8z M39.4,36.8  c0,0.4,0,0.9,0,1.3c-2.3-0.1-4.7-0.3-7-0.4c0-0.5,0-0.9,0-1.4C34.7,36.5,37.1,36.6,39.4,36.8L39.4,36.8z M39.4,34.5  c0,0.4,0,0.9,0,1.3c-2.3-0.2-4.7-0.3-7-0.5c0-0.5,0-0.9,0-1.4C34.7,34.2,37.1,34.3,39.4,34.5L39.4,34.5z M39.4,32.2  c0,0.4,0,0.9,0,1.3c-2.3-0.2-4.7-0.4-7-0.5c0-0.5,0-0.9,0-1.4C34.7,31.9,37.1,32.1,39.4,32.2L39.4,32.2z M52.3,49.1H34.9v-2  c-6,0-8-0.1-14.1-0.1v2.1h-7.2v3.7h38.7V49.1L52.3,49.1z M54.6,53.6H11.3v3.8h16.3l14.9,21.8v6.9H19.6v3.7h25.8V78.2L31.3,57.4h23.3  V53.6L54.6,53.6z"/><text x="0" y="115" fill="#000000" font-size="5px" font-weight="bold" font-family="'Helvetica Neue', Helvetica, Arial-Unicode, Arial, Sans-serif">Created by jipangan</text><text x="0" y="120" fill="#000000" font-size="5px" font-weight="bold" font-family="'Helvetica Neue', Helvetica, Arial-Unicode, Arial, Sans-serif">from the Noun Project</text></svg>