<svg xmlns="http://www.w3.org/2000/svg" xmlns:xlink="http://www.w3.org/1999/xlink" version="1.1" x="0px" y="0px" viewBox="0 0 512 640" style="enable-background:new 0 0 512 512;" xml:space="preserve"><title>SmartLighting-internetofthings-iot-streetlight-lighting</title><path d="M301.3,66.7c-25-25-65.5-25-90.5,0c0,0,0,0,0,0l11.3,11.3c18.7-18.7,49.1-18.7,67.9,0L301.3,66.7z"/><path d="M233.4,89.4l11.3,11.3c6.2-6.2,16.4-6.2,22.6,0c0,0,0,0,0,0l11.3-11.3C266.1,76.9,245.9,76.9,233.4,89.4L233.4,89.4z"/><path d="M256,32c21.2-0.1,41.6,8.4,56.6,23.4l11.3-11.3c-37.5-37.5-98.3-37.5-135.8,0l11.3,11.3C214.4,40.4,234.8,31.9,256,32z"/><rect x="96" y="240" width="16" height="24"/><rect x="136" y="229.6" transform="matrix(0.8321 -0.5547 0.5547 0.8321 -111.1621 120.8566)" width="16" height="28.8"/><rect x="164" y="201.6" transform="matrix(0.5547 -0.8321 0.8321 0.5547 -103.1313 239.2974)" width="16" height="28.8"/><rect x="49.6" y="236" transform="matrix(0.5547 -0.8321 0.8321 0.5547 -174.5211 161.9043)" width="28.8" height="16"/><rect x="21.6" y="208" transform="matrix(0.8321 -0.5547 0.5547 0.8321 -113.7691 56.2464)" width="28.8" height="16"/><path d="M440,168v-24h-64v24c0,17.7,14.3,32,32,32S440,185.7,440,168z"/><path d="M365.3,128H448c4.4,0,8-3.6,8-8s-3.6-8-8-8h-85.5c-14.9,0-29.1,5.9-39.6,16.4L273,178.3c-9.4,9.4-24.6,9.4-33.9,0  l-49.9-49.9c-10.5-10.5-24.7-16.4-39.6-16.4H64c-4.4,0-8,3.6-8,8s3.6,8,8,8h82.7c10.6,0,20.8,4.2,28.3,11.7l61.3,61.3  c7.5,7.5,11.7,17.7,11.7,28.3V496h16V229.3c0-10.6,4.2-20.8,11.7-28.3l61.3-61.3C344.5,132.2,354.6,128,365.3,128z"/><path d="M72,168c0,17.7,14.3,32,32,32s32-14.3,32-32v-24H72V168z"/><rect x="400" y="240" width="16" height="24"/><rect x="353.6" y="236" transform="matrix(0.5547 -0.8321 0.8321 0.5547 -39.15 414.8477)" width="28.8" height="16"/><rect x="325.6" y="208" transform="matrix(0.8321 -0.5547 0.5547 0.8321 -62.7123 224.8752)" width="28.8" height="16"/><rect x="440" y="229.6" transform="matrix(0.8321 -0.5547 0.5547 0.8321 -60.1054 289.4854)" width="16" height="28.8"/><rect x="468" y="201.6" transform="matrix(0.5547 -0.8321 0.8321 0.5547 32.2398 492.2407)" width="16" height="28.8"/><path d="M217.6,205L16,496.2h216v-267c0-6.4-2.5-12.5-7-17L217.6,205z"/><path d="M294.4,205l-7.3,7.3c-4.5,4.5-7,10.6-7,17v267h216L294.4,205z"/><text x="0" y="527" fill="#000000" font-size="5px" font-weight="bold" font-family="'Helvetica Neue', Helvetica, Arial-Unicode, Arial, Sans-serif">Created by Wichai Wi</text><text x="0" y="532" fill="#000000" font-size="5px" font-weight="bold" font-family="'Helvetica Neue', Helvetica, Arial-Unicode, Arial, Sans-serif">from the Noun Project</text></svg>