<svg width="260" height="244" viewBox="0 0 260 244" fill="none" xmlns="http://www.w3.org/2000/svg">
<path fill-rule="evenodd" clip-rule="evenodd" d="M215.812 230.892L206.547 224.141L215.643 215.616C217.337 214.033 217.337 211.463 215.643 209.875C213.953 208.292 211.205 208.292 209.515 209.875L199.657 219.119L190.392 212.368L226.537 178.507L233.739 187.182L223.88 196.426C222.186 198.009 222.186 200.579 223.88 202.166C224.725 202.958 225.835 203.356 226.944 203.356C228.053 203.356 229.163 202.958 230.008 202.166L239.104 193.641L246.306 202.32L238.245 209.875H238.241L223.88 223.333L215.812 230.892ZM158.724 183.159C150.954 183.159 143.189 180.39 137.274 174.849L122.818 161.306L128.945 155.566L143.401 169.109C151.851 177.021 165.597 177.021 174.043 169.109L180.361 163.19C184.451 159.357 186.705 154.258 186.705 148.839C186.705 143.415 184.451 138.316 180.361 134.484L165.905 120.941L172.032 115.201L186.488 128.744C192.217 134.11 195.371 141.247 195.371 148.839C195.371 156.426 192.217 163.563 186.488 168.93L180.17 174.849C174.259 180.39 166.49 183.159 158.724 183.159ZM93.5679 169.515C92.4715 168.483 91.8649 167.115 91.8649 165.658C91.8649 164.196 92.4715 162.828 93.5679 161.797L172.561 87.798C173.692 86.7344 175.187 86.2026 176.677 86.2026C178.164 86.2026 179.659 86.7344 180.794 87.798C181.89 88.8292 182.497 90.1973 182.497 91.6547C182.497 93.1161 181.89 94.4802 180.794 95.5113L162.845 112.326L119.754 152.695L101.801 169.515C99.5306 171.638 95.8342 171.638 93.5679 169.515ZM77.5042 152.2C77.5042 150.743 78.1065 149.375 79.2072 148.344L97.1516 131.528L140.247 91.1594L158.195 74.3403C159.331 73.2807 160.822 72.7489 162.312 72.7489C163.807 72.7489 165.298 73.2807 166.429 74.3403C167.53 75.3715 168.136 76.7396 168.136 78.201C168.136 79.6584 167.53 81.0265 166.429 82.0577L87.4405 156.057C85.1699 158.18 81.4778 158.184 79.2072 156.057C78.1065 155.03 77.5042 153.662 77.5042 152.2ZM74.2931 74.1901L79.0425 69.7407C91.3016 58.2601 111.248 58.2601 123.507 69.7407L137.179 82.5489L131.051 88.2892L117.38 75.4811C112.938 71.3199 107.105 69.2455 101.277 69.2455C95.4442 69.2455 89.6115 71.3199 85.1742 75.4811L80.4205 79.9304C76.1218 83.9617 73.7515 89.3204 73.7515 95.0161C73.7515 100.72 76.1218 106.075 80.4205 110.106L94.0922 122.914L87.9649 128.654L74.2931 115.846C68.3565 110.284 65.0848 102.888 65.0848 95.0161C65.0848 87.1525 68.3565 79.7559 74.2931 74.1901ZM21.7556 33.9834L21.7599 33.9794L36.1207 20.5257V20.5216L44.1894 12.9626L53.4497 19.7138L44.354 28.239C42.6597 29.8263 42.6597 32.392 44.354 33.9794C45.199 34.771 46.3084 35.1688 47.4177 35.1688C48.527 35.1688 49.6364 34.771 50.4814 33.9794L60.3441 24.7396L69.6045 31.4908L33.46 65.3523L26.2579 56.6727L36.1207 47.433C37.8107 45.8457 37.8107 43.2759 36.1207 41.6927C34.4263 40.1054 31.679 40.1054 29.9933 41.6927L20.8976 50.2139L13.6912 41.5343L21.7556 33.9834ZM258.729 223.333L247.432 212.75L255.141 205.528C256.684 204.082 256.84 201.781 255.497 200.165L231.897 171.735C236.274 163.608 235.355 153.511 228.833 146.431L189.248 98.2841C192.347 93.1121 191.614 86.4543 186.921 82.0577C184.126 79.4352 180.46 78.1239 176.786 78.0995C176.76 74.657 175.356 71.2225 172.561 68.6C167.868 64.2115 160.757 63.5214 155.236 66.424L104.029 29.4813C96.3282 23.266 85.5209 22.3769 76.8325 26.4731L46.486 4.35615C44.7614 3.0936 42.3043 3.23975 40.7617 4.68904L33.057 11.9111L21.7599 1.32766C20.9453 0.568505 19.8446 0.138184 18.6962 0.138184C17.5479 0.138184 16.4429 0.568505 15.6326 1.32766L1.26751 14.7854C-0.422502 16.3686 -0.422502 18.9384 1.26751 20.5257L12.5646 31.1092L4.85985 38.3272C3.31285 39.7765 3.16118 42.0743 4.50019 43.6941L28.104 72.1197C23.7229 80.2512 24.6459 90.3475 31.1676 97.4234L70.7528 145.571C67.6501 150.743 68.3868 157.405 73.0798 161.797C75.8748 164.42 79.5408 165.731 83.2155 165.759C83.2415 169.198 84.6412 172.632 87.4405 175.255C90.2659 177.898 93.9752 179.221 97.6846 179.221C100.137 179.221 102.564 178.588 104.761 177.431L155.968 214.378C160.583 218.1 166.321 219.943 172.045 219.943C175.88 219.943 179.667 219.014 183.151 217.374L213.511 239.499C214.295 240.075 215.235 240.355 216.171 240.355C217.285 240.355 218.394 239.953 219.235 239.166L226.944 231.944L238.241 242.527C239.052 243.29 240.157 243.717 241.305 243.717C242.453 243.717 243.554 243.29 244.369 242.527L258.729 229.074C260.424 227.486 260.424 224.916 258.729 223.333Z" fill="#994985"/>
</svg>
