<svg width="258" height="244" viewBox="0 0 258 244" fill="none" xmlns="http://www.w3.org/2000/svg">
<path d="M253.7 132.248V115.734C253.7 115.192 253.589 114.655 253.373 114.154C253.157 113.653 252.84 113.198 252.441 112.815C252.041 112.432 251.567 112.128 251.046 111.92C250.524 111.713 249.965 111.606 249.4 111.606H232.2V95.092C232.2 94.3569 231.996 93.6351 231.608 93.0013C231.22 92.3676 230.662 91.8448 229.993 91.4873C236.37 86.7784 241.06 80.2787 243.41 72.8921C245.761 65.5055 245.655 57.5992 243.109 50.2728C240.562 42.9464 235.7 36.5641 229.2 32.0135C222.7 27.463 214.884 24.9704 206.84 24.8824C198.796 24.7944 190.924 27.1154 184.317 31.5226C177.711 35.9299 172.699 42.2042 169.979 49.4729C167.259 56.7417 166.966 64.6437 169.141 72.0798C171.316 79.5159 175.85 86.1165 182.113 90.9636H167.7C167.135 90.9636 166.576 91.0703 166.054 91.2778C165.533 91.4853 165.059 91.7894 164.659 92.1727C164.26 92.5561 163.943 93.0112 163.727 93.5121C163.511 94.013 163.4 94.5499 163.4 95.092V103.349H154.8V41.4222C154.8 40.88 154.689 40.3432 154.473 39.8423C154.257 39.3414 153.94 38.8863 153.541 38.5029C153.141 38.1195 152.667 37.8154 152.146 37.608C151.624 37.4005 151.065 37.2937 150.5 37.2937H138.817C142.488 34.2008 145.429 30.3911 147.444 26.1194C149.459 21.8477 150.501 17.2123 150.5 12.523V4.26614C150.5 3.72398 150.389 3.18713 150.173 2.68624C149.957 2.18534 149.64 1.73022 149.241 1.34686C148.841 0.96349 148.367 0.659391 147.846 0.451923C147.324 0.244454 146.765 0.13768 146.2 0.137695H111.8C111.235 0.13768 110.676 0.244454 110.154 0.451923C109.633 0.659391 109.159 0.96349 108.759 1.34686C108.36 1.73022 108.043 2.18534 107.827 2.68624C107.611 3.18713 107.5 3.72398 107.5 4.26614V12.523C107.492 19.0904 104.772 25.3866 99.9348 30.0304C95.0981 34.6742 88.5402 37.2863 81.7 37.2937H4.3C3.73531 37.2937 3.17615 37.4005 2.65444 37.608C2.13274 37.8154 1.6587 38.1195 1.2594 38.5029C0.86011 38.8863 0.543374 39.3414 0.327285 39.8423C0.111195 40.3432 -1.62337e-05 40.88 1.77738e-09 41.4222V107.477C-1.62337e-05 108.02 0.111195 108.556 0.327285 109.057C0.543374 109.558 0.86011 110.013 1.2594 110.397C1.6587 110.78 2.13274 111.084 2.65444 111.292C3.17615 111.499 3.73531 111.606 4.3 111.606H12.9V169.404H4.3C3.73531 169.404 3.17615 169.511 2.65444 169.718C2.13274 169.926 1.6587 170.23 1.2594 170.613C0.86011 170.997 0.543374 171.452 0.327285 171.953C0.111195 172.454 -1.62337e-05 172.99 1.77738e-09 173.533V239.588C-1.62337e-05 240.13 0.111195 240.667 0.327285 241.168C0.543374 241.669 0.86011 242.124 1.2594 242.507C1.6587 242.89 2.13274 243.194 2.65444 243.402C3.17615 243.609 3.73531 243.716 4.3 243.716H253.7C254.265 243.716 254.824 243.609 255.346 243.402C255.867 243.194 256.341 242.89 256.741 242.507C257.14 242.124 257.457 241.669 257.673 241.168C257.889 240.667 258 240.13 258 239.588V177.661C258 177.119 257.889 176.582 257.673 176.081C257.457 175.58 257.14 175.125 256.741 174.742C256.341 174.358 255.867 174.054 255.346 173.847C254.824 173.639 254.265 173.533 253.7 173.533H249.4V161.147H253.7C254.265 161.147 254.824 161.04 255.346 160.833C255.867 160.626 256.341 160.321 256.741 159.938C257.14 159.555 257.457 159.1 257.673 158.599C257.889 158.098 258 157.561 258 157.019V136.377C258 135.834 257.889 135.298 257.673 134.797C257.457 134.296 257.14 133.841 256.741 133.457C256.341 133.074 255.867 132.77 255.346 132.562C254.824 132.355 254.265 132.248 253.7 132.248ZM245.1 132.248H193.5V119.863H245.1V132.248ZM176.3 62.0644C176.3 56.3487 178.065 50.7614 181.373 46.0089C184.68 41.2565 189.381 37.5524 194.881 35.3651C200.381 33.1778 206.433 32.6055 212.272 33.7206C218.111 34.8357 223.474 37.588 227.684 41.6297C231.893 45.6713 234.76 50.8206 235.922 56.4265C237.083 62.0324 236.487 67.843 234.209 73.1236C231.931 78.4043 228.073 82.9177 223.123 86.0932C218.173 89.2687 212.353 90.9636 206.4 90.9636C198.42 90.9549 190.769 87.9074 185.126 82.4896C179.483 77.0719 176.309 69.7263 176.3 62.0644ZM172 99.2205H223.6V111.606H172V99.2205ZM167.7 173.533V119.863H184.9V136.377C184.9 136.919 185.011 137.456 185.227 137.956C185.443 138.457 185.76 138.912 186.159 139.296C186.559 139.679 187.033 139.983 187.554 140.191C188.076 140.398 188.635 140.505 189.2 140.505V152.89H184.9C184.335 152.89 183.776 152.997 183.254 153.205C182.733 153.412 182.259 153.716 181.859 154.099C181.46 154.483 181.143 154.938 180.927 155.439C180.711 155.94 180.6 156.477 180.6 157.019V177.661C180.6 178.203 180.711 178.74 180.927 179.241C181.143 179.742 181.46 180.197 181.859 180.58C182.259 180.964 182.733 181.268 183.254 181.475C183.776 181.683 184.335 181.789 184.9 181.789H189.2V194.175H154.8V177.661H163.4C163.965 177.661 164.524 177.554 165.046 177.347C165.567 177.139 166.041 176.835 166.441 176.452C166.84 176.068 167.157 175.613 167.373 175.112C167.589 174.612 167.7 174.075 167.7 173.533ZM249.4 181.789V194.175H197.8V181.789H249.4ZM60.2 177.661H94.6V235.459H60.2V177.661ZM73.1 111.606H107.5V169.404H73.1V111.606ZM146.2 86.8351H103.2V78.5782H146.2V86.8351ZM146.2 70.3213H103.2V62.0644H146.2V70.3213ZM103.2 194.175H146.2V202.432H103.2V194.175ZM146.2 185.918H103.2V177.661H146.2V185.918ZM116.1 169.404V161.147H159.1V169.404H116.1ZM116.1 152.89V144.633H159.1V152.89H116.1ZM116.1 136.377V128.12H159.1V136.377H116.1ZM103.2 227.202H146.2V235.459H103.2V227.202ZM103.2 218.945V210.689H146.2V218.945H103.2ZM154.8 202.432H189.2V214.817H154.8V202.432ZM197.8 202.432H249.4V214.817H197.8V202.432ZM159.1 119.863H116.1V111.606H159.1V119.863ZM103.2 103.349V95.092H146.2V103.349H103.2ZM146.2 45.5506V53.8075H103.2V45.5506H146.2ZM116.1 12.523V8.39459H141.9V12.523C141.892 19.0904 139.172 25.3866 134.335 30.0304C129.498 34.6742 122.94 37.2863 116.1 37.2937H104.417C108.088 34.2008 111.029 30.3911 113.044 26.1194C115.059 21.8477 116.101 17.2123 116.1 12.523ZM94.6 45.5506V103.349H60.2V45.5506H94.6ZM8.6 45.5506H51.6V53.8075H17.2V62.0644H51.6V70.3213H17.2V78.5782H51.6V86.8351H17.2V95.092H51.6V103.349H8.6V45.5506ZM21.5 111.606H64.5V119.863H30.1V128.12H64.5V136.377H30.1V144.633H64.5V152.89H30.1V161.147H64.5V169.404H21.5V111.606ZM8.6 177.661H51.6V185.918H17.2V194.175H51.6V202.432H17.2V210.689H51.6V218.945H17.2V227.202H51.6V235.459H8.6V177.661ZM154.8 223.074H189.2V235.459H154.8V223.074ZM249.4 235.459H197.8V223.074H249.4V235.459ZM240.8 173.533H189.2V161.147H240.8V173.533ZM249.4 152.89H197.8V140.505H249.4V152.89Z" fill="#994985"/>
</svg>
