<svg width="263" height="250" viewBox="0 0 263 250" fill="none" xmlns="http://www.w3.org/2000/svg">
<path fill-rule="evenodd" clip-rule="evenodd" d="M138.974 138.169V242.056C138.974 252.514 123.072 252.514 123.072 242.056V138.169C111.146 133.985 102.533 122.829 102.533 109.582C102.533 92.8487 115.121 79.6013 131.023 79.6013C146.262 79.6013 158.851 92.8487 158.851 109.582C158.851 122.829 150.9 133.985 138.974 138.169ZM131.023 122.829C137.649 122.829 143.612 116.554 143.612 109.582C143.612 101.913 137.649 95.6376 131.023 95.6376C123.735 95.6376 118.434 101.913 118.434 109.582C118.434 116.554 123.735 122.829 131.023 122.829Z" fill="#994985"/>
<path fill-rule="evenodd" clip-rule="evenodd" d="M46.8768 185.579C3.80977 137.471 3.80977 61.4726 46.8768 14.0611C52.8399 7.0888 42.2388 -4.06686 36.2757 2.90543C-12.0919 57.2893 -12.0919 142.351 36.2757 196.735C42.9014 203.707 52.8399 192.552 46.8768 185.579Z" fill="#994985"/>
<path fill-rule="evenodd" clip-rule="evenodd" d="M68.079 163.966C36.2756 127.71 36.2756 71.9314 68.079 35.6756C74.0421 29.4005 63.441 18.2449 57.4779 25.2172C20.3739 67.0508 20.3739 132.59 57.4779 174.424C63.441 181.396 74.0421 170.241 68.079 163.966Z" fill="#994985"/>
<path fill-rule="evenodd" clip-rule="evenodd" d="M89.2811 141.654C68.7414 117.948 68.7414 81.6921 89.2811 57.9863C94.5816 51.014 84.6431 39.8584 78.0174 47.5279C52.8397 76.8115 52.8397 122.829 78.0174 152.112C84.6431 159.084 95.2442 148.626 89.2811 141.654Z" fill="#994985"/>
<path fill-rule="evenodd" clip-rule="evenodd" d="M214.507 185.579C258.236 137.471 258.236 61.4726 215.169 14.0611C209.206 7.0888 219.145 -4.06686 225.77 2.90543C274.138 57.2893 274.138 142.351 225.77 196.735C219.145 203.707 208.544 192.552 214.507 185.579Z" fill="#994985"/>
<path fill-rule="evenodd" clip-rule="evenodd" d="M193.967 163.966C225.77 127.71 225.77 71.9314 193.967 35.6756C188.004 29.4005 198.605 18.2449 204.568 25.2172C241.672 67.0508 241.672 132.59 204.568 174.424C198.605 181.396 188.004 170.241 193.967 163.966Z" fill="#994985"/>
<path fill-rule="evenodd" clip-rule="evenodd" d="M172.765 141.654C192.642 117.948 192.642 81.6921 172.765 57.9863C166.802 51.014 177.403 39.8584 183.366 47.5279C209.206 76.8115 209.206 122.829 183.366 152.112C177.403 159.084 166.802 148.626 172.765 141.654Z" fill="#994985"/>
</svg>
