<svg width="229" height="176" viewBox="0 0 229 176" fill="none" xmlns="http://www.w3.org/2000/svg">
<path d="M0 156.233C0 166.955 8.5422 175.478 19.2888 175.478H208.871C219.617 175.478 228.159 166.955 228.159 156.233V51.7578H0V156.233ZM115.733 103.72C112.702 103.72 110.222 101.246 110.222 98.2218C110.222 95.1975 112.702 92.7231 115.733 92.7231H128.684V83.6502C128.684 80.626 131.164 78.1515 134.195 78.1515H146.32C163.68 78.1515 178.284 90.7985 180.764 107.57H203.911C206.942 107.57 209.422 110.044 209.422 113.068C209.422 116.093 206.942 118.567 203.911 118.567H180.764C178.008 135.338 163.68 147.985 146.32 147.985H134.195C131.164 147.985 128.684 145.511 128.684 142.486V133.413H115.733C112.702 133.413 110.222 130.939 110.222 127.915C110.222 124.89 112.702 122.416 115.733 122.416H128.684V103.446H115.733V103.72ZM24.2488 107.57H47.3954C50.151 90.7985 64.4798 78.1515 81.8398 78.1515H93.9642C96.9953 78.1515 99.4753 80.626 99.4753 83.6502V142.486C99.4753 145.511 96.9953 147.985 93.9642 147.985H81.8398C64.4798 147.985 49.8754 135.338 47.3954 118.567H24.2488C21.2177 118.567 18.7377 116.093 18.7377 113.068C18.7377 110.044 21.2177 107.57 24.2488 107.57Z" fill="#994985"/>
<path d="M82.1153 136.988H88.7286V89.1499H82.1153C68.8887 89.1499 58.142 99.8723 58.142 113.069C57.8665 126.266 68.8887 136.988 82.1153 136.988Z" fill="#994985"/>
<path d="M170.293 113.069C170.293 99.8723 159.546 89.1499 146.32 89.1499H139.706V136.988H146.32C159.271 136.988 170.293 126.266 170.293 113.069Z" fill="#994985"/>
<path d="M208.871 0.620117H19.2888C8.5422 0.620117 0 9.14305 0 19.8655V40.4855H228.159V19.8655C228.159 9.41799 219.342 0.620117 208.871 0.620117ZM19.5644 34.9868C11.8489 34.9868 5.5111 28.6633 5.5111 20.9652C5.5111 13.2671 11.8489 6.94358 19.5644 6.94358C27.2799 6.94358 33.6177 13.2671 33.6177 20.9652C33.6177 28.6633 27.2799 34.9868 19.5644 34.9868ZM57.8665 34.9868C50.151 34.9868 43.8132 28.6633 43.8132 20.9652C43.8132 13.2671 50.151 6.94358 57.8665 6.94358C65.582 6.94358 71.9198 13.2671 71.9198 20.9652C71.9198 28.6633 65.582 34.9868 57.8665 34.9868ZM96.1686 34.9868C88.4531 34.9868 82.1153 28.6633 82.1153 20.9652C82.1153 13.2671 88.4531 6.94358 96.1686 6.94358C103.884 6.94358 110.222 13.2671 110.222 20.9652C110.222 28.6633 103.884 34.9868 96.1686 34.9868Z" fill="#994985"/>
</svg>
