<svg width="112" height="112" viewBox="0 0 112 112" fill="none" xmlns="http://www.w3.org/2000/svg">
<path d="M56.2911 34.4517C42.3449 34.4517 31 45.8321 31 59.8202C31 73.8101 42.3449 85.1924 56.2911 85.1924C70.2374 85.1924 81.5823 73.8101 81.5823 59.8202C81.5823 45.8321 70.2374 34.4517 56.2911 34.4517ZM56.2911 81.568C44.3375 81.568 34.613 71.8113 34.613 59.8202C34.613 47.8309 44.3375 38.076 56.2911 38.076C68.2448 38.076 77.9693 47.8309 77.9693 59.8202C77.9693 71.8113 68.2448 81.568 56.2911 81.568Z" fill="#A65993"/>
<path d="M56.4196 39.8721C53.4316 39.8721 51 42.3113 51 45.3086C51 48.3059 53.4316 50.7451 56.4196 50.7451C59.4075 50.7451 61.8391 48.3059 61.8391 45.3086C61.8391 42.3113 59.4075 39.8721 56.4196 39.8721ZM56.4196 47.1208C55.4224 47.1208 54.613 46.3089 54.613 45.3086C54.613 44.3083 55.4224 43.4964 56.4196 43.4964C57.4168 43.4964 58.2261 44.3083 58.2261 45.3086C58.2261 46.3089 57.4168 47.1208 56.4196 47.1208Z" fill="#A65993"/>
<path d="M30.588 34.2002C30.5067 34.2817 30.4705 34.3832 30.4055 34.4738C24.0646 40.9505 20.1301 49.7939 20.0578 59.5506C20.0416 59.6484 20 59.7354 20 59.8369C20 60.839 20.8075 61.6491 21.8065 61.6491H27.2369C28.2359 61.6491 29.0434 60.839 29.0434 59.8369C29.0434 59.8297 29.047 59.826 29.047 59.8188C29.047 44.8304 41.203 32.6381 56.1446 32.6381C71.0863 32.6381 83.2423 44.8322 83.2423 59.8188C83.2423 59.8224 83.2441 59.826 83.2441 59.8278C83.2441 59.8315 83.2423 59.8351 83.2423 59.8387C83.2423 60.8408 84.0498 61.6509 85.0488 61.6509H90.481C91.48 61.6509 92.2875 60.8408 92.2875 59.8387C92.2875 59.7409 92.2477 59.6557 92.2333 59.5651C92.1646 49.7993 88.2246 40.9505 81.8802 34.4684C81.8206 34.3796 81.7826 34.2799 81.7031 34.202C81.6273 34.1259 81.5279 34.0878 81.443 34.028C74.9649 27.6347 66.1057 23.6679 56.3325 23.6172C56.2693 23.6099 56.2133 23.5791 56.1446 23.5791C56.076 23.5791 56.0236 23.6099 55.9568 23.6172C46.1872 23.6697 37.3317 27.6329 30.8535 34.0244C30.765 34.0842 30.6656 34.1205 30.588 34.2002ZM25.5243 58.0265H23.7485C24.1658 50.3973 27.1953 43.4749 31.9754 38.1254C32.315 38.4298 32.7359 38.5983 33.164 38.5983C33.6102 38.5983 34.051 38.4244 34.3997 38.0964C29.2584 43.2701 25.9741 50.2705 25.5243 58.0265ZM34.4701 38.0202C35.1115 37.3352 35.1151 36.2878 34.499 35.5901C39.8337 30.7897 46.7436 27.7435 54.3562 27.323C54.4032 28.2382 55.1131 28.954 56.02 29.0228C47.6161 29.0555 39.9999 32.4877 34.4701 38.0202ZM56.2693 29.0228C57.1762 28.9558 57.8861 28.2382 57.9331 27.323C65.5457 27.7416 72.4556 30.7879 77.792 35.5901C77.1742 36.2842 77.176 37.3244 77.8083 38.0112C72.2786 32.4841 64.6678 29.0555 56.2693 29.0228ZM77.9022 38.1072C78.2473 38.4298 78.6845 38.6001 79.1252 38.6001C79.5552 38.6001 79.9761 38.4316 80.3175 38.1254C85.0958 43.4749 88.1235 50.3973 88.5426 58.0265H86.765C86.317 50.2777 83.0363 43.281 77.9022 38.1072Z" fill="#A65993"/>
<circle cx="56" cy="56" r="54" stroke="#A65993" stroke-width="4"/>
</svg>
