<svg width="112" height="112" viewBox="0 0 112 112" fill="none" xmlns="http://www.w3.org/2000/svg">
<path d="M26 38.7063V27.1123C26 25.4625 27.1965 24.1792 28.7173 24.1792H51.1222C52.6387 24.1792 53.8432 25.4619 53.8432 27.1123V38.7057C53.8432 40.3525 52.6393 41.6353 51.1222 41.6353H28.7167C27.1959 41.6358 26 40.3525 26 38.7063ZM50.3747 27.5086H29.4678V38.3118H50.3747V27.5086Z" fill="#A65993"/>
<path d="M85.1669 87.022V75.0573C85.1669 73.9561 84.2345 73.0576 83.0725 73.0576H62.8923C61.7364 73.0576 60.8041 73.9561 60.8041 75.0573V87.022" fill="#A65993"/>
<path d="M85.1669 69.5659V57.6004C85.1669 56.4991 84.2345 55.6006 83.0725 55.6006H62.8923C61.7364 55.6006 60.8041 56.4991 60.8041 57.6004V69.5659" fill="#A65993"/>
<path d="M85.1669 52.1094V40.1443C85.1669 39.043 84.2345 38.1445 83.0725 38.1445H62.8923C61.7364 38.1445 60.8041 39.043 60.8041 40.1443V52.1094" fill="#A65993"/>
<path d="M60.5393 45.3926H43.6665V48.3057H60.5393V45.3926Z" fill="#A65993"/>
<path d="M43.0054 83.1333V42.0332H40.3182V83.1333H43.0054Z" fill="#A65993"/>
<path d="M60.5393 62.8726H43.6665V65.7861H60.5393V62.8726Z" fill="#A65993"/>
<path d="M60.5393 80.3521H43.6665V83.2651H60.5393V80.3521Z" fill="#A65993"/>
<circle cx="56" cy="56" r="54" stroke="#A65993" stroke-width="4"/>
</svg>
