<svg width="112" height="112" viewBox="0 0 112 112" fill="none" xmlns="http://www.w3.org/2000/svg">
<path d="M76.2857 26.1855H37.7143C34.8727 26.1855 32.1475 27.299 30.1381 29.281C28.1288 31.2631 27 33.9512 27 36.7542V74.8014C27 77.6044 28.1288 80.2926 30.1381 82.2746C32.1475 84.2566 34.8727 85.3701 37.7143 85.3701H72.9429C73.237 85.369 73.5281 85.3116 73.8 85.201C74.0719 85.0766 74.3187 84.9048 74.5286 84.6937L86.4214 72.0113C86.6116 71.8105 86.7576 71.573 86.85 71.3138C86.8621 71.2155 86.8621 71.1161 86.85 71.0179C86.9211 70.8777 86.9716 70.7282 87 70.574V36.7542C87 33.9512 85.8712 31.2631 83.8619 29.281C81.8525 27.299 79.1273 26.1855 76.2857 26.1855ZM75.1286 77.8664V73.8503C76.1228 74.2007 77.149 74.4555 78.1929 74.6112L75.1286 77.8664ZM82.7143 69.6017C82.1063 70.1171 81.3638 70.454 80.5714 70.574C78.3111 70.526 76.0998 69.9152 74.1429 68.7984C73.8171 68.6129 73.4476 68.5153 73.0714 68.5153C72.6953 68.5153 72.3258 68.6129 72 68.7984C71.6618 68.981 71.3798 69.2501 71.1837 69.5774C70.9876 69.9048 70.8847 70.2783 70.8857 70.6585V81.2272H37.7143C36.0093 81.2272 34.3742 80.5591 33.1686 79.3699C31.963 78.1807 31.2857 76.5678 31.2857 74.886V43.0954H82.7143V69.6017ZM82.7143 38.868H31.2857V36.7542C31.2857 35.0724 31.963 33.4595 33.1686 32.2703C34.3742 31.0811 36.0093 30.413 37.7143 30.413H76.2857C77.9907 30.413 79.6258 31.0811 80.8314 32.2703C82.037 33.4595 82.7143 35.0724 82.7143 36.7542V38.868ZM39.8571 32.5268C39.4333 32.5268 39.019 32.6507 38.6666 32.883C38.3142 33.1152 38.0396 33.4454 37.8774 33.8316C37.7152 34.2178 37.6728 34.6428 37.7555 35.0529C37.8381 35.4629 38.0422 35.8395 38.3419 36.1351C38.6416 36.4307 39.0234 36.632 39.4391 36.7136C39.8548 36.7952 40.2856 36.7533 40.6772 36.5933C41.0687 36.4333 41.4034 36.1624 41.6389 35.8148C41.8743 35.4672 42 35.0585 42 34.6405C42 34.0799 41.7742 33.5423 41.3724 33.1459C40.9705 32.7494 40.4255 32.5268 39.8571 32.5268ZM74.1429 32.5268C73.719 32.5268 73.3047 32.6507 72.9523 32.883C72.6 33.1152 72.3253 33.4454 72.1631 33.8316C72.0009 34.2178 71.9585 34.6428 72.0412 35.0529C72.1239 35.4629 72.3279 35.8395 72.6276 36.1351C72.9273 36.4307 73.3091 36.632 73.7248 36.7136C74.1405 36.7952 74.5713 36.7533 74.9629 36.5933C75.3544 36.4333 75.6891 36.1624 75.9246 35.8148C76.16 35.4672 76.2857 35.0585 76.2857 34.6405C76.2857 34.0799 76.0599 33.5423 75.6581 33.1459C75.2562 32.7494 74.7112 32.5268 74.1429 32.5268ZM57 74.8014C59.9667 74.8014 62.8668 73.9337 65.3336 72.3078C67.8003 70.682 69.7229 68.3712 70.8582 65.6675C71.9935 62.9639 72.2906 59.9889 71.7118 57.1187C71.133 54.2485 69.7044 51.6121 67.6066 49.5429C65.5088 47.4736 62.8361 46.0644 59.9264 45.4935C57.0166 44.9226 54.0006 45.2156 51.2597 46.3354C48.5189 47.4553 46.1762 49.3518 44.528 51.785C42.8797 54.2182 42 57.0789 42 60.0053C42 63.9295 43.5804 67.6929 46.3934 70.4678C49.2064 73.2426 53.0218 74.8014 57 74.8014ZM57 49.4366C59.1191 49.4366 61.1906 50.0565 62.9525 51.2178C64.7145 52.3791 66.0878 54.0297 66.8987 55.9608C67.7096 57.892 67.9218 60.017 67.5084 62.0672C67.095 64.1173 66.0746 66.0004 64.5761 67.4785C63.0777 68.9565 61.1686 69.9631 59.0903 70.3709C57.0119 70.7787 54.8576 70.5694 52.8998 69.7695C50.942 68.9696 49.2687 67.615 48.0914 65.8769C46.9141 64.1389 46.2857 62.0956 46.2857 60.0053C46.2857 57.2023 47.4145 54.5141 49.4239 52.5321C51.4332 50.5501 54.1584 49.4366 57 49.4366ZM59.5071 67.5091C59.7013 67.7998 59.9652 68.0388 60.2755 68.2047C60.5857 68.3707 60.9328 68.4584 61.2857 68.4602C61.707 68.465 62.1192 68.3393 62.4643 68.1009C62.934 67.791 63.2606 67.3106 63.373 66.7643C63.4854 66.2179 63.3744 65.65 63.0643 65.184L59.1429 59.3712V53.6641C59.1429 53.1035 58.9171 52.5659 58.5152 52.1695C58.1134 51.7731 57.5683 51.5504 57 51.5504C56.4317 51.5504 55.8866 51.7731 55.4848 52.1695C55.0829 52.5659 54.8571 53.1035 54.8571 53.6641V60.0053C54.8604 60.4197 54.9871 60.8239 55.2214 61.1679L59.5071 67.5091Z" fill="#A65993"/>
<circle cx="56" cy="56" r="54" stroke="#A65993" stroke-width="4"/>
</svg>
