<svg width="112" height="112" viewBox="0 0 112 112" fill="none" xmlns="http://www.w3.org/2000/svg">
<path d="M77.7698 25.35H70.8565L69.9499 21.7061C69.8365 21.1937 69.3832 20.8521 68.8732 20.8521H42.24C41.73 20.8521 41.2766 21.1937 41.1633 21.7061L40.2566 25.35H33.3433C31.53 25.35 30 26.8303 30 28.7092V87.9225C30 89.7445 31.4733 91.2817 33.3433 91.2817H77.8265C79.6398 91.2817 81.1698 89.8014 81.1698 87.9225V28.7092C81.1132 26.8873 79.6398 25.35 77.7698 25.35ZM78.9032 87.9225C78.9032 88.5488 78.3932 89.0612 77.7698 89.0612H33.3433C32.72 89.0612 32.21 88.5488 32.21 87.9225V28.7092C32.21 28.0829 32.72 27.5705 33.3433 27.5705H39.69L38.8966 30.645C38.84 30.9866 38.8966 31.3283 39.1233 31.6129C39.35 31.8976 39.6333 32.0115 39.9733 32.0115H71.0832C71.4232 32.0115 71.7632 31.8407 71.9332 31.6129C72.1599 31.3283 72.2165 30.9866 72.1599 30.645L71.4232 27.6274H77.7698C78.3932 27.6274 78.9032 28.1398 78.9032 28.7661V87.9225Z" fill="#A65993"/>
<path d="M72.2165 82.2076H70.0065V75.5459C70.0065 74.9195 69.4965 74.4071 68.8732 74.4071C68.2499 74.4071 67.7399 74.9195 67.7399 75.5459V82.2645H64.6232V75.5459C64.6232 74.9195 64.1132 74.4071 63.4899 74.4071C62.8665 74.4071 62.3566 74.9195 62.3566 75.5459V82.2645H59.2399V71.0478C59.2399 70.4215 58.7299 69.909 58.1066 69.909C57.4832 69.909 56.9732 70.4215 56.9732 71.0478V82.2076H53.8566V68.8272C53.8566 68.2009 53.3466 67.6885 52.7233 67.6885C52.0999 67.6885 51.5899 68.2009 51.5899 68.8272V82.2076H48.4733V72.1865C48.4733 71.5602 47.9633 71.0478 47.3399 71.0478C46.7166 71.0478 46.2066 71.5602 46.2066 72.1865V82.2645H43.09V75.5459C43.09 74.9195 42.58 74.4071 41.9566 74.4071C41.3333 74.4071 40.8233 74.9195 40.8233 75.5459V82.2645H38.6133C37.99 82.2645 37.48 82.7769 37.48 83.4032C37.48 84.0296 37.99 84.542 38.6133 84.542H71.9898C72.6132 84.542 73.1232 84.0296 73.1232 83.4032C73.3498 82.72 72.8398 82.2076 72.2165 82.2076Z" fill="#A65993"/>
<path d="M45.2433 55.0488C46.8866 59.2051 50.8533 62.1089 55.5566 62.1089C59.1266 62.1089 62.2999 60.4008 64.3399 57.7248L55.3866 52.145L45.2433 55.0488Z" fill="#A65993"/>
<path d="M53.9699 50.2659L49.5499 41.6118C46.4899 43.6045 44.45 47.0776 44.45 51.0061C44.45 51.6893 44.5066 52.3156 44.62 52.9419L53.9699 50.2659Z" fill="#A65993"/>
<path d="M65.5299 55.8462C66.2666 54.3659 66.6633 52.7148 66.6633 50.9498C66.6633 44.8008 61.6766 39.7905 55.5566 39.7905C54.14 39.7905 52.78 40.0752 51.5333 40.5876L56.4066 50.2096L65.5299 55.8462Z" fill="#A65993"/>
<circle cx="56" cy="56" r="54" stroke="#A65993" stroke-width="4"/>
</svg>
