<svg width="112" height="114" viewBox="0 0 112 114" fill="none" xmlns="http://www.w3.org/2000/svg">
<path d="M56 113.143C41.0372 113.143 26.9818 107.303 16.4016 96.6897C5.82134 86.0764 0 71.9771 0 56.9675C0 41.9579 5.82134 27.8586 16.4016 17.2453C26.9818 6.63202 41.0372 0.79248 56 0.79248C70.9628 0.79248 85.0182 6.63202 95.5984 17.2453C106.179 27.8586 112 41.9579 112 56.9675C112 71.9771 106.179 86.0764 95.5984 96.6897C85.0182 107.303 70.9628 113.143 56 113.143ZM56 4.34505C27.0704 4.34505 3.5415 27.9475 3.5415 56.9675C3.5415 85.9876 27.0704 109.59 56 109.59C84.9296 109.59 108.458 85.9876 108.458 56.9675C108.458 27.9475 84.9296 4.34505 56 4.34505Z" fill="#A65993"/>
<path d="M56.3323 33.9326C43.5519 33.9326 33.1538 44.3266 33.1538 57.1021C33.1538 69.8775 43.5519 80.2715 56.3323 80.2715C69.1128 80.2715 79.5109 69.8775 79.5109 57.1021C79.5109 44.3266 69.1128 33.9326 56.3323 33.9326ZM69.803 68.1415C69.5804 68.4976 69.2019 68.7202 68.8011 68.7202H60.6964C60.2956 71.3242 58.5366 73.216 56.3323 73.216C54.128 73.216 52.3691 71.302 51.9683 68.7202H43.8636C43.4405 68.7202 43.062 68.4976 42.8616 68.1415C42.639 67.7854 42.639 67.3402 42.8394 66.9841L44.398 64.0685C44.9546 63.0224 45.244 61.8428 45.244 60.6632V52.161C45.244 45.9959 50.2761 40.9658 56.4437 40.9658C59.4273 40.9658 62.2105 42.1454 64.2589 44.2598C66.2851 46.352 67.4206 49.1563 67.4206 52.161V60.0622C67.4206 61.6202 67.8214 63.1782 68.5562 64.5581L69.8253 66.9619C70.0257 67.3402 70.0034 67.7854 69.803 68.1415Z" fill="#A65993"/>
<path d="M35.9369 80.561C29.1236 74.6407 25.2271 66.0941 25.2271 57.1024C25.2271 48.1107 29.1236 39.5418 35.9369 33.6438C36.4267 33.2209 36.4712 32.4642 36.0482 31.9745C35.6251 31.4849 34.8681 31.4404 34.3783 31.8633C27.0529 38.2287 22.8669 47.4207 22.8669 57.1024C22.8669 66.7841 27.0529 75.9761 34.3783 82.3415C34.6009 82.5418 34.8681 82.6309 35.1576 82.6309C35.4915 82.6309 35.8033 82.4973 36.0482 82.2302C36.4935 81.7406 36.4267 80.9839 35.9369 80.561Z" fill="#A65993"/>
<path d="M78.2638 31.8633C77.7739 31.4404 77.0392 31.4849 76.5938 31.9745C76.1708 32.4642 76.2153 33.1987 76.7052 33.6438C83.5184 39.5641 87.4149 48.1107 87.4149 57.1024C87.4149 66.0941 83.5184 74.6629 76.7052 80.561C76.2153 80.9839 76.1708 81.7406 76.5938 82.2302C76.8165 82.4973 77.1505 82.6309 77.4845 82.6309C77.7517 82.6309 78.0411 82.5418 78.2638 82.3415C85.5891 75.9761 89.775 66.7841 89.775 57.1024C89.775 47.4207 85.5891 38.2287 78.2638 31.8633Z" fill="#A65993"/>
</svg>
