<svg width="112" height="112" viewBox="0 0 112 112" fill="none" xmlns="http://www.w3.org/2000/svg">
<circle cx="56" cy="56" r="54" stroke="#A65993" stroke-width="4"/>
<path d="M66.2435 50.8541V45.2611C66.2435 44.6875 65.7432 44.1855 65.1713 44.1855H30.5755C30.0036 44.1855 29.5033 44.6875 29.5033 45.2611V50.8541C29.5033 51.4278 30.0036 51.9297 30.5755 51.9297H65.0999C65.7432 51.9297 66.2435 51.4278 66.2435 50.8541ZM64.0992 49.7785H31.6477V46.3367H64.0277V49.7785H64.0992Z" fill="#A65993"/>
<path d="M47.8734 63.1152H30.5755C30.0036 63.1152 29.5033 63.6171 29.5033 64.1907C29.5033 64.7642 30.0036 65.2661 30.5755 65.2661H47.8734C48.4452 65.2661 48.9456 64.7642 48.9456 64.1907C48.9456 63.6171 48.4452 63.1152 47.8734 63.1152Z" fill="#A65993"/>
<path d="M47.8734 59.1719H30.5755C30.0036 59.1719 29.5033 59.6737 29.5033 60.2473C29.5033 60.8209 30.0036 61.3228 30.5755 61.3228H47.8734C48.4452 61.3228 48.9456 60.8209 48.9456 60.2473C48.9456 59.6737 48.4452 59.1719 47.8734 59.1719Z" fill="#A65993"/>
<path d="M47.8734 55.2285H30.5755C30.0036 55.2285 29.5033 55.7305 29.5033 56.3042C29.5033 56.8779 30.0036 57.3799 30.5755 57.3799H47.8734C48.4452 57.3799 48.9456 56.8779 48.9456 56.3042C48.9456 55.7305 48.4452 55.2285 47.8734 55.2285Z" fill="#A65993"/>
<path d="M77.1797 61.3226H81.6114C82.1118 63.5454 84.1132 65.2663 86.472 65.2663C89.2597 65.2663 91.4755 63.0435 91.4755 60.2471C91.4755 57.4507 89.2597 55.2279 86.472 55.2279C84.1132 55.2279 82.0403 56.9488 81.6114 59.1716H77.1797V46.265H81.4685C81.6829 48.8463 83.8273 50.9257 86.472 50.9257C89.2597 50.9257 91.4755 48.7029 91.4755 45.9065C91.4755 43.1101 89.2597 40.8873 86.472 40.8873C84.3276 40.8873 82.4692 42.2496 81.7544 44.1139H76.036C75.4642 44.1139 74.9639 44.6158 74.9639 45.1895C74.9639 45.3329 74.9639 45.4046 75.0353 45.548C74.9639 45.6914 74.9639 45.7631 74.9639 45.9065V59.1716H70.6751V39.6683C70.6751 39.0947 70.1748 38.5928 69.6029 38.5928H26.0722C25.5004 38.5928 25 39.0947 25 39.6683V69.6402C25 70.2138 25.5004 70.7158 26.0722 70.7158H44.5138V74.2292H41.2972C40.7254 74.2292 40.225 74.7311 40.225 75.3047C40.225 75.8784 40.7254 76.3803 41.2972 76.3803H45.586H50.1606H54.4494C55.0212 76.3803 55.5216 75.8784 55.5216 75.3047C55.5216 74.7311 55.0212 74.2292 54.4494 74.2292H51.2328V70.7158H69.6744C70.2462 70.7158 70.7466 70.2138 70.7466 69.6402V61.3226H75.0353V74.5877C75.0353 75.1613 75.5357 75.6633 76.1075 75.6633H81.6114C82.1118 77.8861 84.1132 79.6069 86.472 79.6069C89.2597 79.6069 91.4755 77.3841 91.4755 74.5877C91.4755 71.7913 89.2597 69.5685 86.472 69.5685C84.1132 69.5685 82.0403 71.2894 81.6114 73.5122H77.1797V61.3226ZM86.472 57.379C88.0445 57.379 89.3312 58.6696 89.3312 60.2471C89.3312 61.8246 88.0445 63.1152 86.472 63.1152C84.8995 63.1152 83.6128 61.8246 83.6128 60.2471C83.6128 58.6696 84.8995 57.379 86.472 57.379ZM86.472 43.0384C88.0445 43.0384 89.3312 44.329 89.3312 45.9065C89.3312 47.484 88.0445 48.7746 86.472 48.7746C84.8995 48.7746 83.6128 47.484 83.6128 45.9065C83.6128 44.329 84.8995 43.0384 86.472 43.0384ZM49.0884 74.2292H46.6582V70.7158H49.0884V74.2292ZM68.6022 68.5647H50.1606H45.586H27.1444V40.7439H68.6022V59.1716H66.2434V56.3034C66.2434 55.7298 65.7431 55.2279 65.1712 55.2279H54.3064C53.7346 55.2279 53.2342 55.7298 53.2342 56.3034V64.1908C53.2342 64.7644 53.7346 65.2663 54.3064 65.2663H65.1712C65.7431 65.2663 66.2434 64.7644 66.2434 64.1908V61.3226H68.6022V68.5647ZM64.099 63.1152H55.3786V57.379H64.099V63.1152ZM86.472 71.7196C88.0445 71.7196 89.3312 73.0103 89.3312 74.5877C89.3312 76.1652 88.0445 77.4558 86.472 77.4558C84.8995 77.4558 83.6128 76.1652 83.6128 74.5877C83.6128 73.0103 84.8995 71.7196 86.472 71.7196Z" fill="#A65993"/>
</svg>
