<svg width="112" height="113" viewBox="0 0 112 113" fill="none" xmlns="http://www.w3.org/2000/svg">
<path d="M35.6783 45.1508C33.5373 45.0885 31.4224 45.6353 29.5781 46.7279C27.7337 47.8206 26.2353 49.4144 25.2559 51.3253C24.2765 53.2362 23.8562 55.3862 24.0435 57.5266C24.2308 59.667 25.018 61.7105 26.3143 63.421C27.6106 65.1315 29.3629 66.4391 31.3687 67.1928C33.3746 67.9464 35.5521 68.1152 37.6496 67.6797C39.7471 67.2443 41.6789 66.2223 43.2218 64.7319C44.7647 63.2416 45.8557 61.3436 46.3686 59.2575H55.6857V63.2388C55.6976 63.6438 55.8663 64.0281 56.1561 64.3102C56.4458 64.5924 56.8337 64.7504 57.2376 64.7504C57.6414 64.7504 58.0293 64.5924 58.3191 64.3102C58.6088 64.0281 58.7775 63.6438 58.7894 63.2388V59.2575H64.683V62.073C64.6872 62.793 64.9754 63.4821 65.4844 63.9897C65.9935 64.4973 66.6821 64.7822 67.3998 64.7822C68.1176 64.7822 68.8062 64.4973 69.3152 63.9897C69.8243 63.4821 70.1124 62.793 70.1167 62.073V53.8068H46.3686C45.7749 51.3901 44.4081 49.2353 42.4774 47.672C40.5467 46.1087 38.1584 45.223 35.6783 45.1508ZM35.2014 50.5729C35.9925 50.5533 36.7794 50.6931 37.5157 50.984C38.2519 51.2749 38.9225 51.711 39.4878 52.2665C40.053 52.822 40.5014 53.4855 40.8064 54.218C41.1114 54.9504 41.2668 55.7368 41.2634 56.5306C41.2758 57.3177 41.1319 58.0995 40.8403 58.8302C40.5486 59.561 40.1149 60.2263 39.5644 60.7873C39.0139 61.3483 38.3577 61.7938 37.6339 62.0979C36.9101 62.402 36.1332 62.5587 35.3485 62.5587C34.5638 62.5587 33.7869 62.402 33.0631 62.0979C32.3393 61.7938 31.6831 61.3483 31.1326 60.7873C30.5821 60.2263 30.1484 59.561 29.8567 58.8302C29.565 58.0995 29.4212 57.3177 29.4336 56.5306C29.427 54.9781 30.0272 53.4848 31.1054 52.371C32.1837 51.2572 33.6542 50.6117 35.2014 50.5729Z" fill="#A65993"/>
<path d="M38.9066 36.6825C42.719 33.2925 47.4264 31.0795 52.4628 30.3094C57.4992 29.5394 62.6501 30.2452 67.2961 32.3419C71.9421 34.4387 75.8855 37.8369 78.6518 42.1283C81.4182 46.4198 82.8899 51.4216 82.8899 56.5321C82.8899 61.6426 81.4182 66.6442 78.6518 70.9356C75.8855 75.227 71.9421 78.6255 67.2961 80.7222C62.6501 82.8189 57.4992 83.5248 52.4628 82.7547C47.4264 81.9847 42.719 79.7714 38.9066 76.3814C38.3674 75.9019 37.6604 75.657 36.9411 75.7004C36.2218 75.7438 35.5492 76.0719 35.0711 76.6128C34.5931 77.1537 34.3489 77.8631 34.3921 78.5846C34.4354 79.3062 34.7626 79.9808 35.3018 80.4604C39.8976 84.547 45.5723 87.2149 51.6437 88.1432C57.715 89.0715 63.9244 88.2206 69.5252 85.693C75.126 83.1654 79.8796 79.0687 83.2145 73.8954C86.5494 68.7221 88.3235 62.6927 88.3235 56.5321C88.3235 50.3714 86.5494 44.3418 83.2145 39.1685C79.8796 33.9953 75.126 29.8985 69.5252 27.3709C63.9244 24.8433 57.715 23.9925 51.6437 24.9208C45.5723 25.8491 39.8976 28.517 35.3018 32.6036C34.7628 33.0832 34.4358 33.7579 34.3926 34.4793C34.3494 35.2008 34.5937 35.9098 35.0716 36.4506C35.5496 36.9914 36.2221 37.3197 36.9412 37.3632C37.6604 37.4067 38.3674 37.1618 38.9066 36.6825Z" fill="#A65993"/>
<path d="M56 112.831C41.0372 112.831 26.9818 106.991 16.4016 96.3781C5.82134 85.7648 0 71.6654 0 56.6558C0 41.6461 5.82134 27.5467 16.4016 16.9334C26.9818 6.32003 41.0372 0.480469 56 0.480469C70.9628 0.480469 85.0182 6.32003 95.5984 16.9334C106.179 27.5467 112 41.6461 112 56.6558C112 71.6654 106.179 85.7648 95.5984 96.3781C85.0182 106.991 70.9628 112.831 56 112.831ZM56 4.03306C27.0704 4.03306 3.5415 27.6356 3.5415 56.6558C3.5415 85.676 27.0704 109.278 56 109.278C84.9296 109.278 108.458 85.676 108.458 56.6558C108.458 27.6356 84.9296 4.03306 56 4.03306Z" fill="#A65993"/>
</svg>
