<?xml version="1.0" encoding="UTF-8"?> <!-- Creator: CorelDRAW 2019 (64-Bit) --> <svg xmlns="http://www.w3.org/2000/svg" xmlns:xlink="http://www.w3.org/1999/xlink" xml:space="preserve" width="431.101mm" height="74.2391mm" style="shape-rendering:geometricPrecision; text-rendering:geometricPrecision; image-rendering:optimizeQuality; fill-rule:evenodd; clip-rule:evenodd" viewBox="0 0 28443.16 4898.14"> <defs> <style type="text/css"> <![CDATA[ .fil0 {fill:#0041A5} .fil1 {fill:white;fill-rule:nonzero} ]]> </style> </defs> <g id="Слой_x0020_1"> <metadata id="CorelCorpID_0Corel-Layer"></metadata> <g id="_933206880"> <g> <path class="fil0" d="M4346.96 562c-209.04,-209.04 -547.95,-209.04 -756.99,0 -209.04,209.04 -209.04,547.95 0,756.99 209.04,209.04 547.95,209.04 756.99,0 209.04,-209.04 209.04,-547.95 0,-756.99z"></path> <path class="fil0" d="M2832.98 2075.98c-209.04,-209.04 -547.95,-209.04 -756.99,0 -209.04,209.04 -209.04,547.95 0,756.99 209.04,209.04 547.95,209.04 756.99,0 209.04,-209.04 209.04,-547.95 0,-756.99z"></path> <path class="fil0" d="M1319 3589.97c-209.04,-209.04 -547.95,-209.04 -756.99,0 -209.04,209.04 -209.04,547.95 0,756.98 209.04,209.04 547.95,209.04 756.99,0 209.04,-209.04 209.04,-547.95 0,-756.98z"></path> <polygon class="fil0" points="3914.39,1162.78 3746.18,994.56 718.21,4022.52 886.43,4190.74 "></polygon> </g> <g> <path class="fil0" d="M4741.36 2470.39c-209.04,-209.04 -547.95,-209.04 -756.98,0 -209.04,209.04 -209.04,547.95 0,756.99 209.04,209.04 547.95,209.04 756.98,0 209.04,-209.04 209.04,-547.95 0,-756.99z"></path> <path class="fil0" d="M3227.38 3984.37c-209.04,-209.04 -547.95,-209.04 -756.99,0 -209.04,209.04 -209.04,547.95 0,756.99 209.04,209.04 547.95,209.04 756.99,0 209.04,-209.04 209.04,-547.95 0,-756.99z"></path> <polygon class="fil0" points="4308.8,3071.16 4140.58,2902.94 2662.65,4380.88 2830.87,4549.09 "></polygon> </g> <g> <path class="fil0" d="M2427.76 156.78c-209.04,-209.04 -547.95,-209.04 -756.99,0 -209.04,209.04 -209.04,547.95 0,756.98 209.04,209.04 547.95,209.04 756.99,0 209.04,-209.04 209.04,-547.95 0,-756.98z"></path> <path class="fil0" d="M913.77 1670.76c-209.04,-209.04 -547.95,-209.04 -756.99,0 -209.04,209.04 -209.04,547.95 0,756.99 209.04,209.04 547.95,209.04 756.99,0 209.04,-209.04 209.04,-547.95 0,-756.99z"></path> <polygon class="fil0" points="1995.19,757.56 1826.98,589.33 349.04,2067.27 517.26,2235.49 "></polygon> </g> </g> <g id="_933208288"> <path class="fil1" d="M7973.05 1022.28l-194.33 0 -71.59 -187.02 -447.11 0 -71.59 187.02 -194.33 0 382.82 -974.57 213.33 0 382.81 974.57zm-314.14 -337.52l-175.34 -464.64 -175.34 464.64 350.67 0zm737.86 355.05c-107.15,0 -194.81,-34.82 -263,-104.47 -68.18,-69.65 -102.28,-158.53 -102.28,-266.65 0,-107.15 34.1,-195.55 102.28,-265.2 68.19,-69.65 155.85,-104.47 263,-104.47 117.86,0 207.97,41.89 270.31,125.66l-100.82 93.52c-38.96,-55.53 -93.02,-83.28 -162.18,-83.28 -64.29,0 -115.92,21.67 -154.88,65.01 -38.96,43.35 -58.44,99.6 -58.44,168.77 0,69.16 19.48,125.66 58.44,169.49 38.97,43.83 90.59,65.75 154.88,65.75 67.21,0 121.27,-27.76 162.18,-83.28l100.82 93.51c-62.34,83.77 -152.45,125.66 -270.31,125.66zm726.18 0c-107.15,0 -194.81,-34.82 -263,-104.47 -68.18,-69.65 -102.28,-158.53 -102.28,-266.65 0,-107.15 34.1,-195.55 102.28,-265.2 68.19,-69.65 155.85,-104.47 263,-104.47 117.86,0 207.97,41.89 270.31,125.66l-100.82 93.52c-38.96,-55.53 -93.02,-83.28 -162.18,-83.28 -64.29,0 -115.92,21.67 -154.88,65.01 -38.96,43.35 -58.44,99.6 -58.44,168.77 0,69.16 19.48,125.66 58.44,169.49 38.97,43.83 90.59,65.75 154.88,65.75 67.21,0 121.27,-27.76 162.18,-83.28l100.82 93.51c-62.34,83.77 -152.45,125.66 -270.31,125.66zm723.26 0c-109.09,0 -196.76,-35.79 -263,-107.39 -66.24,-71.59 -99.36,-159.5 -99.36,-263.73 0,-104.23 33.12,-191.9 99.36,-263 66.24,-71.11 153.91,-106.67 263,-106.67 110.07,0 198.23,35.56 264.47,106.67 66.24,71.1 99.36,158.77 99.36,263 0,105.2 -33.12,193.35 -99.36,264.46 -66.24,71.11 -154.4,106.66 -264.47,106.66zm0 -135.88c63.32,0 113.24,-22.65 149.77,-67.94 36.53,-45.29 54.79,-101.06 54.79,-167.29 0,-65.27 -18.26,-120.54 -54.79,-165.84 -36.53,-45.29 -86.45,-67.94 -149.77,-67.94 -62.34,0 -111.77,22.64 -148.3,67.94 -36.53,45.3 -54.79,100.58 -54.79,165.84 0,66.24 18.26,122 54.79,167.29 36.53,45.29 85.96,67.94 148.3,67.94zm1073.92 298.07l0 -179.72 -555.22 0 0 -705.72 153.42 0 0 571.3 324.37 0 0 -571.3 153.42 0 0 571.3 77.44 0 0 314.14 -153.42 0zm426.65 -179.72l-147.57 0 0 -705.72 153.42 0 0 474.86 324.37 -474.86 153.42 0 0 705.72 -153.42 0 0 -488.01 -330.21 488.01zm1266.79 0l-153.41 0 0 -75.98c-54.55,62.34 -130.53,93.51 -227.94,93.51 -64.29,0 -121.27,-20.7 -170.95,-62.09 -49.67,-41.4 -74.52,-98.63 -74.52,-171.68 0,-75.01 24.6,-131.99 73.78,-170.96 49.19,-38.96 106.42,-58.44 171.68,-58.44 100.33,0 176.31,30.2 227.94,90.59l0 -105.2c0,-40.91 -15.1,-73.05 -45.3,-96.43 -30.19,-23.38 -70.13,-35.07 -119.81,-35.07 -78.9,0 -148.55,29.71 -208.94,89.13l-62.83 -106.66c79.87,-75.98 178.75,-113.97 296.61,-113.97 86.69,0 157.31,20.46 211.86,61.37 54.55,40.91 81.82,105.69 81.82,194.33l0 467.56zm-321.44 -87.66c76.95,0 132.97,-24.35 168.03,-73.06l0 -106.66c-35.07,-48.7 -91.08,-73.06 -168.03,-73.06 -43.84,0 -79.87,11.68 -108.12,35.07 -28.25,23.38 -42.37,54.06 -42.37,92.05 0,37.99 14.13,68.43 42.37,91.32 28.25,22.89 64.29,34.34 108.12,34.34zm1075.38 267.38l0 -179.72 -555.22 0 0 -705.72 153.42 0 0 571.3 324.37 0 0 -571.3 153.42 0 0 571.3 77.44 0 0 314.14 -153.42 0zm426.65 -179.72l-147.57 0 0 -705.72 153.42 0 0 474.86 324.37 -474.86 153.42 0 0 705.72 -153.42 0 0 -488.01 -330.21 488.01zm832.84 0l-175.34 0 173.88 -263c-48.7,-10.71 -88.4,-35.07 -119.08,-73.06 -30.69,-37.99 -46.03,-86.21 -46.03,-144.65 0,-63.31 20.7,-116.65 62.1,-159.99 41.39,-43.35 98.62,-65.02 171.68,-65.02l403.27 0 0 705.72 -153.42 0 0 -255.7 -162.19 0 -154.88 255.7zm86.21 -390.12l230.86 0 0 -181.18 -230.86 0c-29.22,0 -52.6,8.52 -70.13,25.57 -17.53,17.05 -26.3,38.72 -26.3,65.02 0,27.28 8.52,49.19 25.57,65.75 17.05,16.56 40.67,24.84 70.87,24.84z"></path> <path class="fil1" d="M6909.16 2709.88l-144.65 0 -233.78 -263 233.78 -258.62 144.65 0 -233.78 258.62 233.78 263zm-248.39 0l-144.65 0 -233.78 -263 233.78 -258.62 144.65 0 -233.78 258.62 233.78 263zm1189.35 92.05l-210.4 0 -327.29 -410.57 -84.74 99.36 0 311.22 -170.96 0 0 -974.57 170.96 0 0 464.64 381.35 -464.64 211.86 0 -395.97 460.25 425.19 514.32zm384.27 17.53c-109.09,0 -196.76,-35.79 -263,-107.39 -66.24,-71.59 -99.36,-159.5 -99.36,-263.73 0,-104.23 33.12,-191.9 99.36,-263 66.24,-71.11 153.91,-106.67 263,-106.67 110.07,0 198.23,35.56 264.47,106.67 66.24,71.1 99.36,158.77 99.36,263 0,105.2 -33.12,193.35 -99.36,264.46 -66.24,71.11 -154.4,106.66 -264.47,106.66zm0 -135.88c63.32,0 113.24,-22.65 149.77,-67.94 36.53,-45.29 54.79,-101.06 54.79,-167.29 0,-65.27 -18.26,-120.54 -54.79,-165.84 -36.53,-45.29 -86.45,-67.94 -149.77,-67.94 -62.34,0 -111.77,22.64 -148.3,67.94 -36.53,45.3 -54.79,100.58 -54.79,165.84 0,66.24 18.26,122 54.79,167.29 36.53,45.29 85.96,67.94 148.3,67.94zm672.12 118.35l-153.42 0 0 -705.72 153.42 0 0 277.61 324.37 0 0 -277.61 153.42 0 0 705.72 -153.42 0 0 -293.69 -324.37 0 0 293.69zm997.94 17.53c-107.15,0 -194.81,-34.82 -263,-104.47 -68.18,-69.65 -102.28,-158.53 -102.28,-266.65 0,-107.15 34.1,-195.55 102.28,-265.2 68.19,-69.65 155.85,-104.47 263,-104.47 117.86,0 207.97,41.89 270.31,125.66l-100.82 93.52c-38.96,-55.53 -93.02,-83.28 -162.18,-83.28 -64.29,0 -115.92,21.67 -154.88,65.01 -38.96,43.35 -58.44,99.6 -58.44,168.77 0,69.16 19.48,125.66 58.44,169.49 38.97,43.83 90.59,65.75 154.88,65.75 67.21,0 121.27,-27.76 162.18,-83.28l100.82 93.51c-62.34,83.77 -152.45,125.66 -270.31,125.66zm723.26 0c-109.09,0 -196.76,-35.79 -263,-107.39 -66.24,-71.59 -99.36,-159.5 -99.36,-263.73 0,-104.23 33.12,-191.9 99.36,-263 66.24,-71.11 153.91,-106.67 263,-106.67 110.07,0 198.23,35.56 264.47,106.67 66.24,71.1 99.36,158.77 99.36,263 0,105.2 -33.12,193.35 -99.36,264.46 -66.24,71.11 -154.4,106.66 -264.47,106.66zm0 -135.88c63.32,0 113.24,-22.65 149.77,-67.94 36.53,-45.29 54.79,-101.06 54.79,-167.29 0,-65.27 -18.26,-120.54 -54.79,-165.84 -36.53,-45.29 -86.45,-67.94 -149.77,-67.94 -62.34,0 -111.77,22.64 -148.3,67.94 -36.53,45.3 -54.79,100.58 -54.79,165.84 0,66.24 18.26,122 54.79,167.29 36.53,45.29 85.96,67.94 148.3,67.94zm898.59 135.88c-93.52,0 -169.01,-38.47 -226.48,-115.43l0 366.75 -153.42 0 0 -974.57 153.42 0 0 96.43c56.5,-75.98 131.99,-113.97 226.48,-113.97 92.53,0 167.78,33.12 225.74,99.36 57.96,66.24 86.93,156.34 86.93,270.31 0,113.96 -28.98,204.31 -86.93,271.04 -57.96,66.72 -133.21,100.08 -225.74,100.08zm-45.3 -135.88c60.4,0 108.61,-21.92 144.66,-65.75 36.04,-43.84 54.06,-100.33 54.06,-169.49 0,-69.16 -18.02,-125.42 -54.06,-168.77 -36.04,-43.34 -84.26,-65.01 -144.66,-65.01 -35.07,0 -69.65,9.25 -103.74,27.76 -34.09,18.51 -59.91,40.91 -77.44,67.21l0 279.07c17.53,26.31 43.35,48.7 77.44,67.21 34.09,18.51 68.67,27.76 103.74,27.76zm1065.16 298.07l0 -179.72 -555.22 0 0 -705.72 153.42 0 0 571.3 324.37 0 0 -571.3 153.42 0 0 571.3 77.44 0 0 314.14 -153.42 0zm426.65 -179.72l-147.57 0 0 -705.72 153.42 0 0 474.86 324.37 -474.86 153.42 0 0 705.72 -153.42 0 0 -488.01 -330.21 488.01zm651.66 276.15l23.38 -137.35c17.53,7.79 37.01,11.69 58.44,11.69 49.67,0 83.28,-20.45 100.81,-61.37l35.07 -80.36 -289.3 -714.49 163.65 0 206.02 528.93 206.02 -528.93 165.1 0 -340.44 832.84c-41.88,104.23 -122.73,157.31 -242.55,159.26 -32.14,0 -60.88,-3.4 -86.21,-10.23zm1556.1 -276.15l-153.42 0 0 -490.94 -210.4 490.94 -61.37 0 -211.86 -490.94 0 490.94 -153.42 0 0 -705.72 200.17 0 195.8 455.87 192.87 -455.87 201.64 0 0 705.72zm954.11 17.53c-93.52,0 -169.01,-38.47 -226.48,-115.43l0 366.75 -153.42 0 0 -974.57 153.42 0 0 96.43c56.5,-75.98 131.99,-113.97 226.48,-113.97 92.53,0 167.78,33.12 225.74,99.36 57.96,66.24 86.93,156.34 86.93,270.31 0,113.96 -28.98,204.31 -86.93,271.04 -57.96,66.72 -133.21,100.08 -225.74,100.08zm-45.3 -135.88c60.4,0 108.61,-21.92 144.66,-65.75 36.04,-43.84 54.06,-100.33 54.06,-169.49 0,-69.16 -18.02,-125.42 -54.06,-168.77 -36.04,-43.34 -84.26,-65.01 -144.66,-65.01 -35.07,0 -69.65,9.25 -103.74,27.76 -34.09,18.51 -59.91,40.91 -77.44,67.21l0 279.07c17.53,26.31 43.35,48.7 77.44,67.21 34.09,18.51 68.67,27.76 103.74,27.76zm1094.38 118.35l-153.41 0 0 -75.98c-54.55,62.34 -130.53,93.51 -227.94,93.51 -64.29,0 -121.27,-20.7 -170.95,-62.09 -49.67,-41.4 -74.52,-98.63 -74.52,-171.68 0,-75.01 24.6,-131.99 73.78,-170.96 49.19,-38.96 106.42,-58.44 171.68,-58.44 100.33,0 176.31,30.2 227.94,90.59l0 -105.2c0,-40.91 -15.1,-73.05 -45.3,-96.43 -30.19,-23.38 -70.13,-35.07 -119.81,-35.07 -78.9,0 -148.55,29.71 -208.94,89.13l-62.83 -106.66c79.87,-75.98 178.75,-113.97 296.61,-113.97 86.69,0 157.31,20.46 211.86,61.37 54.55,40.91 81.82,105.69 81.82,194.33l0 467.56zm-321.44 -87.66c76.95,0 132.97,-24.35 168.03,-73.06l0 -106.66c-35.07,-48.7 -91.08,-73.06 -168.03,-73.06 -43.84,0 -79.87,11.68 -108.12,35.07 -28.25,23.38 -42.37,54.06 -42.37,92.05 0,37.99 14.13,68.43 42.37,91.32 28.25,22.89 64.29,34.34 108.12,34.34zm447.1 267.38l0 -306.84c33.12,-7.79 58.21,-27.03 75.25,-57.71 17.05,-30.69 30.93,-89.86 41.65,-177.53l42.37 -343.36 545 0 0 571.3 77.44 0 0 314.14 -153.42 0 0 -179.72 -474.86 0 0 179.72 -153.42 0zm295.15 -751.01l-24.83 226.47c-9.74,93.52 -40.91,163.65 -93.52,210.4l374.05 0 0 -436.87 -255.7 0zm759.78 571.3l-147.57 0 0 -705.72 153.42 0 0 474.86 324.37 -474.86 153.42 0 0 705.72 -153.42 0 0 -488.01 -330.21 488.01zm1000.87 17.53c-109.09,0 -196.76,-35.79 -263,-107.39 -66.24,-71.59 -99.36,-159.5 -99.36,-263.73 0,-104.23 33.12,-191.9 99.36,-263 66.24,-71.11 153.91,-106.67 263,-106.67 110.07,0 198.23,35.56 264.47,106.67 66.24,71.1 99.36,158.77 99.36,263 0,105.2 -33.12,193.35 -99.36,264.46 -66.24,71.11 -154.4,106.66 -264.47,106.66zm0 -135.88c63.32,0 113.24,-22.65 149.77,-67.94 36.53,-45.29 54.79,-101.06 54.79,-167.29 0,-65.27 -18.26,-120.54 -54.79,-165.84 -36.53,-45.29 -86.45,-67.94 -149.77,-67.94 -62.34,0 -111.77,22.64 -148.3,67.94 -36.53,45.3 -54.79,100.58 -54.79,165.84 0,66.24 18.26,122 54.79,167.29 36.53,45.29 85.96,67.94 148.3,67.94zm724.72 135.88c-117.86,0 -207.96,-41.88 -270.31,-125.66l94.98 -89.13c43.83,59.42 99.84,89.13 168.03,89.13 54.55,0 100.09,-15.83 136.61,-47.48 36.53,-31.66 60.15,-76.22 70.87,-133.69l-318.53 0 0 -132.97 317.06 0c-10.71,-54.54 -34.33,-97.41 -70.86,-128.58 -36.53,-31.17 -81.58,-46.76 -135.16,-46.76 -70.13,0 -126.14,29.71 -168.03,89.13l-94.98 -89.13c62.34,-83.77 152.44,-125.66 270.31,-125.66 107.15,0 194.82,34.82 263,104.47 68.19,69.65 102.28,158.05 102.28,265.2 0,108.12 -34.09,197 -102.28,266.65 -68.18,69.65 -155.85,104.47 -263,104.47zm447.11 0l0 -125.66c30.2,0 54.31,-19.48 72.33,-58.44 18.03,-38.96 32.88,-104.23 44.57,-195.79l42.37 -343.36 545 0 0 705.72 -153.42 0 0 -571.3 -255.7 0 -24.83 226.47c-13.64,126.63 -42.38,218.68 -86.21,276.16 -43.84,57.47 -105.2,86.2 -184.1,86.2zm1228.81 0c-107.15,0 -195.55,-34.33 -265.2,-103 -69.65,-68.68 -104.47,-158.04 -104.47,-268.11 0,-103.26 33.85,-190.68 101.55,-262.28 67.69,-71.59 153.17,-107.39 256.42,-107.39 104.23,0 188.24,36.04 252.04,108.12 63.8,72.08 95.71,164.13 95.71,276.15l0 36.53 -545 0c5.85,55.52 28.74,101.79 68.68,138.8 39.94,37.01 92.05,55.52 156.34,55.52 36.04,0 72.33,-6.82 108.85,-20.45 36.53,-13.64 66.97,-32.63 91.32,-56.99l70.13 100.82c-71.1,68.18 -166.57,102.27 -286.38,102.27zm187.02 -428.1c-1.95,-48.7 -19.73,-92.05 -53.33,-130.04 -33.61,-37.99 -82.07,-56.99 -145.38,-56.99 -60.39,0 -107.64,18.76 -141.73,56.26 -34.09,37.5 -53.09,81.09 -56.99,130.77l397.42 0zm961.42 410.57l-192.87 0 -216.25 -290.76 -97.89 100.82 0 189.94 -153.42 0 0 -705.72 153.42 0 0 340.44 311.22 -340.44 189.94 0 -293.68 319.99 299.53 385.73zm390.12 0l-153.42 0 0 -571.3 -201.64 0 0 -134.42 558.15 0 0 134.42 -203.09 0 0 571.3zm708.65 17.53c-93.52,0 -169.01,-38.47 -226.48,-115.43l0 366.75 -153.42 0 0 -974.57 153.42 0 0 96.43c56.5,-75.98 131.99,-113.97 226.48,-113.97 92.53,0 167.78,33.12 225.74,99.36 57.96,66.24 86.93,156.34 86.93,270.31 0,113.96 -28.98,204.31 -86.93,271.04 -57.96,66.72 -133.21,100.08 -225.74,100.08zm-45.3 -135.88c60.4,0 108.61,-21.92 144.66,-65.75 36.04,-43.84 54.06,-100.33 54.06,-169.49 0,-69.16 -18.02,-125.42 -54.06,-168.77 -36.04,-43.34 -84.26,-65.01 -144.66,-65.01 -35.07,0 -69.65,9.25 -103.74,27.76 -34.09,18.51 -59.91,40.91 -77.44,67.21l0 279.07c17.53,26.31 43.35,48.7 77.44,67.21 34.09,18.51 68.67,27.76 103.74,27.76zm828.46 135.88c-109.09,0 -196.76,-35.79 -263,-107.39 -66.24,-71.59 -99.36,-159.5 -99.36,-263.73 0,-104.23 33.12,-191.9 99.36,-263 66.24,-71.11 153.91,-106.67 263,-106.67 110.07,0 198.23,35.56 264.47,106.67 66.24,71.1 99.36,158.77 99.36,263 0,105.2 -33.12,193.35 -99.36,264.46 -66.24,71.11 -154.4,106.66 -264.47,106.66zm0 -135.88c63.32,0 113.24,-22.65 149.77,-67.94 36.53,-45.29 54.79,-101.06 54.79,-167.29 0,-65.27 -18.26,-120.54 -54.79,-165.84 -36.53,-45.29 -86.45,-67.94 -149.77,-67.94 -62.34,0 -111.77,22.64 -148.3,67.94 -36.53,45.3 -54.79,100.58 -54.79,165.84 0,66.24 18.26,122 54.79,167.29 36.53,45.29 85.96,67.94 148.3,67.94zm672.12 118.35l-153.42 0 0 -705.72 153.42 0 0 277.61 324.37 0 0 -277.61 153.42 0 0 705.72 -153.42 0 0 -293.69 -324.37 0 0 293.69zm829.92 0l-153.42 0 0 -705.72 153.42 0 0 277.61 324.37 0 0 -277.61 153.42 0 0 705.72 -153.42 0 0 -293.69 -324.37 0 0 293.69zm995.02 17.53c-109.09,0 -196.76,-35.79 -263,-107.39 -66.24,-71.59 -99.36,-159.5 -99.36,-263.73 0,-104.23 33.12,-191.9 99.36,-263 66.24,-71.11 153.91,-106.67 263,-106.67 110.07,0 198.23,35.56 264.47,106.67 66.24,71.1 99.36,158.77 99.36,263 0,105.2 -33.12,193.35 -99.36,264.46 -66.24,71.11 -154.4,106.66 -264.47,106.66zm0 -135.88c63.32,0 113.24,-22.65 149.77,-67.94 36.53,-45.29 54.79,-101.06 54.79,-167.29 0,-65.27 -18.26,-120.54 -54.79,-165.84 -36.53,-45.29 -86.45,-67.94 -149.77,-67.94 -62.34,0 -111.77,22.64 -148.3,67.94 -36.53,45.3 -54.79,100.58 -54.79,165.84 0,66.24 18.26,122 54.79,167.29 36.53,45.29 85.96,67.94 148.3,67.94zm666.27 118.35l-147.57 0 0 -705.72 153.42 0 0 474.86 324.37 -474.86 153.42 0 0 705.72 -153.42 0 0 -488.01 -330.21 488.01zm423.72 -908.82c-63.31,85.72 -148.54,128.58 -255.69,128.58 -106.18,0 -191.9,-42.86 -257.16,-128.58l70.13 -58.44c46.76,64.29 109.1,96.43 187.03,96.43 77.92,0 139.77,-32.14 185.56,-96.43l70.13 58.44z"></path> <path class="fil1" d="M7723.19 4581.58l-153.42 0 0 -571.3 -324.37 0 0 571.3 -153.42 0 0 -705.72 631.2 0 0 705.72zm578.61 17.53c-93.52,0 -169.01,-38.47 -226.48,-115.43l0 366.75 -153.42 0 0 -974.57 153.42 0 0 96.43c56.5,-75.98 131.99,-113.97 226.48,-113.97 92.53,0 167.78,33.12 225.74,99.36 57.96,66.24 86.93,156.34 86.93,270.31 0,113.96 -28.98,204.31 -86.93,271.04 -57.96,66.72 -133.21,100.08 -225.74,100.08zm-45.3 -135.88c60.4,0 108.61,-21.92 144.66,-65.75 36.04,-43.84 54.06,-100.33 54.06,-169.49 0,-69.16 -18.02,-125.42 -54.06,-168.77 -36.04,-43.34 -84.26,-65.01 -144.66,-65.01 -35.07,0 -69.65,9.25 -103.74,27.76 -34.09,18.51 -59.91,40.91 -77.44,67.21l0 279.07c17.53,26.31 43.35,48.7 77.44,67.21 34.09,18.51 68.67,27.76 103.74,27.76zm828.46 135.88c-109.09,0 -196.76,-35.79 -263,-107.39 -66.24,-71.59 -99.36,-159.5 -99.36,-263.73 0,-104.23 33.12,-191.9 99.36,-263 66.24,-71.11 153.91,-106.67 263,-106.67 110.07,0 198.23,35.56 264.47,106.67 66.24,71.1 99.36,158.77 99.36,263 0,105.2 -33.12,193.35 -99.36,264.46 -66.24,71.11 -154.4,106.66 -264.47,106.66zm0 -135.88c63.32,0 113.24,-22.65 149.77,-67.94 36.53,-45.29 54.79,-101.06 54.79,-167.29 0,-65.27 -18.26,-120.54 -54.79,-165.84 -36.53,-45.29 -86.45,-67.94 -149.77,-67.94 -62.34,0 -111.77,22.64 -148.3,67.94 -36.53,45.3 -54.79,100.58 -54.79,165.84 0,66.24 18.26,122 54.79,167.29 36.53,45.29 85.96,67.94 148.3,67.94zm1309.17 118.35l-153.42 0 0 -490.94 -210.4 490.94 -61.37 0 -211.86 -490.94 0 490.94 -153.42 0 0 -705.72 200.17 0 195.8 455.87 192.87 -455.87 201.64 0 0 705.72zm198.71 -705.72l153.42 0 0 255.7 249.85 0c75,0 132.71,21.43 173.14,64.29 40.42,42.86 60.64,96.43 60.64,160.72 0,63.31 -20.7,116.64 -62.1,159.99 -41.4,43.35 -98.62,65.02 -171.68,65.02l-403.27 0 0 -705.72zm384.28 390.12l-230.86 0 0 181.18 230.86 0c30.2,0 53.82,-8.28 70.87,-24.84 17.04,-16.56 25.57,-38.47 25.57,-65.75 0,-27.28 -8.52,-49.19 -25.57,-65.75 -17.05,-16.56 -40.67,-24.83 -70.87,-24.83zm512.85 315.6l-153.42 0 0 -705.72 153.42 0 0 705.72zm1002.33 -705.72l153.42 0 0 705.72 -957.04 0 0 -705.72 153.42 0 0 571.3 248.39 0 0 -571.3 153.42 0 0 571.3 248.39 0 0 -571.3zm279.07 723.25l0 -125.66c30.2,0 54.31,-19.48 72.33,-58.44 18.03,-38.96 32.88,-104.23 44.57,-195.79l42.37 -343.36 545 0 0 705.72 -153.42 0 0 -571.3 -255.7 0 -24.83 226.47c-13.64,126.63 -42.38,218.68 -86.21,276.16 -43.84,57.47 -105.2,86.2 -184.1,86.2zm1228.81 0c-107.15,0 -195.55,-34.33 -265.2,-103 -69.65,-68.68 -104.47,-158.04 -104.47,-268.11 0,-103.26 33.85,-190.68 101.55,-262.28 67.69,-71.59 153.17,-107.39 256.42,-107.39 104.23,0 188.24,36.04 252.04,108.12 63.8,72.08 95.71,164.13 95.71,276.15l0 36.53 -545 0c5.85,55.52 28.74,101.79 68.68,138.8 39.94,37.01 92.05,55.52 156.34,55.52 36.04,0 72.33,-6.82 108.85,-20.45 36.53,-13.64 66.97,-32.63 91.32,-56.99l70.13 100.82c-71.1,68.18 -166.57,102.27 -286.38,102.27zm187.02 -428.1c-1.95,-48.7 -19.73,-92.05 -53.33,-130.04 -33.61,-37.99 -82.07,-56.99 -145.38,-56.99 -60.39,0 -107.64,18.76 -141.73,56.26 -34.09,37.5 -53.09,81.09 -56.99,130.77l397.42 0zm454.41 410.57l-153.42 0 0 -705.72 153.42 0 0 277.61 324.37 0 0 -277.61 153.42 0 0 705.72 -153.42 0 0 -293.69 -324.37 0 0 293.69zm829.92 0l-153.42 0 0 -705.72 153.42 0 0 277.61 324.37 0 0 -277.61 153.42 0 0 705.72 -153.42 0 0 -293.69 -324.37 0 0 293.69zm995.02 17.53c-109.09,0 -196.76,-35.79 -263,-107.39 -66.24,-71.59 -99.36,-159.5 -99.36,-263.73 0,-104.23 33.12,-191.9 99.36,-263 66.24,-71.11 153.91,-106.67 263,-106.67 110.07,0 198.23,35.56 264.47,106.67 66.24,71.1 99.36,158.77 99.36,263 0,105.2 -33.12,193.35 -99.36,264.46 -66.24,71.11 -154.4,106.66 -264.47,106.66zm0 -135.88c63.32,0 113.24,-22.65 149.77,-67.94 36.53,-45.29 54.79,-101.06 54.79,-167.29 0,-65.27 -18.26,-120.54 -54.79,-165.84 -36.53,-45.29 -86.45,-67.94 -149.77,-67.94 -62.34,0 -111.77,22.64 -148.3,67.94 -36.53,45.3 -54.79,100.58 -54.79,165.84 0,66.24 18.26,122 54.79,167.29 36.53,45.29 85.96,67.94 148.3,67.94zm840.14 135.88c-107.15,0 -194.81,-34.82 -263,-104.47 -68.18,-69.65 -102.28,-158.53 -102.28,-266.65 0,-107.15 34.1,-195.55 102.28,-265.2 68.19,-69.65 155.85,-104.47 263,-104.47 117.86,0 207.97,41.89 270.31,125.66l-100.82 93.52c-38.96,-55.53 -93.02,-83.28 -162.18,-83.28 -64.29,0 -115.92,21.67 -154.88,65.01 -38.96,43.35 -58.44,99.6 -58.44,168.77 0,69.16 19.48,125.66 58.44,169.49 38.97,43.83 90.59,65.75 154.88,65.75 67.21,0 121.27,-27.76 162.18,-83.28l100.82 93.51c-62.34,83.77 -152.45,125.66 -270.31,125.66zm686.73 -17.53l-153.42 0 0 -571.3 -201.64 0 0 -134.42 558.15 0 0 134.42 -203.09 0 0 571.3zm476.33 0l-147.57 0 0 -705.72 153.42 0 0 474.86 324.37 -474.86 153.42 0 0 705.72 -153.42 0 0 -488.01 -330.21 488.01zm1005.25 -355.05l-233.78 263 -144.65 0 233.78 -263 -233.78 -258.62 144.65 0 233.78 258.62zm248.39 0l-233.78 263 -144.65 0 233.78 -263 -233.78 -258.62 144.65 0 233.78 258.62z"></path> </g> </g> </svg> 